<svg width="805" height="552" viewBox="0 0 805 552" fill="none" xmlns="http://www.w3.org/2000/svg">
<g filter="url(#filter0_d_8_35)">
<path d="M725.036 266.01C725.036 398.563 617.582 506.019 485.032 506.019C352.481 506.019 245.028 398.563 245.028 266.01C245.028 133.456 352.481 26 485.032 26C617.582 26 725.036 133.456 725.036 266.01ZM347.653 266.01C347.653 341.884 409.16 403.392 485.032 403.392C560.904 403.392 622.411 341.884 622.411 266.01C622.411 190.136 560.904 128.628 485.032 128.628C409.16 128.628 347.653 190.136 347.653 266.01Z" fill="#14BAB7"/>
</g>
<g filter="url(#filter1_d_8_35)">
<path d="M725.036 266.01C725.036 218.54 710.96 172.137 684.588 132.667C658.216 93.198 620.732 62.4354 576.877 44.2696C533.022 26.1039 484.766 21.3509 438.209 30.6117C391.653 39.8725 348.889 62.7312 315.323 96.2972L387.89 168.866C407.103 149.653 431.582 136.568 458.23 131.267C484.879 125.966 512.502 128.687 537.604 139.085C562.707 149.483 584.163 167.092 599.258 189.684C614.354 212.277 622.411 238.838 622.411 266.01H725.036Z" fill="url(#paint0_linear_8_35)"/>
</g>
<g filter="url(#filter2_d_8_35)">
<path d="M315.323 96.2972C290.08 121.541 270.785 152.099 258.847 185.745C246.908 219.39 242.625 255.275 246.31 290.785C249.995 326.295 261.556 360.536 280.149 391.012C298.742 421.489 323.9 447.433 353.79 466.956L409.909 381.032C392.8 369.857 378.399 355.006 367.756 337.561C357.113 320.117 350.496 300.517 348.387 280.191C346.277 259.865 348.729 239.324 355.563 220.066C362.397 200.807 373.441 183.316 387.89 168.866L315.323 96.2972Z" fill="#6F8197"/>
</g>
<path d="M77.4451 47.4812H83.8867C84.9777 47.4812 85.982 47.7237 86.8998 48.2085C87.8348 48.6934 88.5708 49.3687 89.1076 50.2345C89.6617 51.1004 89.9388 52.0787 89.9388 53.1697C89.9388 54.2606 89.6617 55.239 89.1076 56.1048C88.5708 56.9706 87.8348 57.6459 86.8998 58.1308C85.982 58.6156 84.9777 58.8581 83.8867 58.8581H80.3542V66.079H77.4451V47.4812ZM83.9646 56.1048C84.588 56.1048 85.1335 55.9662 85.601 55.6892C86.0686 55.3948 86.4236 55.0225 86.666 54.5723C86.9084 54.1221 87.0296 53.6545 87.0296 53.1697C87.0296 52.6848 86.9084 52.2173 86.666 51.767C86.4236 51.3168 86.0686 50.9532 85.601 50.6761C85.1335 50.399 84.588 50.2605 83.9646 50.2605H80.3542V56.1048H83.9646ZM96.3723 66.4946C95.0909 66.4946 93.9394 66.2002 92.9177 65.6114C91.8961 65.0054 91.0909 64.1828 90.5021 63.1439C89.9307 62.1049 89.6449 60.936 89.6449 59.6373C89.6449 58.3386 89.9307 57.1697 90.5021 56.1307C91.0909 55.0918 91.8961 54.2779 92.9177 53.6891C93.9394 53.0831 95.0909 52.78 96.3723 52.78C97.6711 52.78 98.8313 53.0831 99.8529 53.6891C100.875 54.2779 101.671 55.0918 102.243 56.1307C102.814 57.1697 103.1 58.3386 103.1 59.6373C103.1 60.936 102.814 62.1049 102.243 63.1439C101.671 64.1828 100.875 65.0054 99.8529 65.6114C98.8313 66.2002 97.6711 66.4946 96.3723 66.4946ZM96.3723 63.8711C97.065 63.8711 97.7057 63.698 98.2945 63.3517C98.8832 63.0053 99.3594 62.5118 99.723 61.8711C100.087 61.2304 100.269 60.4858 100.269 59.6373C100.269 58.7715 100.087 58.0182 99.723 57.3775C99.3594 56.7368 98.8832 56.252 98.2945 55.923C97.7057 55.5766 97.065 55.4035 96.3723 55.4035C95.697 55.4035 95.0563 55.5766 94.4502 55.923C93.8615 56.252 93.3853 56.7368 93.0216 57.3775C92.6753 58.0182 92.5021 58.7715 92.5021 59.6373C92.5021 60.4858 92.684 61.2304 93.0476 61.8711C93.4112 62.5118 93.8874 63.0053 94.4762 63.3517C95.065 63.698 95.697 63.8711 96.3723 63.8711ZM102.844 53.1956H105.961L108.507 62.2348H108.611L111.494 53.1956H114.455L117.338 62.2348H117.442L119.962 53.1956H123.027L118.871 66.079H115.884L112.949 56.936H112.871L109.961 66.079H106.974L102.844 53.1956ZM129.424 66.4946C128.16 66.4946 127.017 66.2002 125.995 65.6114C124.991 65.0227 124.203 64.2088 123.632 63.1698C123.06 62.1135 122.775 60.936 122.775 59.6373C122.775 58.3905 123.043 57.2477 123.58 56.2087C124.134 55.1524 124.905 54.3212 125.892 53.7151C126.879 53.0917 128.004 52.78 129.268 52.78C130.567 52.78 131.693 53.0658 132.645 53.6372C133.615 54.2086 134.351 55.0052 134.853 56.0269C135.355 57.0312 135.606 58.1914 135.606 59.5074C135.606 59.6633 135.597 59.8191 135.58 59.975C135.563 60.1308 135.554 60.2174 135.554 60.2347H125.632C125.718 61.4122 126.143 62.3213 126.905 62.962C127.666 63.6027 128.532 63.9231 129.502 63.9231C130.991 63.9231 132.134 63.2304 132.931 61.8451L135.372 63.014C134.801 64.0703 134.004 64.9188 132.983 65.5595C131.978 66.1829 130.792 66.4946 129.424 66.4946ZM132.697 58.0529C132.662 57.6373 132.524 57.213 132.281 56.7801C132.039 56.3472 131.658 55.9836 131.138 55.6892C130.636 55.3775 130.004 55.2216 129.242 55.2216C128.394 55.2216 127.658 55.4814 127.034 56.0009C126.428 56.5204 126.013 57.2044 125.788 58.0529H132.697ZM137.048 53.1956H139.75V55.1177H139.905C140.182 54.4597 140.685 53.9143 141.412 53.4814C142.139 53.0311 142.884 52.806 143.646 52.806C144.269 52.806 144.78 52.8926 145.178 53.0658V56.0528C144.589 55.7584 143.931 55.6113 143.204 55.6113C142.269 55.6113 141.481 55.9749 140.84 56.7022C140.217 57.4122 139.905 58.2866 139.905 59.3256V66.079H137.048V53.1956ZM151.62 47.4812H158.608C159.595 47.4812 160.512 47.6977 161.361 48.1306C162.209 48.5635 162.885 49.1609 163.387 49.9228C163.889 50.6848 164.14 51.5246 164.14 52.4424C164.14 53.3601 163.906 54.1567 163.439 54.832C162.971 55.5074 162.365 56.0182 161.621 56.3645V56.5204C162.573 56.8494 163.335 57.3948 163.906 58.1568C164.478 58.9187 164.764 59.8105 164.764 60.8321C164.764 61.8538 164.495 62.7629 163.958 63.5595C163.439 64.356 162.729 64.9794 161.828 65.4296C160.945 65.8625 159.976 66.079 158.919 66.079H151.62V47.4812ZM158.478 55.2736C159.309 55.2736 159.976 55.0138 160.478 54.4944C160.997 53.9749 161.257 53.3775 161.257 52.7021C161.257 52.0268 161.006 51.438 160.504 50.9359C160.019 50.4164 159.378 50.1566 158.582 50.1566H154.53V55.2736H158.478ZM158.919 63.3776C159.802 63.3776 160.504 63.1092 161.023 62.5724C161.56 62.0183 161.828 61.3689 161.828 60.6243C161.828 59.8797 161.551 59.239 160.997 58.7022C160.46 58.1481 159.733 57.871 158.815 57.871H154.53V63.3776H158.919ZM167.96 51.0138C167.423 51.0138 166.964 50.832 166.583 50.4683C166.219 50.0874 166.038 49.6285 166.038 49.0917C166.038 48.5549 166.219 48.1046 166.583 47.741C166.964 47.36 167.423 47.1695 167.96 47.1695C168.496 47.1695 168.947 47.36 169.31 47.741C169.691 48.1046 169.882 48.5549 169.882 49.0917C169.882 49.6285 169.691 50.0874 169.31 50.4683C168.947 50.832 168.496 51.0138 167.96 51.0138ZM166.531 53.1956H169.388V66.079H166.531V53.1956Z" fill="#00807E"/>
<path d="M353.317 62.2228C353.317 59.6014 351.192 57.4763 348.571 57.4763C345.949 57.4763 343.824 59.6014 343.824 62.2228C343.824 64.8442 345.949 66.9692 348.571 66.9692C351.192 66.9692 353.317 64.8442 353.317 62.2228ZM196.65 61.5935C196.303 61.941 196.303 62.5045 196.65 62.8521L202.314 68.5157C202.661 68.8633 203.225 68.8633 203.572 68.5157C203.92 68.1682 203.92 67.6047 203.572 67.2571L198.538 62.2228L203.572 57.1884C203.92 56.8409 203.92 56.2774 203.572 55.9298C203.225 55.5823 202.661 55.5823 202.314 55.9298L196.65 61.5935ZM348.571 61.3328L197.279 61.3328V63.1127L348.571 63.1127V61.3328Z" fill="#959595"/>
<path d="M2.05198 366.749H6.02608L11.3509 380.853H11.5067L16.8574 366.749H20.8056V385.347H17.9224V374.931L18.0782 371.58H17.9224L12.5976 385.347H10.2599L4.93515 371.58H4.77931L4.93515 374.931V385.347H2.05198V366.749ZM25.0623 370.282C24.5255 370.282 24.0666 370.1 23.6857 369.736C23.322 369.355 23.1402 368.896 23.1402 368.359C23.1402 367.823 23.322 367.372 23.6857 367.009C24.0666 366.628 24.5255 366.437 25.0623 366.437C25.5991 366.437 26.0494 366.628 26.413 367.009C26.794 367.372 26.9845 367.823 26.9845 368.359C26.9845 368.896 26.794 369.355 26.413 369.736C26.0494 370.1 25.5991 370.282 25.0623 370.282ZM23.6337 372.463H26.4909V385.347H23.6337V372.463ZM34.7279 385.762C33.4465 385.762 32.295 385.468 31.2733 384.879C30.2516 384.291 29.4551 383.477 28.8836 382.438C28.3122 381.381 28.0265 380.204 28.0265 378.905C28.0265 377.589 28.3122 376.412 28.8836 375.373C29.4551 374.334 30.2516 373.52 31.2733 372.931C32.295 372.342 33.4465 372.048 34.7279 372.048C36.1478 372.048 37.3513 372.386 38.3383 373.061C39.3427 373.719 40.07 374.593 40.5202 375.684L37.8968 376.775C37.2734 375.373 36.1825 374.671 34.624 374.671C33.966 374.671 33.3512 374.853 32.7798 375.217C32.2084 375.563 31.7495 376.057 31.4032 376.697C31.0568 377.338 30.8837 378.074 30.8837 378.905C30.8837 379.736 31.0568 380.472 31.4032 381.113C31.7495 381.754 32.2084 382.256 32.7798 382.619C33.3512 382.966 33.966 383.139 34.624 383.139C35.4205 383.139 36.1132 382.957 36.702 382.594C37.2907 382.213 37.7409 381.676 38.0526 380.983L40.6241 382.1C40.1219 383.191 39.3687 384.074 38.3643 384.749C37.36 385.425 36.1478 385.762 34.7279 385.762ZM41.7928 372.463H44.4941V374.386H44.6499C44.927 373.728 45.4292 373.182 46.1565 372.749C46.8838 372.299 47.6284 372.074 48.3903 372.074C49.0137 372.074 49.5245 372.16 49.9228 372.334V375.321C49.334 375.026 48.676 374.879 47.9487 374.879C47.0136 374.879 46.2257 375.243 45.585 375.97C44.9616 376.68 44.6499 377.554 44.6499 378.593V385.347H41.7928V372.463ZM56.1899 385.762C54.9085 385.762 53.757 385.468 52.7353 384.879C51.7137 384.273 50.9084 383.451 50.3197 382.412C49.7483 381.373 49.4625 380.204 49.4625 378.905C49.4625 377.606 49.7483 376.438 50.3197 375.399C50.9084 374.36 51.7137 373.546 52.7353 372.957C53.757 372.351 54.9085 372.048 56.1899 372.048C57.4887 372.048 58.6488 372.351 59.6705 372.957C60.6922 373.546 61.4887 374.36 62.0602 375.399C62.6316 376.438 62.9173 377.606 62.9173 378.905C62.9173 380.204 62.6316 381.373 62.0602 382.412C61.4887 383.451 60.6922 384.273 59.6705 384.879C58.6488 385.468 57.4887 385.762 56.1899 385.762ZM56.1899 383.139C56.8826 383.139 57.5233 382.966 58.112 382.619C58.7008 382.273 59.177 381.78 59.5406 381.139C59.9043 380.498 60.0861 379.754 60.0861 378.905C60.0861 378.039 59.9043 377.286 59.5406 376.645C59.177 376.005 58.7008 375.52 58.112 375.191C57.5233 374.844 56.8826 374.671 56.1899 374.671C55.5146 374.671 54.8739 374.844 54.2678 375.191C53.6791 375.52 53.2029 376.005 52.8392 376.645C52.4929 377.286 52.3197 378.039 52.3197 378.905C52.3197 379.754 52.5015 380.498 52.8652 381.139C53.2288 381.78 53.705 382.273 54.2938 382.619C54.8825 382.966 55.5146 383.139 56.1899 383.139ZM68.9968 385.762C67.5249 385.762 66.3041 385.425 65.3344 384.749C64.382 384.057 63.7066 383.191 63.3084 382.152L65.8539 381.061C66.1482 381.771 66.5725 382.308 67.1266 382.671C67.698 383.035 68.3214 383.217 68.9968 383.217C69.7067 383.217 70.2868 383.087 70.7371 382.827C71.1873 382.55 71.4124 382.195 71.4124 381.762C71.4124 381.347 71.2306 381.009 70.8669 380.749C70.5033 380.472 69.9059 380.23 69.0747 380.022L67.3084 379.606C66.3387 379.381 65.4989 378.966 64.7889 378.36C64.0962 377.736 63.7499 376.931 63.7499 375.944C63.7499 374.749 64.2434 373.805 65.2305 373.113C66.2175 372.403 67.4296 372.048 68.8669 372.048C70.0617 372.048 71.118 372.299 72.0358 372.801C72.9709 373.303 73.6462 374.031 74.0618 374.983L71.5423 376.048C71.2998 375.511 70.9275 375.113 70.4254 374.853C69.9232 374.593 69.3777 374.463 68.789 374.463C68.2175 374.463 67.7154 374.593 67.2825 374.853C66.8495 375.096 66.6331 375.425 66.6331 375.84C66.6331 376.204 66.7803 376.498 67.0747 376.723C67.3864 376.948 67.8712 377.139 68.5292 377.295L70.4513 377.762C71.7501 378.091 72.7198 378.593 73.3605 379.269C74.0012 379.927 74.3215 380.723 74.3215 381.658C74.3215 382.42 74.0878 383.113 73.6202 383.736C73.17 384.36 72.538 384.853 71.7241 385.217C70.9275 385.581 70.0184 385.762 68.9968 385.762ZM81.7352 385.762C80.4538 385.762 79.3023 385.468 78.2806 384.879C77.259 384.273 76.4537 383.451 75.865 382.412C75.2936 381.373 75.0078 380.204 75.0078 378.905C75.0078 377.606 75.2936 376.438 75.865 375.399C76.4537 374.36 77.259 373.546 78.2806 372.957C79.3023 372.351 80.4538 372.048 81.7352 372.048C83.034 372.048 84.1941 372.351 85.2158 372.957C86.2375 373.546 87.034 374.36 87.6055 375.399C88.1769 376.438 88.4626 377.606 88.4626 378.905C88.4626 380.204 88.1769 381.373 87.6055 382.412C87.034 383.451 86.2375 384.273 85.2158 384.879C84.1941 385.468 83.034 385.762 81.7352 385.762ZM81.7352 383.139C82.4279 383.139 83.0686 382.966 83.6573 382.619C84.2461 382.273 84.7223 381.78 85.0859 381.139C85.4496 380.498 85.6314 379.754 85.6314 378.905C85.6314 378.039 85.4496 377.286 85.0859 376.645C84.7223 376.005 84.2461 375.52 83.6573 375.191C83.0686 374.844 82.4279 374.671 81.7352 374.671C81.0599 374.671 80.4192 374.844 79.8131 375.191C79.2244 375.52 78.7482 376.005 78.3845 376.645C78.0382 377.286 77.865 378.039 77.865 378.905C77.865 379.754 78.0469 380.498 78.4105 381.139C78.7741 381.78 79.2503 382.273 79.8391 382.619C80.4278 382.966 81.0599 383.139 81.7352 383.139ZM103.354 385.555C102.782 385.555 102.245 385.468 101.743 385.295C101.258 385.104 100.851 384.845 100.522 384.516C99.7777 383.788 99.4054 382.775 99.4054 381.477V374.983H93.8469V385.347H90.9897V374.983H88.626V372.463H90.9897V371.061C90.9897 369.676 91.4139 368.576 92.2624 367.762C93.1282 366.948 94.2278 366.541 95.5612 366.541C96.1499 366.541 96.6954 366.619 97.1976 366.775V369.528C96.6781 369.321 96.1759 369.217 95.691 369.217C95.1542 369.217 94.7127 369.398 94.3663 369.762C94.02 370.126 93.8469 370.628 93.8469 371.269V372.463H99.4054V368.619H102.263V372.463H105.406V374.983H102.263V380.853C102.263 381.563 102.401 382.065 102.678 382.36C102.938 382.706 103.362 382.879 103.951 382.879C104.453 382.879 104.947 382.732 105.431 382.438V385.217C104.825 385.442 104.133 385.555 103.354 385.555ZM112.377 366.749H123.676V369.528H115.286V374.671H122.844V377.425H115.286V382.568H123.676V385.347H112.377V366.749ZM130.631 385.762C129.523 385.762 128.492 385.468 127.54 384.879C126.605 384.291 125.86 383.477 125.306 382.438C124.752 381.381 124.475 380.204 124.475 378.905C124.475 377.606 124.752 376.438 125.306 375.399C125.86 374.342 126.605 373.52 127.54 372.931C128.492 372.342 129.523 372.048 130.631 372.048C131.566 372.048 132.397 372.247 133.125 372.645C133.869 373.044 134.432 373.537 134.813 374.126H134.943L134.813 372.334V366.749H137.67V385.347H134.943V383.658H134.813C134.432 384.265 133.878 384.767 133.151 385.165C132.423 385.563 131.583 385.762 130.631 385.762ZM131.15 383.139C131.826 383.139 132.449 382.966 133.021 382.619C133.609 382.273 134.077 381.78 134.423 381.139C134.77 380.498 134.943 379.754 134.943 378.905C134.943 378.057 134.77 377.312 134.423 376.671C134.077 376.031 133.609 375.537 133.021 375.191C132.449 374.844 131.826 374.671 131.15 374.671C130.475 374.671 129.843 374.844 129.254 375.191C128.683 375.537 128.215 376.039 127.852 376.697C127.505 377.338 127.332 378.074 127.332 378.905C127.332 379.736 127.505 380.481 127.852 381.139C128.215 381.78 128.683 382.273 129.254 382.619C129.843 382.966 130.475 383.139 131.15 383.139ZM145.531 391.373C143.92 391.373 142.587 390.992 141.531 390.23C140.492 389.485 139.79 388.611 139.427 387.607L142.128 386.49C142.388 387.2 142.821 387.762 143.427 388.178C144.033 388.594 144.734 388.801 145.531 388.801C146.726 388.801 147.661 388.438 148.336 387.71C149.029 386.983 149.375 385.979 149.375 384.697V383.581H149.219C148.804 384.187 148.232 384.671 147.505 385.035C146.795 385.399 145.981 385.581 145.063 385.581C143.99 385.581 142.985 385.295 142.05 384.723C141.132 384.152 140.388 383.355 139.816 382.334C139.262 381.295 138.985 380.126 138.985 378.827C138.985 377.528 139.262 376.368 139.816 375.347C140.388 374.308 141.132 373.502 142.05 372.931C142.985 372.342 143.99 372.048 145.063 372.048C145.981 372.048 146.795 372.23 147.505 372.593C148.232 372.957 148.804 373.442 149.219 374.048H149.375V372.463H152.102V384.62C152.102 386.039 151.817 387.26 151.245 388.282C150.691 389.304 149.912 390.074 148.908 390.594C147.92 391.113 146.795 391.373 145.531 391.373ZM145.609 382.983C146.284 382.983 146.907 382.819 147.479 382.49C148.05 382.161 148.509 381.684 148.856 381.061C149.202 380.42 149.375 379.676 149.375 378.827C149.375 377.961 149.202 377.217 148.856 376.593C148.509 375.953 148.05 375.468 147.479 375.139C146.907 374.81 146.284 374.645 145.609 374.645C144.933 374.645 144.31 374.818 143.739 375.165C143.167 375.494 142.708 375.979 142.362 376.619C142.016 377.243 141.842 377.979 141.842 378.827C141.842 379.676 142.016 380.42 142.362 381.061C142.708 381.684 143.167 382.161 143.739 382.49C144.31 382.819 144.933 382.983 145.609 382.983ZM160.069 385.762C158.805 385.762 157.662 385.468 156.64 384.879C155.636 384.291 154.848 383.477 154.277 382.438C153.705 381.381 153.419 380.204 153.419 378.905C153.419 377.658 153.688 376.515 154.225 375.476C154.779 374.42 155.549 373.589 156.536 372.983C157.523 372.36 158.649 372.048 159.913 372.048C161.212 372.048 162.337 372.334 163.29 372.905C164.259 373.476 164.995 374.273 165.497 375.295C166 376.299 166.251 377.459 166.251 378.775C166.251 378.931 166.242 379.087 166.225 379.243C166.207 379.399 166.199 379.485 166.199 379.503H156.277C156.363 380.68 156.787 381.589 157.549 382.23C158.311 382.871 159.177 383.191 160.147 383.191C161.636 383.191 162.779 382.498 163.575 381.113L166.017 382.282C165.446 383.338 164.649 384.187 163.627 384.827C162.623 385.451 161.437 385.762 160.069 385.762ZM163.342 377.321C163.307 376.905 163.168 376.481 162.926 376.048C162.684 375.615 162.303 375.251 161.783 374.957C161.281 374.645 160.649 374.489 159.887 374.489C159.038 374.489 158.303 374.749 157.679 375.269C157.073 375.788 156.657 376.472 156.432 377.321H163.342Z" fill="#00807E"/>
<path d="M247.543 262.111C245.39 260.616 242.433 261.149 240.937 263.302C239.442 265.455 239.975 268.413 242.128 269.908C244.281 271.404 247.239 270.87 248.734 268.717C250.229 266.564 249.696 263.607 247.543 262.111ZM178.888 359.861C178.975 360.345 179.438 360.666 179.922 360.579L187.804 359.158C188.288 359.071 188.609 358.608 188.522 358.124C188.435 357.641 187.972 357.319 187.488 357.406L180.482 358.669L179.219 351.663C179.131 351.179 178.669 350.857 178.185 350.945C177.701 351.032 177.38 351.495 177.467 351.978L178.888 359.861ZM244.105 265.502L179.033 359.195L180.495 360.211L245.567 266.517L244.105 265.502Z" fill="#959595"/>
<path d="M746.35 457.132H749.675L756.662 475.73H753.467L751.778 470.976H744.272L742.584 475.73H739.363L746.35 457.132ZM750.791 468.275L748.817 462.742L748.09 460.587H747.934L747.207 462.742L745.233 468.275H750.791ZM756.93 473.34L763.969 465.34H757.138V462.846H767.476V465.236L760.437 473.236H767.606V475.73H756.93V473.34ZM773.876 476.145C772.283 476.145 771.071 475.678 770.239 474.743C769.426 473.79 769.019 472.483 769.019 470.821V462.846H771.876V470.431C771.876 472.492 772.802 473.522 774.655 473.522C775.625 473.522 776.404 473.15 776.993 472.405C777.599 471.643 777.902 470.734 777.902 469.678V462.846H780.759V475.73H778.032V474.015H777.902C777.521 474.639 776.958 475.15 776.214 475.548C775.486 475.946 774.707 476.145 773.876 476.145ZM782.948 462.846H785.649V464.769H785.805C786.082 464.11 786.584 463.565 787.312 463.132C788.039 462.682 788.783 462.457 789.545 462.457C790.169 462.457 790.68 462.543 791.078 462.717V465.704C790.489 465.409 789.831 465.262 789.104 465.262C788.169 465.262 787.381 465.626 786.74 466.353C786.117 467.063 785.805 467.937 785.805 468.976V475.73H782.948V462.846ZM797.267 476.145C796.003 476.145 794.86 475.851 793.838 475.262C792.834 474.673 792.046 473.86 791.475 472.821C790.903 471.764 790.618 470.587 790.618 469.288C790.618 468.041 790.886 466.898 791.423 465.859C791.977 464.803 792.748 463.972 793.735 463.366C794.722 462.742 795.847 462.431 797.111 462.431C798.41 462.431 799.536 462.717 800.488 463.288C801.458 463.859 802.194 464.656 802.696 465.678C803.198 466.682 803.449 467.842 803.449 469.158C803.449 469.314 803.44 469.47 803.423 469.626C803.406 469.782 803.397 469.868 803.397 469.885H793.475C793.561 471.063 793.986 471.972 794.748 472.613C795.51 473.254 796.375 473.574 797.345 473.574C798.834 473.574 799.977 472.881 800.774 471.496L803.215 472.665C802.644 473.721 801.847 474.57 800.826 475.21C799.821 475.834 798.635 476.145 797.267 476.145ZM800.54 467.704C800.505 467.288 800.367 466.864 800.124 466.431C799.882 465.998 799.501 465.634 798.981 465.34C798.479 465.028 797.847 464.872 797.085 464.872C796.237 464.872 795.501 465.132 794.877 465.652C794.271 466.171 793.856 466.855 793.631 467.704H800.54Z" fill="#00807E"/>
<g filter="url(#filter3_d_8_35)">
<path d="M597.148 468.484C597.186 471.105 599.342 473.199 601.963 473.161C604.584 473.123 606.678 470.967 606.64 468.346C606.602 465.725 604.447 463.631 601.825 463.669C599.204 463.707 597.11 465.863 597.148 468.484ZM716.593 467.383C716.936 467.03 716.927 466.467 716.575 466.124L710.83 460.543C710.477 460.201 709.914 460.209 709.571 460.561C709.229 460.914 709.237 461.477 709.589 461.82L714.696 466.781L709.735 471.888C709.393 472.24 709.401 472.804 709.754 473.146C710.106 473.489 710.67 473.48 711.012 473.128L716.593 467.383ZM601.907 469.305L715.968 467.652L715.942 465.873L601.881 467.525L601.907 469.305Z" fill="#959595"/>
</g>
<defs>
<filter id="filter0_d_8_35" x="196.728" y="0.700001" width="550.608" height="550.619" filterUnits="userSpaceOnUse" color-interpolation-filters="sRGB">
<feFlood flood-opacity="0" result="BackgroundImageFix"/>
<feColorMatrix in="SourceAlpha" type="matrix" values="0 0 0 0 0 0 0 0 0 0 0 0 0 0 0 0 0 0 127 0" result="hardAlpha"/>
<feOffset dx="-13" dy="10"/>
<feGaussianBlur stdDeviation="17.65"/>
<feComposite in2="hardAlpha" operator="out"/>
<feColorMatrix type="matrix" values="0 0 0 0 0 0 0 0 0 0 0 0 0 0 0 0 0 0 0.25 0"/>
<feBlend mode="normal" in2="BackgroundImageFix" result="effect1_dropShadow_8_35"/>
<feBlend mode="normal" in="SourceGraphic" in2="effect1_dropShadow_8_35" result="shape"/>
</filter>
<filter id="filter1_d_8_35" x="267.023" y="0.699879" width="480.312" height="310.61" filterUnits="userSpaceOnUse" color-interpolation-filters="sRGB">
<feFlood flood-opacity="0" result="BackgroundImageFix"/>
<feColorMatrix in="SourceAlpha" type="matrix" values="0 0 0 0 0 0 0 0 0 0 0 0 0 0 0 0 0 0 127 0" result="hardAlpha"/>
<feOffset dx="-13" dy="10"/>
<feGaussianBlur stdDeviation="17.65"/>
<feComposite in2="hardAlpha" operator="out"/>
<feColorMatrix type="matrix" values="0 0 0 0 0 0 0 0 0 0 0 0 0 0 0 0 0 0 0.25 0"/>
<feBlend mode="normal" in2="BackgroundImageFix" result="effect1_dropShadow_8_35"/>
<feBlend mode="normal" in="SourceGraphic" in2="effect1_dropShadow_8_35" result="shape"/>
</filter>
<filter id="filter2_d_8_35" x="196.728" y="70.9972" width="235.481" height="441.259" filterUnits="userSpaceOnUse" color-interpolation-filters="sRGB">
<feFlood flood-opacity="0" result="BackgroundImageFix"/>
<feColorMatrix in="SourceAlpha" type="matrix" values="0 0 0 0 0 0 0 0 0 0 0 0 0 0 0 0 0 0 127 0" result="hardAlpha"/>
<feOffset dx="-13" dy="10"/>
<feGaussianBlur stdDeviation="17.65"/>
<feComposite in2="hardAlpha" operator="out"/>
<feColorMatrix type="matrix" values="0 0 0 0 0 0 0 0 0 0 0 0 0 0 0 0 0 0 0.25 0"/>
<feBlend mode="normal" in2="BackgroundImageFix" result="effect1_dropShadow_8_35"/>
<feBlend mode="normal" in="SourceGraphic" in2="effect1_dropShadow_8_35" result="shape"/>
</filter>
<filter id="filter3_d_8_35" x="548.848" y="434.992" width="190.297" height="83.7062" filterUnits="userSpaceOnUse" color-interpolation-filters="sRGB">
<feFlood flood-opacity="0" result="BackgroundImageFix"/>
<feColorMatrix in="SourceAlpha" type="matrix" values="0 0 0 0 0 0 0 0 0 0 0 0 0 0 0 0 0 0 127 0" result="hardAlpha"/>
<feOffset dx="-13" dy="10"/>
<feGaussianBlur stdDeviation="17.65"/>
<feComposite in2="hardAlpha" operator="out"/>
<feColorMatrix type="matrix" values="0 0 0 0 0 0 0 0 0 0 0 0 0 0 0 0 0 0 0.25 0"/>
<feBlend mode="normal" in2="BackgroundImageFix" result="effect1_dropShadow_8_35"/>
<feBlend mode="normal" in="SourceGraphic" in2="effect1_dropShadow_8_35" result="shape"/>
</filter>
<linearGradient id="paint0_linear_8_35" x1="485.032" y1="26" x2="485.032" y2="506.019" gradientUnits="userSpaceOnUse">
<stop stop-color="#00807E"/>
<stop offset="1" stop-color="#253F62"/>
</linearGradient>
</defs>
</svg>
