<svg width="45" height="55" viewBox="0 0 45 55" fill="none" xmlns="http://www.w3.org/2000/svg">
<path d="M23.4975 15.8593C24.6091 14.5163 26.1166 13.7622 27.6882 13.7629C29.2598 13.7636 30.7668 14.5189 31.8777 15.8628C32.9886 17.2067 33.6124 19.0291 33.6118 20.9289C33.6113 22.8288 32.9864 24.6506 31.8747 25.9935C31.3243 26.6585 30.6709 27.1859 29.9518 27.5456C29.2328 27.9053 28.4622 28.0902 27.684 28.0899C26.1124 28.0892 24.6054 27.3338 23.4945 25.99C22.3836 24.6461 21.7598 22.8237 21.7604 20.9239C21.7609 19.024 22.3858 17.2022 23.4975 15.8593ZM29.7811 18.3973C29.5064 18.0647 29.1802 17.8008 28.8211 17.6206C28.462 17.4404 28.077 17.3475 27.6882 17.3472C27.2994 17.3469 26.9143 17.4391 26.555 17.6187C26.1957 17.7982 25.8691 18.0616 25.594 18.3937C25.0384 19.0645 24.7259 19.9746 24.7253 20.9239C24.7248 21.8731 25.0362 22.7838 25.591 23.4555C26.1459 24.1272 26.8988 24.5049 27.684 24.5056C28.4692 24.5063 29.2225 24.1298 29.7782 23.4591C30.3338 22.7883 30.6463 21.8782 30.6469 20.9289C30.6474 19.9797 30.336 19.069 29.7811 18.3973ZM26.4451 44.8174C25.6159 45.2924 24.6855 45.4457 23.7814 45.2563C22.8773 45.067 22.0437 44.5443 21.395 43.7599L19.5861 41.5768L17.4154 45.9502C17.2996 46.1838 17.1414 46.3824 16.9526 46.531C16.7639 46.6796 16.5496 46.7742 16.3261 46.8077C16.1026 46.8412 15.8757 46.8127 15.6626 46.7244C15.4495 46.6361 15.2559 46.4903 15.0965 46.298L6.70438 36.1493C6.54518 35.9568 6.42435 35.723 6.35106 35.4656C6.27777 35.2082 6.25393 34.934 6.28137 34.6638C6.30881 34.3936 6.3868 34.1345 6.50942 33.9062C6.63204 33.6778 6.79607 33.4863 6.98906 33.346L10.6069 30.7219L8.79796 28.5352C8.14908 27.7509 7.71671 26.7433 7.5601 25.6503C7.40349 24.5574 7.5303 23.4326 7.92316 22.4302L4.60191 18.4152C4.32395 18.0791 4.1678 17.6233 4.1678 17.148C4.1678 16.6727 4.32395 16.2169 4.60191 15.8808L7.74524 12.0809C9.04542 10.5087 10.7163 9.46165 12.5285 9.08358C14.3407 8.70551 16.2053 9.01495 17.8662 9.96939L20.6477 6.61042C23.0569 3.69723 26.0799 1.63698 29.3889 0.653062C32.6979 -0.330859 36.1665 -0.200899 39.4187 1.02885C41.6724 1.88204 43.4428 4.01859 44.1485 6.74664C45.1661 10.6781 45.2738 14.8714 44.4599 18.8716C43.6459 22.8718 41.9415 26.5263 39.5314 29.4386L36.7528 32.8011C37.542 34.8093 37.7975 37.0635 37.4842 39.2543C37.1709 41.445 36.3042 43.4648 35.0032 45.0361L31.8629 48.836C31.5848 49.172 31.2077 49.3608 30.8146 49.3608C30.4214 49.3608 30.0444 49.172 29.7663 48.836L26.4451 44.8174ZM38.5321 4.45235C35.7968 3.41791 32.8796 3.30834 30.0965 4.13554C27.3135 4.96273 24.7708 6.69512 22.7442 9.14489L20.3245 12.0665L20.3363 12.0809L18.2398 14.6153L18.2279 14.601L11.9354 22.208L11.9472 22.2223L10.7522 23.667C10.5407 24.0121 10.4387 24.4375 10.4648 24.8658C10.491 25.2941 10.6434 25.6969 10.8945 26.0007L23.4915 41.2254C23.7434 41.5294 24.0773 41.7136 24.4323 41.7445C24.7873 41.7755 25.1396 41.651 25.425 41.3939L26.6171 39.9564L26.626 39.9708L32.9185 32.3638L32.9096 32.3494L35.0062 29.815L35.0151 29.8293L37.4349 26.9041C39.4624 24.4542 40.8963 21.38 41.5811 18.0149C42.2659 14.6498 42.1754 11.1223 41.3195 7.81492C41.114 7.02399 40.7531 6.305 40.2677 5.71942C39.7823 5.13384 39.1867 4.69909 38.5321 4.45235ZM28.7255 42.5052L30.8131 45.0325L32.9096 42.4981C33.6458 41.6094 34.1758 40.5025 34.4465 39.2881C34.7171 38.0738 34.7189 36.7948 34.4517 35.5794L28.7255 42.5052ZM15.565 12.7512C14.5596 12.4282 13.5016 12.4303 12.4971 12.7575C11.4926 13.0847 10.5768 13.7254 9.84178 14.6153L7.7482 17.1498L9.83881 19.6735L15.565 12.7512ZM17.4243 38.9634L12.7686 33.3353L10.1413 35.2352L15.8497 42.1396L17.4243 38.9634ZM8.81278 46.2765C8.95976 46.1127 9.07782 45.9147 9.15988 45.6944C9.24194 45.474 9.28631 45.2359 9.29031 44.9943C9.2943 44.7528 9.25786 44.5127 9.18315 44.2886C9.10844 44.0645 8.99702 43.8609 8.85559 43.6902C8.71415 43.5194 8.54562 43.385 8.36012 43.295C8.17462 43.205 7.97598 43.1613 7.77614 43.1665C7.57631 43.1717 7.3794 43.2256 7.19726 43.3251C7.01512 43.4247 6.8515 43.5677 6.71624 43.7456L1.47341 50.0835C1.3318 50.2489 1.21884 50.4467 1.14114 50.6653C1.06343 50.884 1.02253 51.1192 1.02082 51.3572C1.01911 51.5952 1.05662 51.8312 1.13117 52.0515C1.20572 52.2718 1.31582 52.4719 1.45503 52.6402C1.59425 52.8085 1.7598 52.9416 1.94201 53.0317C2.12423 53.1219 2.31947 53.1672 2.51635 53.1651C2.71322 53.1631 2.90778 53.1136 3.08867 53.0197C3.26957 52.9258 3.43318 52.7892 3.56995 52.618L8.81278 46.2765ZM4.61674 38.6731C4.8947 39.0092 5.05085 39.465 5.05085 39.9403C5.05085 40.4156 4.8947 40.8714 4.61674 41.2075L2.5113 43.7492C2.23129 44.0752 1.85653 44.2553 1.46776 44.2505C1.07899 44.2458 0.707317 44.0567 0.432791 43.7238C0.158265 43.391 0.00285622 42.9412 3.89781e-05 42.4712C-0.00277826 42.0012 0.147221 41.5487 0.417729 41.2111L2.5202 38.6731C2.79825 38.337 3.17531 38.1483 3.56847 38.1483C3.96163 38.1483 4.33869 38.337 4.61674 38.6731ZM13.0088 51.3526C13.2789 51.0145 13.4284 50.5617 13.425 50.0918C13.4216 49.6218 13.2657 49.1723 12.9908 48.8399C12.7159 48.5076 12.344 48.3191 11.9552 48.315C11.5665 48.3109 11.1919 48.4916 10.9123 48.8181L8.80982 51.3597C8.66821 51.5251 8.55525 51.7229 8.47754 51.9415C8.39984 52.1602 8.35893 52.3954 8.35722 52.6334C8.35551 52.8714 8.39303 53.1074 8.46758 53.3277C8.54213 53.548 8.65223 53.7481 8.79144 53.9164C8.93066 54.0847 9.0962 54.2178 9.27842 54.3079C9.46064 54.3981 9.65588 54.4434 9.85275 54.4413C10.0496 54.4393 10.2442 54.3898 10.4251 54.2959C10.606 54.2019 10.7696 54.0654 10.9064 53.8942L13.0088 51.3526Z" fill="white"/>
</svg>
