<svg width="1427" height="1043" viewBox="0 0 1427 1043" fill="none" xmlns="http://www.w3.org/2000/svg">
<path d="M1 1042.5L114.609 746.959C131.343 703.427 178.126 679.432 223.244 691.242V691.242C302.834 712.074 367.372 625.517 324.693 555.182L299.339 513.401C269.219 463.764 282.299 399.315 329.387 365.348L583.671 181.918C687.417 107.079 829.128 113.92 925.183 198.404L976.403 243.453C1109.47 360.493 1319.3 292.582 1358.56 119.767V119.767C1368.32 76.7995 1390.03 37.4676 1421.19 6.31071L1426.5 1" stroke="black" stroke-dasharray="10 10"/>
<g clip-path="url(#clip0_5_15)">
<path d="M100.892 775.828L101.006 775.976C101.042 776.024 101.093 776.087 101.142 776.155L101.314 776.394C101.381 776.485 101.441 776.58 101.516 776.687C101.588 776.794 101.671 776.913 101.744 777.032L101.99 777.423C102.074 777.56 102.152 777.7 102.24 777.85C102.621 778.501 102.955 779.178 103.241 779.876C103.396 780.247 103.528 780.623 103.654 781.013C103.769 781.397 103.878 781.794 103.957 782.19C104.036 782.583 104.092 782.981 104.124 783.381C104.153 783.774 104.155 784.169 104.129 784.563C104.076 785.343 103.901 786.102 103.593 786.819C103.442 787.179 103.242 787.52 103.048 787.869C102.848 788.216 102.642 788.564 102.421 788.908C101.975 789.61 101.493 790.288 100.977 790.94C100.457 791.601 99.8916 792.238 99.2983 792.844C99.0004 793.146 98.6952 793.441 98.3828 793.728C98.0709 794.012 97.752 794.288 97.4265 794.556C96.7764 795.089 96.1084 795.582 95.433 796.026C94.7813 796.457 94.1088 796.855 93.4179 797.22C92.0975 797.92 90.8431 798.42 89.8925 798.731L89.5517 798.84L89.2441 798.931L88.7422 799.067L88.4173 799.144L88.3016 799.168L88.2582 799.058L88.144 798.744L87.9817 798.25L87.8894 797.943L87.7929 797.599C87.5308 796.633 87.26 795.31 87.12 793.822C87.0452 793.045 87.0087 792.264 87.0107 791.483C87.0116 790.674 87.0567 789.845 87.1443 789.01C87.1899 788.59 87.2456 788.172 87.3115 787.756C87.3801 787.338 87.4578 786.92 87.5473 786.505C87.7286 785.676 87.9506 784.854 88.2169 784.056C88.4778 783.267 88.7798 782.492 89.1219 781.734C89.2881 781.361 89.466 780.997 89.646 780.64C89.831 780.285 90.0061 779.931 90.2244 779.607C90.6543 778.956 91.1924 778.393 91.8155 777.92C92.13 777.682 92.4609 777.467 92.8057 777.276C93.1576 777.082 93.5207 776.91 93.893 776.761C94.2673 776.609 94.6589 776.482 95.0434 776.368C95.4381 776.259 95.8246 776.162 96.2196 776.088C96.9598 775.944 97.7093 775.852 98.4624 775.812C98.6368 775.803 98.796 775.792 98.9565 775.787L99.4187 775.778C99.5586 775.774 99.7035 775.778 99.8322 775.779C99.9632 775.782 100.075 775.781 100.188 775.787L100.482 775.8C100.566 775.803 100.647 775.811 100.707 775.815C100.829 775.823 100.892 775.828 100.892 775.828Z" fill="#FFB636"/>
<path d="M85.0236 767.267L80.1737 776.258C79.8385 776.879 80.4219 777.595 81.0983 777.393L86.9144 775.653C87.1157 775.593 87.3328 775.615 87.5178 775.715L92.4239 778.362L94.8366 764.089L85.494 766.884C85.3942 766.914 85.3014 766.963 85.2207 767.029C85.1399 767.095 85.073 767.176 85.0236 767.267ZM104.336 783.411L109.242 786.058C109.427 786.158 109.565 786.327 109.625 786.528L111.365 792.344C111.568 793.021 112.487 793.115 112.822 792.493L117.672 783.503C117.772 783.318 117.794 783.101 117.734 782.9L114.939 773.557L104.336 783.411Z" fill="#FF473E"/>
<path d="M121.265 739.387L121.29 739.446C121.307 739.484 121.334 739.543 121.363 739.617C121.421 739.766 121.52 739.993 121.618 740.272C121.836 740.843 122.111 741.656 122.386 742.65C122.662 743.645 122.938 744.82 123.162 746.119C123.223 746.447 123.269 746.776 123.32 747.116C123.376 747.459 123.41 747.8 123.455 748.154C123.541 748.861 123.602 749.589 123.644 750.336C123.731 751.889 123.717 753.445 123.603 754.996C123.484 756.593 123.255 758.222 122.901 759.843C122.545 761.463 122.073 763.082 121.478 764.663C120.885 766.246 120.169 767.794 119.352 769.286C118.534 770.778 117.616 772.216 116.606 773.574C116.353 773.913 116.097 774.249 115.831 774.577C115.57 774.907 115.298 775.23 115.027 775.55C114.48 776.188 113.911 776.802 113.327 777.393C112.177 778.556 110.95 779.64 109.653 780.636C108.42 781.582 107.13 782.45 105.788 783.233C105.142 783.61 104.505 783.961 103.869 784.278L103.401 784.515C103.246 784.592 103.087 784.665 102.933 784.739L102.476 784.955L102.02 785.157C100.82 785.688 99.6957 786.109 98.7223 786.429C97.7502 786.751 96.9262 786.971 96.3385 787.107C96.0546 787.18 95.8126 787.223 95.6592 787.258C95.5822 787.275 95.5186 787.285 95.4779 787.292L95.4157 787.304C94.9441 787.389 94.4896 787.131 94.3099 786.707L94.2852 786.649C94.2694 786.611 94.2428 786.552 94.2147 786.478C94.1592 786.331 94.0623 786.105 93.9677 785.828C93.7587 785.262 93.4902 784.453 93.2248 783.464C92.9582 782.474 92.6922 781.304 92.4769 780.009L92.3953 779.517L92.3252 779.016C92.3022 778.847 92.2757 778.674 92.2547 778.502L92.1959 777.981C92.1115 777.275 92.0556 776.55 92.0151 775.803C91.9335 774.252 91.9495 772.697 92.0631 771.147C92.1839 769.516 92.4155 767.895 92.7562 766.296C92.9297 765.483 93.1303 764.67 93.3631 763.863C93.4817 763.461 93.602 763.057 93.7346 762.657C93.8623 762.254 94.0026 761.856 94.1474 761.458C94.7275 759.868 95.4249 758.311 96.223 756.809C97.0209 755.306 97.9213 753.858 98.9181 752.493C99.9132 751.127 101.006 749.844 102.165 748.657C103.326 747.471 104.561 746.385 105.831 745.409C107.064 744.462 108.357 743.595 109.702 742.815C110.35 742.44 110.992 742.091 111.629 741.775C111.95 741.617 112.254 741.459 112.571 741.317C112.884 741.173 113.184 741.031 113.491 740.902C114.7 740.376 115.834 739.961 116.817 739.646C117.799 739.33 118.629 739.113 119.225 738.981C119.513 738.91 119.757 738.868 119.913 738.835C119.99 738.819 120.055 738.809 120.096 738.801L120.159 738.791C120.631 738.709 121.082 738.967 121.265 739.387Z" fill="#ADBBBC"/>
<path d="M103.45 771.086L103.551 771.22C103.61 771.304 103.692 771.426 103.766 771.567C103.927 771.858 104.063 772.229 104.038 772.595C104.026 772.778 103.955 772.95 103.899 773.148L103.705 773.784L103.239 775.307C103.052 775.905 102.861 776.503 102.667 777.099C102.451 777.762 102.229 778.424 102.001 779.083L101.636 780.124L101.25 781.184C100.985 781.895 100.712 782.615 100.43 783.329C100.151 784.041 99.865 784.749 99.572 785.454C99.2838 786.152 99.0022 786.841 98.7201 787.501L98.308 788.476C98.1696 788.793 98.0533 789.113 97.8927 789.399C97.7338 789.686 97.5265 789.936 97.2648 790.145C97.0063 790.357 96.7073 790.534 96.4175 790.703C95.8703 791.019 95.308 791.308 94.7328 791.569C94.467 791.69 94.2109 791.799 93.9673 791.896C93.7254 791.994 93.4873 792.076 93.2808 792.154C93.0721 792.231 92.8687 792.291 92.7008 792.347C92.5296 792.402 92.3728 792.443 92.2514 792.479C92.1266 792.514 92.0257 792.537 91.9602 792.554L91.8564 792.578L91.8191 792.478C91.7976 792.414 91.7617 792.317 91.7219 792.194C91.6854 792.072 91.6334 791.919 91.5852 791.746C91.5404 791.574 91.4786 791.371 91.4284 791.155C91.3803 790.939 91.3178 790.695 91.267 790.439C91.2145 790.182 91.165 789.908 91.12 789.62C91.0224 788.996 90.9552 788.367 90.9186 787.736C90.9006 787.402 90.8846 787.054 90.9191 786.722C90.9503 786.388 91.0459 786.078 91.1984 785.787C91.3492 785.496 91.5527 785.223 91.7413 784.934L92.3299 784.054C92.7271 783.455 93.1474 782.842 93.5725 782.218C93.9965 781.593 94.4332 780.962 94.8774 780.334C95.3192 779.705 95.771 779.082 96.2199 778.471L96.8938 777.566L97.5629 776.689C97.9893 776.136 98.4203 775.588 98.8557 775.042C99.2718 774.522 99.67 774.032 100.039 773.581L101.056 772.355L101.481 771.844C101.616 771.688 101.72 771.534 101.867 771.424C102.159 771.202 102.544 771.111 102.875 771.087C103.034 771.071 103.181 771.072 103.284 771.075L103.45 771.086Z" fill="#FF473E"/>
<path d="M112.956 761.501C113.81 764.356 112.188 767.363 109.333 768.217C106.478 769.071 103.471 767.449 102.617 764.594C101.763 761.739 103.385 758.732 106.24 757.878C109.095 757.024 112.102 758.646 112.956 761.501ZM112.246 749.665C110.429 750.209 109.396 752.123 109.94 753.94C110.483 755.757 112.397 756.79 114.215 756.246C116.032 755.703 117.065 753.789 116.521 751.971C115.977 750.154 114.063 749.121 112.246 749.665Z" fill="#2B3B47"/>
</g>
<g clip-path="url(#clip1_5_15)">
<path d="M1339.89 162.828L1340.01 162.976C1340.04 163.024 1340.09 163.087 1340.14 163.155L1340.31 163.394C1340.38 163.485 1340.44 163.58 1340.52 163.688C1340.59 163.794 1340.67 163.913 1340.74 164.032L1340.99 164.423C1341.07 164.56 1341.15 164.7 1341.24 164.85C1341.62 165.501 1341.96 166.178 1342.24 166.876C1342.4 167.247 1342.53 167.623 1342.65 168.013C1342.77 168.397 1342.88 168.794 1342.96 169.19C1343.04 169.583 1343.09 169.981 1343.12 170.381C1343.15 170.775 1343.15 171.169 1343.13 171.563C1343.08 172.343 1342.9 173.102 1342.59 173.819C1342.44 174.179 1342.24 174.52 1342.05 174.869C1341.85 175.216 1341.64 175.564 1341.42 175.908C1340.98 176.61 1340.49 177.288 1339.98 177.94C1339.46 178.601 1338.89 179.238 1338.3 179.844C1338 180.146 1337.7 180.441 1337.38 180.728C1337.07 181.012 1336.75 181.288 1336.43 181.557C1335.78 182.089 1335.11 182.582 1334.43 183.026C1333.78 183.457 1333.11 183.855 1332.42 184.22C1331.1 184.92 1329.84 185.42 1328.89 185.731L1328.55 185.84L1328.24 185.931L1327.74 186.067L1327.42 186.144L1327.3 186.168L1327.26 186.058L1327.14 185.744L1326.98 185.25L1326.89 184.943L1326.79 184.599C1326.53 183.633 1326.26 182.31 1326.12 180.822C1326.05 180.045 1326.01 179.264 1326.01 178.483C1326.01 177.674 1326.06 176.845 1326.14 176.01C1326.19 175.59 1326.25 175.172 1326.31 174.756C1326.38 174.338 1326.46 173.92 1326.55 173.505C1326.73 172.676 1326.95 171.854 1327.22 171.056C1327.48 170.267 1327.78 169.492 1328.12 168.734C1328.29 168.361 1328.47 167.997 1328.65 167.64C1328.83 167.285 1329.01 166.931 1329.22 166.607C1329.65 165.956 1330.19 165.393 1330.82 164.92C1331.13 164.682 1331.46 164.467 1331.81 164.276C1332.16 164.082 1332.52 163.91 1332.89 163.761C1333.27 163.609 1333.66 163.482 1334.04 163.368C1334.44 163.259 1334.82 163.162 1335.22 163.088C1335.96 162.944 1336.71 162.852 1337.46 162.812C1337.64 162.803 1337.8 162.792 1337.96 162.787L1338.42 162.778C1338.56 162.774 1338.7 162.778 1338.83 162.779C1338.96 162.782 1339.07 162.781 1339.19 162.787L1339.48 162.8C1339.57 162.803 1339.65 162.811 1339.71 162.815C1339.83 162.824 1339.89 162.828 1339.89 162.828Z" fill="#FFB636"/>
<path d="M1324.02 154.267L1319.17 163.258C1318.84 163.879 1319.42 164.595 1320.1 164.393L1325.91 162.653C1326.12 162.593 1326.33 162.615 1326.52 162.715L1331.42 165.362L1333.84 151.089L1324.49 153.884C1324.39 153.914 1324.3 153.963 1324.22 154.029C1324.14 154.095 1324.07 154.176 1324.02 154.267ZM1343.34 170.411L1348.24 173.058C1348.43 173.158 1348.57 173.327 1348.63 173.528L1350.37 179.344C1350.57 180.021 1351.49 180.115 1351.82 179.493L1356.67 170.503C1356.77 170.318 1356.79 170.101 1356.73 169.9L1353.94 160.557L1343.34 170.411Z" fill="#FF473E"/>
<path d="M1360.26 126.387L1360.29 126.446C1360.31 126.484 1360.33 126.543 1360.36 126.618C1360.42 126.766 1360.52 126.993 1360.62 127.272C1360.84 127.843 1361.11 128.656 1361.39 129.65C1361.66 130.645 1361.94 131.82 1362.16 133.119C1362.22 133.447 1362.27 133.776 1362.32 134.116C1362.38 134.459 1362.41 134.8 1362.46 135.154C1362.54 135.861 1362.6 136.589 1362.64 137.336C1362.73 138.889 1362.72 140.445 1362.6 141.996C1362.48 143.593 1362.26 145.222 1361.9 146.843C1361.55 148.464 1361.07 150.082 1360.48 151.664C1359.88 153.246 1359.17 154.794 1358.35 156.286C1357.53 157.778 1356.62 159.216 1355.61 160.574C1355.35 160.913 1355.1 161.249 1354.83 161.577C1354.57 161.907 1354.3 162.23 1354.03 162.55C1353.48 163.188 1352.91 163.802 1352.33 164.393C1351.18 165.556 1349.95 166.64 1348.65 167.637C1347.42 168.582 1346.13 169.45 1344.79 170.234C1344.14 170.61 1343.51 170.961 1342.87 171.279L1342.4 171.515C1342.25 171.592 1342.09 171.665 1341.93 171.739L1341.48 171.955L1341.02 172.157C1339.82 172.688 1338.7 173.109 1337.72 173.429C1336.75 173.751 1335.93 173.971 1335.34 174.107C1335.05 174.18 1334.81 174.223 1334.66 174.258C1334.58 174.275 1334.52 174.285 1334.48 174.292L1334.42 174.304C1333.94 174.389 1333.49 174.131 1333.31 173.707L1333.29 173.649C1333.27 173.611 1333.24 173.552 1333.21 173.478C1333.16 173.331 1333.06 173.106 1332.97 172.828C1332.76 172.262 1332.49 171.453 1332.22 170.464C1331.96 169.474 1331.69 168.304 1331.48 167.009L1331.4 166.517L1331.33 166.016C1331.3 165.847 1331.28 165.674 1331.25 165.502L1331.2 164.981C1331.11 164.275 1331.06 163.55 1331.02 162.804C1330.93 161.252 1330.95 159.697 1331.06 158.147C1331.18 156.516 1331.42 154.895 1331.76 153.296C1331.93 152.483 1332.13 151.67 1332.36 150.863C1332.48 150.461 1332.6 150.057 1332.73 149.657C1332.86 149.254 1333 148.856 1333.15 148.458C1333.73 146.868 1334.43 145.311 1335.22 143.809C1336.02 142.306 1336.92 140.859 1337.92 139.493C1338.91 138.127 1340.01 136.844 1341.17 135.657C1342.33 134.471 1343.56 133.385 1344.83 132.409C1346.06 131.462 1347.36 130.595 1348.7 129.815C1349.35 129.44 1349.99 129.091 1350.63 128.775C1350.95 128.617 1351.25 128.459 1351.57 128.318C1351.88 128.173 1352.18 128.031 1352.49 127.902C1353.7 127.376 1354.83 126.961 1355.82 126.646C1356.8 126.33 1357.63 126.113 1358.23 125.982C1358.51 125.91 1358.76 125.868 1358.91 125.835C1358.99 125.819 1359.05 125.809 1359.1 125.801L1359.16 125.791C1359.63 125.709 1360.08 125.967 1360.26 126.387Z" fill="#ADBBBC"/>
<path d="M1342.45 158.086L1342.55 158.22C1342.61 158.304 1342.69 158.426 1342.77 158.567C1342.93 158.858 1343.06 159.229 1343.04 159.595C1343.03 159.778 1342.95 159.95 1342.9 160.148L1342.7 160.784L1342.24 162.307C1342.05 162.905 1341.86 163.503 1341.67 164.099C1341.45 164.762 1341.23 165.424 1341 166.083L1340.64 167.124L1340.25 168.184C1339.99 168.895 1339.71 169.615 1339.43 170.329C1339.15 171.041 1338.87 171.749 1338.57 172.454C1338.28 173.153 1338 173.841 1337.72 174.501L1337.31 175.476C1337.17 175.793 1337.05 176.113 1336.89 176.399C1336.73 176.686 1336.53 176.936 1336.26 177.146C1336.01 177.357 1335.71 177.534 1335.42 177.703C1334.87 178.019 1334.31 178.308 1333.73 178.569C1333.47 178.69 1333.21 178.799 1332.97 178.896C1332.73 178.994 1332.49 179.076 1332.28 179.154C1332.07 179.231 1331.87 179.291 1331.7 179.347C1331.53 179.402 1331.37 179.443 1331.25 179.479C1331.13 179.514 1331.03 179.537 1330.96 179.554L1330.86 179.578L1330.82 179.478C1330.8 179.414 1330.76 179.317 1330.72 179.194C1330.69 179.072 1330.63 178.919 1330.59 178.746C1330.54 178.574 1330.48 178.371 1330.43 178.155C1330.38 177.939 1330.32 177.695 1330.27 177.439C1330.21 177.182 1330.17 176.908 1330.12 176.62C1330.02 175.996 1329.96 175.367 1329.92 174.736C1329.9 174.402 1329.88 174.054 1329.92 173.722C1329.95 173.388 1330.05 173.078 1330.2 172.787C1330.35 172.496 1330.55 172.223 1330.74 171.934L1331.33 171.054C1331.73 170.455 1332.15 169.842 1332.57 169.218C1333 168.593 1333.43 167.962 1333.88 167.334C1334.32 166.705 1334.77 166.082 1335.22 165.471L1335.89 164.566L1336.56 163.689C1336.99 163.137 1337.42 162.588 1337.86 162.042C1338.27 161.522 1338.67 161.032 1339.04 160.581L1340.06 159.355L1340.48 158.844C1340.62 158.688 1340.72 158.534 1340.87 158.424C1341.16 158.202 1341.54 158.112 1341.88 158.087C1342.03 158.071 1342.18 158.072 1342.28 158.075L1342.45 158.086Z" fill="#FF473E"/>
<path d="M1351.96 148.501C1352.81 151.356 1351.19 154.363 1348.33 155.217C1345.48 156.071 1342.47 154.449 1341.62 151.594C1340.76 148.739 1342.38 145.732 1345.24 144.878C1348.09 144.024 1351.1 145.646 1351.96 148.501ZM1351.25 136.665C1349.43 137.209 1348.4 139.123 1348.94 140.94C1349.48 142.758 1351.4 143.79 1353.21 143.246C1355.03 142.703 1356.06 140.789 1355.52 138.971C1354.98 137.154 1353.06 136.121 1351.25 136.665Z" fill="#2B3B47"/>
</g>
<defs>
<clipPath id="clip0_5_15">
<rect width="51" height="51" fill="white" transform="translate(72.5 752.117) rotate(-16.6548)"/>
</clipPath>
<clipPath id="clip1_5_15">
<rect width="51" height="51" fill="white" transform="translate(1311.5 139.117) rotate(-16.6548)"/>
</clipPath>
</defs>
</svg>
