<svg width="46" height="56" viewBox="0 0 46 56" fill="none" xmlns="http://www.w3.org/2000/svg">
<path fill-rule="evenodd" clip-rule="evenodd" d="M15.6422 4.3578C13.4474 3.90536 12.1375 4.39969 11.449 5.23196C10.9338 5.85477 10.5781 6.87974 10.5873 8.4968C10.5965 10.125 10.98 12.1834 11.7886 14.5656C13.4058 19.3191 16.5778 24.955 20.9673 30.2614C25.3569 35.5678 30.019 39.3996 33.9511 41.3546C35.9194 42.3321 37.6244 42.7985 38.9713 42.8069C40.3112 42.8209 41.1568 42.388 41.672 41.7652C42.3581 40.9357 42.7694 39.3521 42.3928 36.6961C42.1017 34.6294 41.3578 32.1717 40.1749 29.4822C39.6372 29.8286 39.0189 29.9466 38.4191 29.8174C36.7534 29.4543 33.6207 27.7814 28.3186 21.3746C23.0166 14.965 21.635 11.1779 21.3347 9.16429C21.2272 8.4383 21.3249 7.68973 21.6119 7.03893C19.3871 5.609 17.3518 4.71249 15.6422 4.3578ZM24.2641 4.02545C21.4456 2.07046 18.6871 0.738275 16.2267 0.227185C13.5329 -0.325798 10.8368 0.0484432 9.00014 2.26875C7.63246 3.92212 7.10803 6.17315 7.12189 8.52472C7.13575 10.8651 7.67174 13.4736 8.5866 16.1604C10.414 21.5366 13.8841 27.6222 18.5185 33.2246C23.1505 38.8215 28.1823 43.0163 32.6342 45.2283C34.8521 46.3315 37.0099 46.9822 38.9482 46.9989C40.8934 47.0129 42.7555 46.3817 44.1232 44.7284C45.9599 42.508 46.2717 39.2488 45.8097 35.9923C45.3892 33.0152 44.2849 29.6833 42.6677 26.2733C44.2528 23.3323 44.9535 19.8221 44.6523 16.331C44.3511 12.8398 43.0665 9.57989 41.0136 7.09758L40.1287 6.02513C38.0752 3.54274 35.3781 1.98929 32.4897 1.62521C29.6012 1.26113 26.6971 2.10858 24.2641 4.02545ZM24.8255 8.81239C25.1212 9.98538 26.2833 12.9877 30.7698 18.4114C35.2541 23.8323 37.7399 25.2371 38.7102 25.5946C40.3693 23.4955 41.2829 20.6949 41.2557 17.7918C41.2285 14.8888 40.2626 12.1139 38.5647 10.0608L37.6775 8.98834C35.9792 6.93571 33.6837 5.76806 31.2823 5.73518C28.8809 5.7023 26.5619 6.80679 24.8255 8.81239ZM7.90045 22.3605C8.22493 22.7532 8.40719 23.2856 8.40719 23.8407C8.40719 24.3958 8.22493 24.9281 7.90045 25.3209L3.00037 31.2473C2.84174 31.4531 2.65045 31.6182 2.4379 31.7326C2.22536 31.8471 1.99592 31.9087 1.76327 31.9137C1.53062 31.9186 1.29952 31.8669 1.08377 31.7615C0.868021 31.6562 0.672031 31.4994 0.507497 31.3005C0.342962 31.1016 0.213253 30.8646 0.126107 30.6038C0.0389617 30.343 -0.0038352 30.0636 0.000269657 29.7824C0.00437451 29.5011 0.055297 29.2238 0.149999 28.9668C0.244702 28.7099 0.381244 28.4787 0.551481 28.2869L5.44925 22.3605C5.61017 22.1658 5.80123 22.0114 6.01152 21.9061C6.22181 21.8007 6.44722 21.7465 6.67485 21.7465C6.90249 21.7465 7.12789 21.8007 7.33819 21.9061C7.54848 22.0114 7.73954 22.1658 7.90045 22.3605ZM16.0696 36.1851C16.394 36.5778 16.5763 37.1102 16.5763 37.6653C16.5763 38.2203 16.394 38.7527 16.0696 39.1455L6.54663 50.6576C6.21817 51.0276 5.78373 51.229 5.33484 51.2194C4.88596 51.2098 4.45767 50.99 4.1402 50.6062C3.82274 50.2225 3.6409 49.7047 3.63298 49.1621C3.62506 48.6194 3.79168 48.0942 4.09775 47.6972L13.6184 36.1851C13.9433 35.7928 14.3836 35.5725 14.8428 35.5725C15.302 35.5725 15.7447 35.7928 16.0696 36.1851ZM27.5031 46.0578C27.6641 46.2523 27.7918 46.4832 27.879 46.7375C27.9661 46.9917 28.011 47.2642 28.011 47.5394C28.011 47.8145 27.9661 48.087 27.879 48.3412C27.7918 48.5955 27.6641 48.8264 27.5031 49.021L22.6007 54.9446C22.2722 55.3146 21.8378 55.516 21.3889 55.5064C20.94 55.4969 20.5117 55.277 20.1943 54.8933C19.8768 54.5095 19.695 53.9917 19.687 53.4491C19.6791 52.9064 19.8458 52.3812 20.1518 51.9842L25.0496 46.0578C25.2105 45.8627 25.4018 45.7079 25.6123 45.6023C25.8228 45.4967 26.0484 45.4424 26.2763 45.4424C26.5043 45.4424 26.7299 45.4967 26.9404 45.6023C27.1509 45.7079 27.3421 45.8627 27.5031 46.0578Z" fill="white"/>
</svg>
