<svg width="1255" height="6243" viewBox="0 0 1255 6243" fill="none" xmlns="http://www.w3.org/2000/svg">
<path d="M1 1L873.646 263.104C1026.19 308.922 1073.47 501.713 959.431 612.91L419.728 1139.15C333.619 1223.11 335.961 1362.24 424.846 1443.25L928.54 1902.35C1016.15 1982.21 1019.88 2118.87 936.747 2203.38L501.782 2645.56C410.284 2738.57 425.439 2891.76 533.39 2965.04L1002.5 3283.5" stroke="black" stroke-dasharray="30 30"/>
<g clip-path="url(#clip0_19_75)">
<path d="M458.49 2868.43L458.76 2868.44C458.847 2868.45 458.965 2868.45 459.086 2868.46L459.513 2868.5C459.677 2868.51 459.838 2868.53 460.027 2868.55C460.213 2868.57 460.422 2868.59 460.623 2868.62L461.287 2868.72C461.517 2868.76 461.744 2868.8 461.994 2868.84C463.072 2869.04 464.135 2869.3 465.174 2869.64C465.73 2869.81 466.269 2870.02 466.817 2870.24C467.35 2870.47 467.891 2870.72 468.402 2871C468.911 2871.28 469.402 2871.58 469.874 2871.92C470.335 2872.25 470.772 2872.61 471.181 2873C471.992 2873.78 472.663 2874.67 473.162 2875.66C473.417 2876.15 473.604 2876.68 473.805 2877.21C473.998 2877.75 474.187 2878.29 474.358 2878.85C474.711 2879.97 475.003 2881.11 475.233 2882.27C475.469 2883.44 475.637 2884.63 475.745 2885.83C475.797 2886.43 475.833 2887.03 475.854 2887.63C475.872 2888.23 475.875 2888.82 475.864 2889.42C475.836 2890.61 475.748 2891.78 475.599 2892.92C475.458 2894.02 475.262 2895.11 475.01 2896.19C474.534 2898.25 473.899 2900.06 473.344 2901.37L473.141 2901.84L472.951 2902.25L472.626 2902.92L472.404 2903.34L472.321 2903.48L472.159 2903.43L471.705 2903.26L471.007 2902.98L470.58 2902.8L470.109 2902.58C468.797 2901.98 467.082 2901.05 465.309 2899.83C464.381 2899.19 463.486 2898.51 462.627 2897.79C461.736 2897.04 460.864 2896.23 460.026 2895.36C459.606 2894.93 459.198 2894.48 458.801 2894.03C458.406 2893.57 458.018 2893.1 457.645 2892.62C456.902 2891.66 456.206 2890.66 455.578 2889.64C454.954 2888.63 454.385 2887.6 453.873 2886.53C453.618 2886.01 453.386 2885.48 453.162 2884.96C452.946 2884.43 452.721 2883.92 452.57 2883.38C452.259 2882.32 452.147 2881.22 452.215 2880.12C452.25 2879.56 452.325 2879.01 452.44 2878.46C452.56 2877.9 452.713 2877.35 452.9 2876.81C453.088 2876.27 453.317 2875.73 453.555 2875.22C453.808 2874.69 454.067 2874.19 454.359 2873.69C454.9 2872.76 455.506 2871.87 456.175 2871.03C456.33 2870.83 456.468 2870.65 456.614 2870.47L457.042 2869.97C457.169 2869.81 457.31 2869.66 457.434 2869.52C457.561 2869.39 457.665 2869.26 457.778 2869.15L458.071 2868.84C458.153 2868.76 458.239 2868.68 458.3 2868.62C458.425 2868.49 458.49 2868.43 458.49 2868.43Z" fill="#FFB636"/>
<path d="M434.046 2877.6L439.373 2891.1C439.742 2892.03 441.083 2892.07 441.5 2891.15L445.08 2883.3C445.204 2883.02 445.434 2882.81 445.719 2882.7L453.276 2879.87L439.82 2864.12L434.068 2876.74C434.007 2876.87 433.973 2877.02 433.97 2877.17C433.966 2877.31 433.992 2877.46 434.046 2877.6ZM470.107 2871.72L477.664 2868.88C477.949 2868.78 478.266 2868.78 478.545 2868.9L486.603 2872.4C487.54 2872.8 488.513 2871.9 488.144 2870.97L482.817 2857.47C482.707 2857.19 482.489 2856.96 482.21 2856.84L469.266 2851.23L470.107 2871.72Z" fill="#FF473E"/>
<path d="M437.57 2812.93L437.659 2812.96C437.717 2812.98 437.808 2813 437.917 2813.04C438.135 2813.11 438.479 2813.22 438.88 2813.37C439.715 2813.66 440.871 2814.11 442.228 2814.73C443.586 2815.35 445.143 2816.14 446.787 2817.1C447.206 2817.34 447.612 2817.59 448.036 2817.85C448.466 2818.1 448.875 2818.38 449.308 2818.66C450.169 2819.22 451.028 2819.82 451.893 2820.47C453.687 2821.81 455.39 2823.26 456.991 2824.81C458.64 2826.41 460.22 2828.16 461.673 2830.03C463.123 2831.91 464.461 2833.91 465.643 2836.01C466.826 2838.1 467.856 2840.3 468.729 2842.55C469.601 2844.81 470.318 2847.12 470.86 2849.46C470.996 2850.04 471.124 2850.63 471.234 2851.22C471.351 2851.8 471.45 2852.39 471.546 2852.98C471.733 2854.15 471.872 2855.33 471.972 2856.5C472.167 2858.81 472.202 2861.13 472.074 2863.44C471.952 2865.64 471.688 2867.83 471.284 2869.99C471.088 2871.04 470.873 2872.04 470.621 2873.02L470.44 2873.74C470.378 2873.98 470.308 2874.22 470.244 2874.45L470.05 2875.14L469.842 2875.82C469.293 2877.6 468.693 2879.19 468.127 2880.54C467.562 2881.88 467.026 2882.97 466.62 2883.72C466.432 2884.1 466.251 2884.4 466.144 2884.59C466.09 2884.69 466.041 2884.77 466.011 2884.82L465.964 2884.9C465.613 2885.48 464.898 2885.73 464.261 2885.54L464.174 2885.51C464.117 2885.49 464.027 2885.47 463.919 2885.43C463.704 2885.35 463.364 2885.25 462.968 2885.09C462.146 2884.8 461 2884.34 459.659 2883.71C458.316 2883.09 456.774 2882.29 455.143 2881.33L454.523 2880.97L453.904 2880.58C453.697 2880.45 453.481 2880.32 453.271 2880.18L452.641 2879.77C451.783 2879.2 450.93 2878.6 450.069 2877.95C448.281 2876.61 446.581 2875.16 444.98 2873.61C443.296 2871.97 441.728 2870.23 440.286 2868.39C439.554 2867.45 438.847 2866.49 438.177 2865.49C437.846 2865 437.514 2864.49 437.198 2863.98C436.875 2863.47 436.569 2862.96 436.267 2862.43C435.062 2860.34 434.005 2858.16 433.103 2855.92C432.2 2853.67 431.456 2851.37 430.893 2849.04C430.327 2846.71 429.946 2844.35 429.733 2842.01C429.522 2839.67 429.493 2837.34 429.617 2835.08C429.738 2832.88 430.006 2830.69 430.418 2828.52C430.617 2827.48 430.838 2826.47 431.093 2825.49C431.223 2825 431.336 2824.53 431.479 2824.06C431.615 2823.59 431.742 2823.14 431.891 2822.69C432.453 2820.9 433.068 2819.3 433.649 2817.95C434.229 2816.61 434.775 2815.51 435.194 2814.75C435.388 2814.38 435.572 2814.07 435.683 2813.88C435.738 2813.78 435.788 2813.7 435.819 2813.65L435.867 2813.57C436.223 2812.99 436.934 2812.74 437.57 2812.93Z" fill="#ADBBBC"/>
<path d="M455.68 2861.31L455.922 2861.32C456.071 2861.34 456.284 2861.36 456.509 2861.41C456.982 2861.51 457.519 2861.7 457.899 2862.07C458.09 2862.25 458.212 2862.48 458.378 2862.73L458.895 2863.52L460.134 2865.43C460.617 2866.18 461.096 2866.93 461.569 2867.69C462.096 2868.54 462.616 2869.39 463.128 2870.24L463.93 2871.59L464.734 2872.98C465.268 2873.92 465.804 2874.88 466.324 2875.84C466.845 2876.8 467.355 2877.76 467.856 2878.72C468.353 2879.68 468.846 2880.61 469.308 2881.53L469.993 2882.87C470.211 2883.31 470.454 2883.73 470.617 2884.17C470.784 2884.6 470.864 2885.05 470.847 2885.53C470.836 2886 470.749 2886.49 470.661 2886.95C470.492 2887.83 470.279 2888.7 470.023 2889.56C469.905 2889.96 469.783 2890.34 469.66 2890.69C469.539 2891.04 469.404 2891.37 469.295 2891.66C469.183 2891.96 469.056 2892.23 468.96 2892.47C468.859 2892.7 468.755 2892.91 468.68 2893.07C468.6 2893.24 468.531 2893.37 468.488 2893.45L468.416 2893.59L468.271 2893.53C468.179 2893.5 468.038 2893.45 467.865 2893.38C467.697 2893.3 467.478 2893.22 467.242 2893.11C467.01 2893 466.728 2892.88 466.442 2892.73C466.159 2892.59 465.831 2892.43 465.5 2892.25C465.167 2892.07 464.819 2891.87 464.458 2891.65C463.677 2891.18 462.921 2890.67 462.191 2890.13C461.804 2889.84 461.406 2889.54 461.073 2889.2C460.734 2888.85 460.482 2888.46 460.306 2888.03C460.128 2887.6 460.019 2887.13 459.878 2886.66L459.465 2885.22C459.18 2884.24 458.901 2883.22 458.615 2882.19C458.327 2881.16 458.044 2880.11 457.772 2879.05C457.496 2878 457.236 2876.94 456.986 2875.89L456.626 2874.33L456.291 2872.8C456.085 2871.83 455.888 2870.87 455.698 2869.89C455.518 2868.97 455.354 2868.09 455.206 2867.27L454.816 2865.05L454.654 2864.12C454.609 2863.83 454.538 2863.58 454.556 2863.32C454.587 2862.8 454.851 2862.31 455.137 2861.93C455.269 2861.74 455.41 2861.58 455.511 2861.48L455.68 2861.31Z" fill="#FF473E"/>
<path d="M454.099 2842.25C458.054 2843.96 459.836 2848.48 458.078 2852.34C456.321 2856.19 451.689 2857.93 447.734 2856.22C443.778 2854.5 441.996 2849.99 443.754 2846.13C445.512 2842.27 450.143 2840.54 454.099 2842.25ZM440.377 2832.1C439.258 2834.56 440.392 2837.43 442.91 2838.52C445.428 2839.61 448.376 2838.51 449.495 2836.05C450.614 2833.6 449.48 2830.72 446.962 2829.63C444.444 2828.54 441.496 2829.65 440.377 2832.1Z" fill="#2B3B47"/>
</g>
<g clip-path="url(#clip1_19_75)">
<path d="M881.092 1858.42L881.343 1858.32C881.424 1858.29 881.533 1858.24 881.647 1858.2L882.049 1858.06C882.203 1858 882.358 1857.95 882.538 1857.89C882.716 1857.84 882.914 1857.77 883.11 1857.71L883.753 1857.53C883.978 1857.47 884.203 1857.41 884.448 1857.35C885.508 1857.08 886.586 1856.88 887.674 1856.76C888.253 1856.69 888.831 1856.65 889.425 1856.63C890.008 1856.62 890.606 1856.62 891.19 1856.67C891.772 1856.71 892.35 1856.78 892.922 1856.89C893.484 1857 894.037 1857.15 894.577 1857.34C895.648 1857.71 896.641 1858.24 897.523 1858.93C897.967 1859.27 898.366 1859.68 898.778 1860.08C899.184 1860.48 899.591 1860.89 899.986 1861.33C900.793 1862.2 901.553 1863.12 902.262 1864.07C902.982 1865.03 903.652 1866.05 904.268 1867.09C904.574 1867.61 904.866 1868.14 905.145 1868.67C905.42 1869.21 905.682 1869.75 905.93 1870.3C906.419 1871.39 906.847 1872.48 907.205 1873.58C907.552 1874.63 907.846 1875.7 908.085 1876.78C908.547 1878.85 908.755 1880.75 908.818 1882.16L908.836 1882.67L908.844 1883.13L908.837 1883.86L908.817 1884.33L908.806 1884.5L908.635 1884.52L908.151 1884.55L907.397 1884.59L906.931 1884.6L906.411 1884.6C904.959 1884.58 903.002 1884.45 900.866 1884.07C899.749 1883.88 898.643 1883.63 897.551 1883.33C896.42 1883.02 895.278 1882.64 894.144 1882.2C893.575 1881.98 893.012 1881.74 892.455 1881.49C891.898 1881.24 891.344 1880.97 890.799 1880.69C889.71 1880.13 888.648 1879.51 887.636 1878.84C886.634 1878.19 885.668 1877.48 884.743 1876.72C884.285 1876.35 883.846 1875.97 883.417 1875.59C882.993 1875.2 882.566 1874.83 882.199 1874.41C881.457 1873.57 880.88 1872.62 880.463 1871.59C880.253 1871.07 880.082 1870.54 879.949 1870C879.817 1869.44 879.718 1868.88 879.655 1868.32C879.59 1867.75 879.565 1867.17 879.556 1866.6C879.558 1866.02 879.574 1865.45 879.626 1864.89C879.714 1863.82 879.878 1862.77 880.118 1861.72C880.174 1861.48 880.22 1861.26 880.276 1861.04L880.445 1860.41C880.493 1860.21 880.556 1860.02 880.609 1859.84C880.664 1859.67 880.706 1859.51 880.758 1859.36L880.892 1858.96C880.928 1858.85 880.972 1858.74 881.001 1858.66C881.061 1858.5 881.092 1858.42 881.092 1858.42Z" fill="#FFB636"/>
<path d="M862.902 1876.79L873.577 1886.84C874.315 1887.53 875.546 1887.01 875.528 1886.01L875.372 1877.41C875.367 1877.11 875.483 1876.83 875.695 1876.61L881.319 1870.93L862.301 1862.19L862.551 1876C862.554 1876.15 862.586 1876.29 862.646 1876.43C862.707 1876.56 862.794 1876.69 862.902 1876.79ZM893.047 1856.62L898.671 1850.94C898.883 1850.72 899.174 1850.6 899.479 1850.59L908.295 1850.44C909.321 1850.42 909.812 1849.21 909.074 1848.51L898.399 1838.46C898.18 1838.26 897.885 1838.14 897.58 1838.15L883.417 1838.39L893.047 1856.62Z" fill="#FF473E"/>
<path d="M838.102 1816.71L838.194 1816.7C838.254 1816.69 838.348 1816.68 838.463 1816.67C838.693 1816.65 839.049 1816.6 839.479 1816.57C840.362 1816.49 841.606 1816.43 843.105 1816.43C844.604 1816.44 846.357 1816.51 848.261 1816.7C848.743 1816.74 849.221 1816.8 849.717 1816.86C850.219 1816.92 850.709 1817 851.222 1817.08C852.245 1817.23 853.286 1817.42 854.349 1817.65C856.554 1818.13 858.726 1818.74 860.85 1819.49C863.037 1820.26 865.225 1821.19 867.354 1822.3C869.482 1823.4 871.56 1824.66 873.54 1826.08C875.521 1827.49 877.405 1829.06 879.172 1830.74C880.938 1832.43 882.59 1834.23 884.094 1836.13C884.469 1836.6 884.839 1837.08 885.193 1837.57C885.553 1838.05 885.898 1838.54 886.239 1839.03C886.917 1840.02 887.553 1841.03 888.151 1842.06C889.328 1844.07 890.363 1846.16 891.249 1848.31C892.089 1850.35 892.797 1852.44 893.368 1854.57C893.641 1855.59 893.883 1856.6 894.077 1857.58L894.226 1858.31C894.273 1858.55 894.312 1858.8 894.355 1859.04L894.478 1859.74L894.582 1860.44C894.855 1862.28 895.003 1863.97 895.07 1865.42C895.139 1866.87 895.124 1868.08 895.084 1868.93C895.075 1869.35 895.041 1869.7 895.029 1869.92C895.022 1870.03 895.011 1870.12 895.006 1870.18L894.998 1870.27C894.933 1870.94 894.393 1871.47 893.73 1871.55L893.639 1871.56C893.579 1871.57 893.487 1871.58 893.373 1871.59C893.146 1871.61 892.792 1871.66 892.366 1871.68C891.493 1871.75 890.256 1871.81 888.769 1871.79C887.28 1871.78 885.539 1871.69 883.644 1871.49L882.923 1871.41L882.196 1871.32C881.95 1871.28 881.698 1871.25 881.449 1871.22L880.697 1871.1C879.677 1870.94 878.641 1870.74 877.58 1870.51C875.378 1870.03 873.21 1869.42 871.087 1868.67C868.853 1867.88 866.676 1866.95 864.572 1865.87C863.504 1865.32 862.445 1864.74 861.408 1864.12C860.891 1863.8 860.373 1863.48 859.865 1863.15C859.352 1862.82 858.85 1862.48 858.351 1862.13C856.354 1860.73 854.45 1859.18 852.661 1857.52C850.871 1855.86 849.2 1854.08 847.68 1852.2C846.159 1850.32 844.793 1848.34 843.586 1846.3C842.382 1844.27 841.347 1842.17 840.479 1840.06C839.637 1838.02 838.932 1835.93 838.368 1833.79C838.097 1832.77 837.86 1831.76 837.667 1830.77C837.573 1830.27 837.471 1829.79 837.397 1829.31C837.317 1828.83 837.236 1828.36 837.176 1827.9C836.914 1826.05 836.777 1824.34 836.721 1822.88C836.664 1821.42 836.686 1820.21 836.736 1819.34C836.748 1818.92 836.785 1818.57 836.8 1818.35C836.808 1818.24 836.819 1818.14 836.825 1818.09L836.834 1818C836.905 1817.32 837.443 1816.8 838.102 1816.71Z" fill="#ADBBBC"/>
<path d="M875.461 1853.12L875.688 1853.03C875.829 1852.98 876.032 1852.92 876.258 1852.87C876.727 1852.76 877.3 1852.72 877.802 1852.89C878.054 1852.98 878.266 1853.14 878.521 1853.29L879.334 1853.8L881.283 1855.02C882.046 1855.5 882.807 1855.99 883.565 1856.48C884.408 1857.03 885.246 1857.58 886.08 1858.15L887.392 1859.04L888.724 1859.97C889.614 1860.61 890.514 1861.25 891.403 1861.91C892.289 1862.56 893.167 1863.22 894.039 1863.89C894.903 1864.55 895.755 1865.2 896.568 1865.84L897.771 1866.77C898.159 1867.08 898.561 1867.36 898.898 1867.69C899.237 1868.02 899.507 1868.39 899.697 1868.83C899.891 1869.26 900.022 1869.74 900.145 1870.2C900.372 1871.07 900.556 1871.94 900.696 1872.83C900.761 1873.24 900.813 1873.63 900.854 1874C900.896 1874.36 900.917 1874.72 900.946 1875.03C900.972 1875.35 900.976 1875.65 900.989 1875.9C900.999 1876.15 900.995 1876.38 900.998 1876.56C900.997 1876.74 900.99 1876.89 900.988 1876.99L900.981 1877.14L900.827 1877.15C900.728 1877.15 900.578 1877.17 900.391 1877.17C900.207 1877.18 899.972 1877.19 899.71 1877.19C899.453 1877.18 899.145 1877.19 898.822 1877.18C898.502 1877.16 898.137 1877.15 897.759 1877.12C897.379 1877.1 896.976 1877.06 896.555 1877.01C895.644 1876.91 894.738 1876.76 893.842 1876.57C893.366 1876.46 892.874 1876.35 892.423 1876.18C891.969 1876.01 891.571 1875.76 891.225 1875.44C890.877 1875.12 890.575 1874.74 890.244 1874.37L889.244 1873.23C888.562 1872.46 887.869 1871.66 887.163 1870.84C886.455 1870.02 885.742 1869.19 885.039 1868.34C884.332 1867.5 883.638 1866.64 882.958 1865.8L881.957 1864.53L880.992 1863.29C880.386 1862.49 879.788 1861.7 879.196 1860.89C878.63 1860.13 878.101 1859.4 877.615 1858.72L876.299 1856.87L875.75 1856.09C875.585 1855.85 875.411 1855.65 875.314 1855.4C875.118 1854.92 875.142 1854.36 875.237 1853.9C875.277 1853.68 875.337 1853.48 875.381 1853.34L875.461 1853.12Z" fill="#FF473E"/>
<path d="M865.778 1836.49C870.106 1836.42 873.676 1839.78 873.753 1844C873.829 1848.22 870.382 1851.7 866.054 1851.77C861.727 1851.85 858.156 1848.49 858.08 1844.27C858.004 1840.05 861.45 1836.57 865.778 1836.49ZM848.945 1832.94C848.994 1835.62 851.266 1837.76 854.021 1837.72C856.776 1837.67 858.97 1835.45 858.922 1832.77C858.873 1830.08 856.6 1827.94 853.845 1827.99C851.09 1828.04 848.897 1830.25 848.945 1832.94Z" fill="#2B3B47"/>
</g>
<g clip-path="url(#clip2_19_75)">
<path d="M468.348 1087.16L468.463 1087.4C468.499 1087.48 468.553 1087.58 468.6 1087.69L468.77 1088.07C468.836 1088.22 468.892 1088.37 468.964 1088.54C469.033 1088.71 469.113 1088.9 469.179 1089.09L469.407 1089.7C469.483 1089.92 469.55 1090.13 469.628 1090.37C469.964 1091.39 470.226 1092.42 470.413 1093.48C470.517 1094.04 470.586 1094.6 470.642 1095.17C470.686 1095.74 470.716 1096.32 470.704 1096.89C470.694 1097.46 470.648 1098.03 470.568 1098.59C470.486 1099.15 470.365 1099.69 470.205 1100.23C469.885 1101.29 469.4 1102.29 468.739 1103.19C468.412 1103.64 468.022 1104.05 467.636 1104.47C467.245 1104.89 466.843 1105.31 466.422 1105.72C465.57 1106.55 464.675 1107.34 463.738 1108.09C462.793 1108.84 461.793 1109.55 460.761 1110.21C460.244 1110.53 459.719 1110.85 459.186 1111.15C458.655 1111.45 458.116 1111.73 457.57 1112C456.481 1112.54 455.38 1113.02 454.282 1113.43C453.223 1113.82 452.145 1114.17 451.051 1114.46C448.959 1115.03 447.023 1115.34 445.577 1115.48L445.06 1115.52L444.595 1115.56L443.84 1115.59L443.356 1115.6L443.184 1115.6L443.157 1115.43L443.093 1114.96L443.018 1114.23L442.983 1113.78L442.954 1113.27C442.884 1111.86 442.914 1109.94 443.182 1107.84C443.319 1106.74 443.512 1105.65 443.759 1104.57C444.013 1103.46 444.337 1102.32 444.723 1101.19C444.918 1100.63 445.128 1100.07 445.352 1099.51C445.58 1098.95 445.821 1098.4 446.078 1097.85C446.595 1096.76 447.167 1095.69 447.795 1094.67C448.412 1093.66 449.083 1092.68 449.805 1091.74C450.158 1091.27 450.524 1090.82 450.891 1090.38C451.264 1089.95 451.624 1089.51 452.035 1089.13C452.848 1088.36 453.788 1087.75 454.819 1087.28C455.34 1087.05 455.877 1086.85 456.426 1086.69C456.985 1086.53 457.554 1086.41 458.129 1086.31C458.708 1086.22 459.303 1086.16 459.884 1086.12C460.478 1086.09 461.056 1086.08 461.64 1086.09C462.735 1086.12 463.827 1086.22 464.907 1086.4C465.157 1086.44 465.387 1086.47 465.616 1086.51L466.274 1086.64C466.474 1086.68 466.678 1086.73 466.86 1086.77C467.045 1086.81 467.204 1086.85 467.363 1086.89L467.776 1087C467.894 1087.03 468.006 1087.06 468.09 1087.09C468.26 1087.13 468.348 1087.16 468.348 1087.16Z" fill="#FFB636"/>
<path d="M448.52 1070.48L438.827 1081.43C438.157 1082.19 438.76 1083.36 439.783 1083.28L448.577 1082.65C448.881 1082.63 449.182 1082.73 449.413 1082.92L455.543 1088.08L463.433 1069.08L449.307 1070.09C449.156 1070.1 449.009 1070.14 448.874 1070.21C448.739 1070.27 448.619 1070.37 448.52 1070.48ZM470.859 1098.7L476.989 1103.86C477.22 1104.05 477.362 1104.33 477.385 1104.62L478.032 1113.2C478.107 1114.2 479.382 1114.61 480.052 1113.85L489.745 1102.9C489.944 1102.67 490.044 1102.38 490.021 1102.08L488.982 1088.31L470.859 1098.7Z" fill="#FF473E"/>
<path d="M508.651 1042.98L508.669 1043.07C508.68 1043.13 508.7 1043.22 508.718 1043.33C508.754 1043.55 508.823 1043.9 508.875 1044.31C509.005 1045.17 509.141 1046.38 509.22 1047.84C509.3 1049.3 509.323 1051.01 509.234 1052.87C509.219 1053.34 509.181 1053.81 509.147 1054.3C509.118 1054.79 509.061 1055.27 509.013 1055.78C508.914 1056.78 508.772 1057.8 508.598 1058.85C508.235 1061.02 507.728 1063.17 507.081 1065.28C506.412 1067.46 505.578 1069.64 504.568 1071.77C503.556 1073.9 502.381 1076 501.041 1078C499.704 1080.01 498.205 1081.93 496.578 1083.75C494.951 1085.56 493.199 1087.27 491.341 1088.84C490.876 1089.23 490.408 1089.62 489.928 1089.99C489.454 1090.37 488.967 1090.73 488.483 1091.09C487.508 1091.81 486.508 1092.48 485.495 1093.12C483.5 1094.38 481.42 1095.5 479.268 1096.48C477.224 1097.42 475.122 1098.22 472.974 1098.9C471.939 1099.22 470.926 1099.51 469.924 1099.76L469.187 1099.94C468.942 1100 468.694 1100.05 468.453 1100.11L467.737 1100.27L467.026 1100.41C465.158 1100.77 463.432 1101.01 461.951 1101.16C460.472 1101.31 459.234 1101.36 458.358 1101.37C457.932 1101.38 457.575 1101.37 457.347 1101.37C457.233 1101.37 457.139 1101.36 457.079 1101.36L456.987 1101.36C456.292 1101.33 455.728 1100.84 455.606 1100.2L455.589 1100.11C455.578 1100.05 455.559 1099.96 455.542 1099.85C455.51 1099.63 455.443 1099.29 455.396 1098.88C455.276 1098.03 455.149 1096.83 455.082 1095.38C455.014 1093.93 455.003 1092.23 455.103 1090.37L455.141 1089.67L455.198 1088.95C455.219 1088.71 455.235 1088.47 455.259 1088.22L455.339 1087.48C455.44 1086.48 455.588 1085.46 455.764 1084.42C456.134 1082.25 456.644 1080.1 457.29 1077.99C457.972 1075.77 458.808 1073.6 459.792 1071.49C460.292 1070.42 460.831 1069.36 461.414 1068.32C461.708 1067.8 462.005 1067.27 462.319 1066.76C462.626 1066.24 462.949 1065.73 463.279 1065.23C464.6 1063.21 466.076 1061.27 467.679 1059.43C469.281 1057.6 471.011 1055.87 472.852 1054.29C474.691 1052.7 476.643 1051.26 478.659 1049.97C480.676 1048.69 482.768 1047.56 484.875 1046.6C486.92 1045.67 489.026 1044.86 491.178 1044.19C492.215 1043.87 493.233 1043.59 494.237 1043.34C494.742 1043.22 495.222 1043.1 495.716 1043C496.205 1042.89 496.674 1042.79 497.151 1042.7C499.03 1042.35 500.768 1042.12 502.261 1041.98C503.753 1041.84 504.998 1041.8 505.885 1041.8C506.315 1041.79 506.675 1041.8 506.906 1041.81C507.022 1041.81 507.116 1041.81 507.177 1041.82L507.269 1041.82C507.964 1041.85 508.523 1042.35 508.651 1042.98Z" fill="#ADBBBC"/>
<path d="M473.461 1081.38L473.562 1081.6C473.619 1081.73 473.697 1081.93 473.758 1082.15C473.896 1082.6 473.972 1083.15 473.822 1083.65C473.748 1083.9 473.593 1084.11 473.451 1084.37L472.977 1085.19L471.84 1087.16C471.387 1087.93 470.93 1088.69 470.468 1089.46C469.953 1090.31 469.431 1091.16 468.902 1092L468.058 1093.33L467.179 1094.68C466.581 1095.58 465.968 1096.49 465.344 1097.39C464.726 1098.29 464.098 1099.18 463.462 1100.07C462.835 1100.95 462.22 1101.81 461.613 1102.64L460.723 1103.86C460.428 1104.26 460.163 1104.67 459.845 1105.01C459.53 1105.36 459.158 1105.64 458.721 1105.85C458.288 1106.07 457.809 1106.22 457.345 1106.37C456.47 1106.64 455.582 1106.86 454.684 1107.05C454.269 1107.14 453.872 1107.21 453.496 1107.27C453.122 1107.33 452.759 1107.37 452.441 1107.42C452.121 1107.46 451.814 1107.48 451.558 1107.51C451.298 1107.53 451.063 1107.54 450.88 1107.55C450.692 1107.56 450.541 1107.56 450.443 1107.57L450.289 1107.57L450.267 1107.42C450.256 1107.32 450.236 1107.18 450.218 1106.99C450.204 1106.82 450.178 1106.59 450.164 1106.33C450.154 1106.08 450.13 1105.78 450.127 1105.47C450.126 1105.16 450.114 1104.8 450.122 1104.43C450.128 1104.06 450.143 1103.66 450.17 1103.25C450.227 1102.36 450.328 1101.47 450.474 1100.59C450.553 1100.12 450.639 1099.63 450.792 1099.18C450.941 1098.73 451.174 1098.33 451.481 1097.98C451.786 1097.62 452.16 1097.3 452.518 1096.96L453.628 1095.92C454.379 1095.22 455.167 1094.5 455.966 1093.76C456.763 1093.03 457.58 1092.29 458.406 1091.56C459.23 1090.82 460.066 1090.1 460.894 1089.39L462.133 1088.34L463.356 1087.33C464.134 1086.7 464.917 1086.07 465.705 1085.45C466.459 1084.86 467.177 1084.3 467.841 1083.79L469.668 1082.41L470.431 1081.83C470.671 1081.66 470.866 1081.47 471.11 1081.37C471.593 1081.15 472.167 1081.14 472.645 1081.21C472.875 1081.24 473.083 1081.28 473.228 1081.32L473.461 1081.38Z" fill="#FF473E"/>
<path d="M489.944 1071.03C490.262 1075.24 487.02 1078.9 482.703 1079.21C478.386 1079.52 474.629 1076.36 474.312 1072.15C473.994 1067.94 477.236 1064.28 481.553 1063.97C485.869 1063.66 489.627 1066.82 489.944 1071.03ZM492.643 1054.44C489.895 1054.64 487.831 1056.97 488.033 1059.65C488.236 1062.33 490.627 1064.34 493.375 1064.15C496.123 1063.95 498.187 1061.62 497.984 1058.94C497.782 1056.26 495.391 1054.25 492.643 1054.44Z" fill="#2B3B47"/>
</g>
<g clip-path="url(#clip3_19_75)">
<path d="M887.124 270.052L887.339 269.891C887.409 269.84 887.501 269.767 887.6 269.699L887.948 269.455C888.08 269.361 888.217 269.276 888.374 269.171C888.529 269.069 888.702 268.952 888.875 268.849L889.444 268.5C889.643 268.381 889.845 268.272 890.064 268.147C891.011 267.609 891.995 267.137 893.01 266.734C893.548 266.515 894.095 266.33 894.661 266.152C895.22 265.99 895.796 265.837 896.372 265.725C896.943 265.614 897.521 265.536 898.103 265.492C898.674 265.451 899.247 265.45 899.819 265.487C900.953 265.564 902.054 265.814 903.095 266.252C903.618 266.466 904.112 266.75 904.619 267.026C905.122 267.31 905.628 267.603 906.127 267.917C907.145 268.549 908.129 269.233 909.074 269.966C910.033 270.704 910.957 271.506 911.837 272.348C912.275 272.77 912.702 273.203 913.118 273.646C913.53 274.089 913.93 274.541 914.319 275.002C915.091 275.924 915.805 276.871 916.45 277.829C917.074 278.753 917.651 279.706 918.178 280.686C919.192 282.557 919.916 284.335 920.366 285.682L920.522 286.165L920.655 286.601L920.851 287.312L920.962 287.772L920.996 287.936L920.836 287.997L920.381 288.158L919.663 288.387L919.216 288.517L918.716 288.653C917.313 289.022 915.391 289.402 913.229 289.597C912.099 289.702 910.965 289.751 909.831 289.747C908.656 289.744 907.452 289.678 906.239 289.552C905.63 289.487 905.022 289.407 904.417 289.312C903.811 289.214 903.205 289.103 902.602 288.976C901.398 288.717 900.205 288.401 899.046 288.022C897.901 287.651 896.775 287.221 895.676 286.735C895.133 286.499 894.605 286.246 894.087 285.99C893.572 285.727 893.058 285.479 892.589 285.169C891.644 284.558 890.828 283.795 890.142 282.911C889.797 282.465 889.485 281.996 889.208 281.508C888.928 281.009 888.679 280.494 888.462 279.966C888.244 279.436 888.06 278.881 887.895 278.336C887.737 277.777 887.598 277.229 887.491 276.67C887.283 275.621 887.151 274.56 887.096 273.493C887.083 273.246 887.067 273.02 887.059 272.793L887.048 272.138C887.042 271.94 887.048 271.735 887.051 271.553C887.055 271.367 887.054 271.209 887.063 271.049L887.082 270.632C887.086 270.514 887.099 270.399 887.104 270.314C887.117 270.141 887.124 270.052 887.124 270.052Z" fill="#FFB636"/>
<path d="M874.652 292.507L887.7 299.396C888.601 299.872 889.643 299.047 889.351 298.089L886.837 289.848C886.75 289.562 886.783 289.255 886.928 288.993L890.784 282.051L870.059 278.602L874.097 291.84C874.14 291.981 874.212 292.112 874.307 292.227C874.402 292.341 874.52 292.436 874.652 292.507ZM898.146 265.191L902.002 258.249C902.147 257.987 902.393 257.792 902.686 257.707L911.138 255.257C912.121 254.971 912.259 253.67 911.358 253.194L898.311 246.305C898.042 246.163 897.727 246.131 897.434 246.216L883.858 250.153L898.146 265.191Z" fill="#FF473E"/>
<path d="M834.241 241.117L834.326 241.081C834.382 241.058 834.468 241.019 834.576 240.978C834.791 240.896 835.121 240.757 835.528 240.618C836.357 240.311 837.538 239.924 838.983 239.537C840.428 239.148 842.137 238.76 844.024 238.445C844.5 238.36 844.977 238.295 845.472 238.224C845.97 238.146 846.465 238.097 846.98 238.035C848.007 237.915 849.064 237.831 850.15 237.772C852.405 237.653 854.666 237.676 856.918 237.841C859.238 238.013 861.603 238.341 863.957 238.846C866.31 239.353 868.659 240.025 870.955 240.872C873.253 241.716 875.499 242.733 877.664 243.894C879.83 245.055 881.916 246.359 883.886 247.793C884.379 248.151 884.866 248.514 885.341 248.892C885.821 249.263 886.289 249.649 886.753 250.034C887.678 250.809 888.569 251.617 889.426 252.445C891.113 254.076 892.684 255.817 894.129 257.656C895.5 259.403 896.757 261.233 897.892 263.135C898.437 264.051 898.946 264.953 899.405 265.856L899.748 266.518C899.86 266.739 899.965 266.964 900.072 267.182L900.385 267.83L900.678 268.477C901.446 270.177 902.054 271.77 902.518 273.15C902.982 274.527 903.3 275.694 903.496 276.527C903.602 276.929 903.664 277.272 903.714 277.49C903.738 277.599 903.752 277.689 903.764 277.746L903.78 277.835C903.903 278.503 903.526 279.146 902.911 279.399L902.826 279.434C902.771 279.456 902.685 279.494 902.578 279.534C902.365 279.612 902.036 279.749 901.633 279.882C900.81 280.177 899.634 280.555 898.197 280.929C896.759 281.304 895.059 281.678 893.178 281.98L892.462 282.094L891.735 282.193C891.49 282.225 891.239 282.262 890.988 282.291L890.232 282.374C889.206 282.491 888.153 282.569 887.068 282.625C884.814 282.737 882.556 282.71 880.305 282.546C877.936 282.371 875.582 282.04 873.26 281.554C872.08 281.306 870.899 281.02 869.728 280.688C869.144 280.52 868.557 280.348 867.976 280.16C867.392 279.978 866.814 279.778 866.236 279.572C863.928 278.747 861.668 277.756 859.488 276.622C857.307 275.489 855.207 274.21 853.226 272.796C851.244 271.383 849.383 269.832 847.661 268.188C845.941 266.542 844.367 264.79 842.952 262.989C841.579 261.241 840.323 259.408 839.194 257.501C838.65 256.582 838.145 255.673 837.686 254.769C837.459 254.314 837.23 253.883 837.025 253.434C836.816 252.991 836.61 252.566 836.424 252.13C835.662 250.417 835.062 248.81 834.606 247.417C834.149 246.026 833.836 244.85 833.647 244.005C833.544 243.597 833.483 243.252 833.436 243.031C833.412 242.921 833.398 242.83 833.387 242.771L833.372 242.682C833.255 242.014 833.63 241.375 834.241 241.117Z" fill="#ADBBBC"/>
<path d="M880.242 266.418L880.436 266.276C880.559 266.192 880.736 266.076 880.942 265.972C881.364 265.744 881.904 265.553 882.435 265.589C882.701 265.606 882.95 265.707 883.238 265.788L884.161 266.063L886.373 266.727C887.241 266.993 888.108 267.264 888.974 267.54C889.937 267.848 890.897 268.164 891.855 268.488L893.366 269.008L894.904 269.557C895.936 269.933 896.981 270.321 898.019 270.723C899.051 271.12 900.079 271.527 901.103 271.943C902.116 272.353 903.115 272.753 904.074 273.154L905.489 273.74C905.949 273.937 906.413 274.102 906.828 274.33C907.245 274.556 907.608 274.85 907.912 275.221C908.218 275.588 908.475 276.012 908.719 276.423C909.177 277.198 909.595 277.995 909.973 278.81C910.148 279.187 910.306 279.55 910.447 279.895C910.589 280.238 910.706 280.575 910.82 280.868C910.931 281.164 911.017 281.452 911.099 281.69C911.179 281.933 911.238 282.155 911.29 282.327C911.339 282.504 911.373 282.647 911.398 282.739L911.432 282.886L911.287 282.939C911.194 282.969 911.052 283.02 910.874 283.076C910.697 283.128 910.475 283.201 910.223 283.269C909.973 283.332 909.679 283.419 909.364 283.489C909.051 283.557 908.696 283.645 908.324 283.716C907.951 283.79 907.553 283.86 907.134 283.923C906.227 284.059 905.314 284.153 904.398 284.204C903.911 284.228 903.407 284.25 902.925 284.201C902.44 284.156 901.989 284.02 901.567 283.803C901.145 283.589 900.749 283.3 900.329 283.032L899.052 282.197C898.184 281.633 897.294 281.036 896.388 280.433C895.482 279.831 894.565 279.211 893.655 278.58C892.743 277.953 891.838 277.312 890.951 276.675L889.639 275.718L888.366 274.769C887.565 274.164 886.769 273.552 885.978 272.934C885.223 272.343 884.512 271.778 883.858 271.255L882.079 269.811L881.338 269.209C881.112 269.017 880.889 268.869 880.729 268.661C880.407 268.247 880.277 267.702 880.242 267.233C880.219 267.008 880.221 266.8 880.226 266.654L880.242 266.418Z" fill="#FF473E"/>
<path d="M866.342 252.933C870.49 251.73 874.854 254.034 876.088 258.08C877.322 262.125 874.959 266.38 870.81 267.583C866.661 268.786 862.297 266.482 861.064 262.437C859.83 258.391 862.193 254.136 866.342 252.933ZM849.148 253.912C849.934 256.487 852.711 257.954 855.352 257.188C857.993 256.422 859.497 253.713 858.712 251.138C857.927 248.563 855.149 247.097 852.508 247.862C849.867 248.628 848.363 251.337 849.148 253.912Z" fill="#2B3B47"/>
</g>
<path d="M42 2960L914.646 3222.1C1067.19 3267.92 1114.47 3460.71 1000.43 3571.91L460.728 4098.15C374.619 4182.11 376.961 4321.24 465.846 4402.25L969.54 4861.35C1057.15 4941.21 1060.88 5077.87 977.747 5162.38L542.782 5604.56C451.284 5697.57 466.439 5850.76 574.39 5924.04L1043.5 6242.5" stroke="black" stroke-dasharray="30 30"/>
<g clip-path="url(#clip4_19_75)">
<path d="M499.49 5827.43L499.76 5827.44C499.847 5827.45 499.965 5827.45 500.086 5827.46L500.513 5827.5C500.677 5827.51 500.838 5827.53 501.027 5827.55C501.213 5827.57 501.422 5827.59 501.623 5827.62L502.287 5827.72C502.517 5827.76 502.744 5827.8 502.994 5827.84C504.072 5828.04 505.135 5828.3 506.174 5828.64C506.73 5828.81 507.269 5829.02 507.817 5829.24C508.35 5829.47 508.891 5829.72 509.402 5830C509.911 5830.28 510.402 5830.58 510.874 5830.92C511.335 5831.25 511.772 5831.61 512.181 5832C512.992 5832.78 513.663 5833.67 514.162 5834.66C514.417 5835.15 514.604 5835.68 514.805 5836.21C514.998 5836.75 515.187 5837.29 515.358 5837.85C515.711 5838.97 516.003 5840.11 516.233 5841.27C516.469 5842.44 516.637 5843.63 516.745 5844.83C516.797 5845.43 516.833 5846.03 516.854 5846.63C516.872 5847.23 516.875 5847.82 516.864 5848.42C516.836 5849.61 516.748 5850.78 516.599 5851.92C516.458 5853.02 516.262 5854.11 516.01 5855.19C515.534 5857.25 514.899 5859.06 514.344 5860.37L514.141 5860.84L513.951 5861.25L513.626 5861.92L513.404 5862.34L513.321 5862.48L513.159 5862.43L512.705 5862.26L512.007 5861.98L511.58 5861.8L511.109 5861.58C509.797 5860.98 508.082 5860.05 506.309 5858.83C505.381 5858.19 504.486 5857.51 503.627 5856.79C502.736 5856.04 501.864 5855.23 501.026 5854.36C500.606 5853.93 500.198 5853.48 499.801 5853.03C499.406 5852.57 499.018 5852.1 498.645 5851.62C497.902 5850.66 497.206 5849.66 496.578 5848.64C495.954 5847.63 495.385 5846.6 494.873 5845.53C494.618 5845.01 494.386 5844.48 494.162 5843.96C493.946 5843.43 493.721 5842.92 493.57 5842.38C493.259 5841.32 493.147 5840.22 493.215 5839.12C493.25 5838.56 493.325 5838.01 493.44 5837.46C493.56 5836.9 493.713 5836.35 493.9 5835.81C494.088 5835.27 494.317 5834.73 494.555 5834.22C494.808 5833.69 495.067 5833.19 495.359 5832.69C495.9 5831.76 496.506 5830.87 497.175 5830.03C497.33 5829.83 497.468 5829.65 497.614 5829.47L498.042 5828.97C498.169 5828.81 498.31 5828.66 498.434 5828.52C498.561 5828.39 498.665 5828.26 498.778 5828.15L499.071 5827.84C499.153 5827.76 499.239 5827.68 499.3 5827.62C499.425 5827.49 499.49 5827.43 499.49 5827.43Z" fill="#FFB636"/>
<path d="M475.046 5836.6L480.373 5850.1C480.742 5851.03 482.083 5851.07 482.5 5850.15L486.08 5842.3C486.204 5842.02 486.434 5841.81 486.719 5841.7L494.276 5838.87L480.82 5823.12L475.068 5835.74C475.007 5835.87 474.973 5836.02 474.97 5836.17C474.966 5836.31 474.992 5836.46 475.046 5836.6ZM511.107 5830.72L518.664 5827.88C518.949 5827.78 519.266 5827.78 519.545 5827.9L527.603 5831.4C528.54 5831.8 529.513 5830.9 529.144 5829.97L523.817 5816.47C523.707 5816.19 523.489 5815.96 523.21 5815.84L510.266 5810.23L511.107 5830.72Z" fill="#FF473E"/>
<path d="M478.57 5771.93L478.659 5771.96C478.717 5771.98 478.808 5772 478.917 5772.04C479.135 5772.11 479.479 5772.22 479.88 5772.37C480.715 5772.66 481.871 5773.11 483.228 5773.73C484.586 5774.36 486.143 5775.14 487.787 5776.1C488.206 5776.34 488.612 5776.59 489.036 5776.85C489.466 5777.1 489.875 5777.38 490.308 5777.66C491.169 5778.22 492.028 5778.82 492.893 5779.47C494.687 5780.81 496.39 5782.26 497.991 5783.81C499.64 5785.41 501.22 5787.16 502.673 5789.03C504.123 5790.91 505.461 5792.91 506.643 5795.01C507.826 5797.1 508.856 5799.3 509.729 5801.55C510.601 5803.81 511.318 5806.12 511.86 5808.46C511.996 5809.04 512.124 5809.63 512.234 5810.22C512.351 5810.8 512.45 5811.39 512.546 5811.98C512.733 5813.15 512.872 5814.33 512.972 5815.5C513.167 5817.81 513.202 5820.13 513.074 5822.44C512.952 5824.64 512.688 5826.83 512.284 5828.99C512.088 5830.04 511.873 5831.04 511.621 5832.02L511.44 5832.74C511.378 5832.98 511.308 5833.22 511.244 5833.45L511.05 5834.14L510.842 5834.82C510.293 5836.6 509.693 5838.19 509.127 5839.54C508.562 5840.88 508.026 5841.97 507.62 5842.72C507.432 5843.1 507.251 5843.4 507.144 5843.59C507.09 5843.69 507.041 5843.77 507.011 5843.82L506.964 5843.9C506.613 5844.48 505.898 5844.73 505.261 5844.54L505.174 5844.51C505.117 5844.49 505.027 5844.47 504.919 5844.43C504.704 5844.35 504.364 5844.25 503.968 5844.09C503.146 5843.8 502 5843.34 500.659 5842.71C499.316 5842.09 497.774 5841.29 496.143 5840.33L495.523 5839.97L494.904 5839.58C494.697 5839.45 494.481 5839.32 494.271 5839.18L493.641 5838.77C492.783 5838.2 491.93 5837.6 491.069 5836.95C489.281 5835.61 487.581 5834.16 485.98 5832.61C484.296 5830.97 482.728 5829.23 481.286 5827.39C480.554 5826.45 479.847 5825.49 479.177 5824.49C478.846 5824 478.514 5823.49 478.198 5822.98C477.875 5822.47 477.569 5821.96 477.267 5821.43C476.062 5819.34 475.005 5817.16 474.103 5814.92C473.2 5812.67 472.456 5810.37 471.893 5808.04C471.327 5805.71 470.946 5803.35 470.733 5801.01C470.522 5798.67 470.493 5796.34 470.617 5794.08C470.738 5791.88 471.006 5789.69 471.418 5787.52C471.617 5786.48 471.838 5785.47 472.093 5784.49C472.223 5784 472.336 5783.53 472.479 5783.06C472.615 5782.59 472.742 5782.14 472.891 5781.69C473.453 5779.9 474.068 5778.3 474.649 5776.95C475.229 5775.61 475.775 5774.51 476.194 5773.75C476.388 5773.38 476.572 5773.07 476.683 5772.88C476.738 5772.78 476.788 5772.7 476.819 5772.65L476.867 5772.57C477.223 5771.99 477.934 5771.74 478.57 5771.93Z" fill="#ADBBBC"/>
<path d="M496.68 5820.31L496.922 5820.32C497.071 5820.34 497.284 5820.36 497.509 5820.41C497.982 5820.51 498.519 5820.7 498.899 5821.07C499.09 5821.25 499.212 5821.48 499.378 5821.73L499.895 5822.52L501.134 5824.43C501.617 5825.18 502.096 5825.93 502.569 5826.69C503.096 5827.54 503.616 5828.39 504.128 5829.24L504.93 5830.59L505.734 5831.98C506.268 5832.92 506.804 5833.88 507.324 5834.84C507.845 5835.8 508.355 5836.76 508.856 5837.72C509.353 5838.68 509.846 5839.61 510.308 5840.53L510.993 5841.87C511.211 5842.31 511.454 5842.73 511.617 5843.17C511.784 5843.6 511.864 5844.05 511.847 5844.53C511.836 5845 511.749 5845.49 511.661 5845.95C511.492 5846.83 511.279 5847.7 511.023 5848.56C510.905 5848.96 510.783 5849.34 510.66 5849.69C510.539 5850.04 510.404 5850.37 510.295 5850.66C510.183 5850.96 510.056 5851.23 509.96 5851.47C509.859 5851.7 509.755 5851.91 509.68 5852.07C509.6 5852.24 509.531 5852.37 509.488 5852.45L509.416 5852.59L509.271 5852.53C509.179 5852.5 509.038 5852.45 508.865 5852.38C508.697 5852.3 508.478 5852.22 508.242 5852.11C508.01 5852 507.728 5851.88 507.442 5851.73C507.159 5851.59 506.831 5851.43 506.5 5851.25C506.167 5851.07 505.819 5850.87 505.458 5850.65C504.677 5850.18 503.921 5849.67 503.191 5849.13C502.804 5848.84 502.406 5848.54 502.073 5848.2C501.734 5847.85 501.482 5847.46 501.306 5847.03C501.128 5846.6 501.019 5846.13 500.878 5845.66L500.465 5844.22C500.18 5843.24 499.901 5842.22 499.615 5841.19C499.327 5840.16 499.044 5839.11 498.772 5838.05C498.496 5837 498.236 5835.94 497.986 5834.89L497.626 5833.33L497.291 5831.8C497.085 5830.83 496.888 5829.87 496.698 5828.89C496.518 5827.97 496.354 5827.09 496.206 5826.27L495.816 5824.05L495.654 5823.12C495.609 5822.83 495.538 5822.58 495.556 5822.32C495.587 5821.8 495.851 5821.31 496.137 5820.93C496.269 5820.74 496.41 5820.58 496.511 5820.48L496.68 5820.31Z" fill="#FF473E"/>
<path d="M495.099 5801.25C499.054 5802.96 500.836 5807.48 499.078 5811.34C497.321 5815.19 492.689 5816.93 488.734 5815.22C484.778 5813.5 482.996 5808.99 484.754 5805.13C486.512 5801.27 491.143 5799.54 495.099 5801.25ZM481.377 5791.1C480.258 5793.56 481.392 5796.43 483.91 5797.52C486.428 5798.61 489.376 5797.51 490.495 5795.05C491.614 5792.6 490.48 5789.72 487.962 5788.63C485.444 5787.54 482.496 5788.65 481.377 5791.1Z" fill="#2B3B47"/>
</g>
<g clip-path="url(#clip5_19_75)">
<path d="M922.092 4817.42L922.343 4817.32C922.424 4817.29 922.533 4817.24 922.647 4817.2L923.049 4817.06C923.203 4817 923.358 4816.95 923.538 4816.89C923.716 4816.84 923.914 4816.77 924.11 4816.71L924.753 4816.53C924.978 4816.47 925.203 4816.41 925.448 4816.35C926.508 4816.08 927.586 4815.88 928.674 4815.76C929.253 4815.69 929.831 4815.65 930.425 4815.63C931.008 4815.62 931.606 4815.62 932.19 4815.67C932.772 4815.71 933.35 4815.78 933.922 4815.89C934.484 4816 935.037 4816.15 935.577 4816.34C936.648 4816.71 937.641 4817.24 938.523 4817.93C938.967 4818.27 939.366 4818.68 939.778 4819.08C940.184 4819.48 940.591 4819.89 940.986 4820.33C941.793 4821.2 942.553 4822.12 943.262 4823.07C943.982 4824.03 944.652 4825.05 945.268 4826.09C945.574 4826.61 945.866 4827.14 946.145 4827.67C946.42 4828.21 946.682 4828.75 946.93 4829.3C947.419 4830.39 947.847 4831.48 948.205 4832.58C948.552 4833.63 948.846 4834.7 949.085 4835.78C949.547 4837.85 949.755 4839.75 949.818 4841.16L949.836 4841.67L949.844 4842.13L949.837 4842.86L949.817 4843.33L949.806 4843.5L949.635 4843.52L949.151 4843.55L948.397 4843.59L947.931 4843.6L947.411 4843.6C945.959 4843.58 944.002 4843.45 941.866 4843.07C940.749 4842.88 939.643 4842.63 938.551 4842.33C937.42 4842.02 936.278 4841.64 935.144 4841.2C934.575 4840.98 934.012 4840.74 933.455 4840.49C932.898 4840.24 932.344 4839.97 931.799 4839.69C930.71 4839.13 929.648 4838.51 928.636 4837.85C927.634 4837.19 926.668 4836.48 925.743 4835.72C925.285 4835.35 924.846 4834.97 924.417 4834.59C923.993 4834.2 923.566 4833.83 923.199 4833.41C922.457 4832.57 921.88 4831.62 921.463 4830.59C921.253 4830.07 921.082 4829.54 920.949 4829C920.817 4828.44 920.718 4827.88 920.655 4827.32C920.59 4826.75 920.565 4826.17 920.556 4825.6C920.558 4825.02 920.574 4824.45 920.626 4823.89C920.714 4822.82 920.878 4821.77 921.118 4820.72C921.174 4820.48 921.22 4820.26 921.276 4820.04L921.445 4819.41C921.493 4819.21 921.556 4819.02 921.609 4818.84C921.664 4818.67 921.706 4818.51 921.758 4818.36L921.892 4817.96C921.928 4817.85 921.972 4817.74 922.001 4817.66C922.061 4817.5 922.092 4817.42 922.092 4817.42Z" fill="#FFB636"/>
<path d="M903.902 4835.79L914.577 4845.84C915.315 4846.53 916.546 4846.01 916.528 4845.01L916.372 4836.41C916.367 4836.11 916.483 4835.83 916.695 4835.61L922.319 4829.93L903.301 4821.19L903.551 4835C903.554 4835.15 903.586 4835.29 903.646 4835.43C903.707 4835.56 903.794 4835.69 903.902 4835.79ZM934.047 4815.62L939.671 4809.94C939.883 4809.72 940.174 4809.6 940.479 4809.59L949.295 4809.44C950.321 4809.42 950.812 4808.21 950.074 4807.51L939.399 4797.46C939.18 4797.26 938.885 4797.14 938.58 4797.15L924.417 4797.39L934.047 4815.62Z" fill="#FF473E"/>
<path d="M879.102 4775.71L879.194 4775.7C879.254 4775.69 879.348 4775.68 879.463 4775.67C879.693 4775.65 880.049 4775.6 880.479 4775.57C881.362 4775.49 882.606 4775.43 884.105 4775.43C885.604 4775.44 887.357 4775.51 889.261 4775.7C889.743 4775.74 890.221 4775.8 890.717 4775.86C891.219 4775.92 891.709 4776 892.222 4776.08C893.245 4776.23 894.286 4776.42 895.349 4776.65C897.554 4777.13 899.726 4777.74 901.85 4778.49C904.037 4779.26 906.225 4780.19 908.354 4781.3C910.482 4782.4 912.56 4783.66 914.54 4785.08C916.521 4786.49 918.405 4788.06 920.172 4789.74C921.938 4791.43 923.59 4793.23 925.094 4795.13C925.469 4795.6 925.839 4796.08 926.193 4796.57C926.553 4797.05 926.898 4797.54 927.239 4798.03C927.917 4799.02 928.553 4800.03 929.151 4801.06C930.328 4803.07 931.363 4805.16 932.249 4807.31C933.089 4809.35 933.797 4811.44 934.368 4813.57C934.641 4814.59 934.883 4815.6 935.077 4816.58L935.226 4817.31C935.273 4817.55 935.312 4817.8 935.355 4818.04L935.478 4818.74L935.582 4819.44C935.855 4821.28 936.003 4822.97 936.07 4824.42C936.139 4825.87 936.124 4827.08 936.084 4827.93C936.075 4828.35 936.041 4828.7 936.029 4828.92C936.022 4829.03 936.011 4829.12 936.006 4829.18L935.998 4829.27C935.933 4829.94 935.393 4830.47 934.73 4830.55L934.639 4830.56C934.579 4830.57 934.487 4830.58 934.373 4830.59C934.146 4830.61 933.792 4830.66 933.366 4830.68C932.493 4830.75 931.256 4830.81 929.769 4830.79C928.28 4830.78 926.539 4830.69 924.644 4830.49L923.923 4830.41L923.196 4830.32C922.95 4830.28 922.698 4830.25 922.449 4830.22L921.697 4830.1C920.677 4829.94 919.641 4829.74 918.58 4829.51C916.378 4829.03 914.21 4828.42 912.087 4827.67C909.853 4826.88 907.676 4825.95 905.572 4824.87C904.504 4824.32 903.445 4823.74 902.408 4823.12C901.891 4822.8 901.373 4822.48 900.865 4822.15C900.352 4821.82 899.85 4821.48 899.351 4821.13C897.354 4819.73 895.45 4818.18 893.661 4816.52C891.871 4814.86 890.2 4813.08 888.68 4811.2C887.159 4809.32 885.793 4807.34 884.586 4805.3C883.382 4803.27 882.347 4801.17 881.479 4799.06C880.637 4797.02 879.932 4794.93 879.368 4792.79C879.097 4791.77 878.86 4790.76 878.667 4789.77C878.573 4789.27 878.471 4788.8 878.397 4788.31C878.317 4787.83 878.236 4787.36 878.176 4786.9C877.914 4785.05 877.777 4783.34 877.721 4781.88C877.664 4780.42 877.686 4779.21 877.736 4778.34C877.748 4777.92 877.785 4777.57 877.8 4777.35C877.808 4777.24 877.819 4777.14 877.825 4777.09L877.834 4777C877.905 4776.32 878.443 4775.8 879.102 4775.71Z" fill="#ADBBBC"/>
<path d="M916.461 4812.12L916.688 4812.03C916.829 4811.98 917.032 4811.92 917.258 4811.87C917.727 4811.76 918.3 4811.72 918.802 4811.89C919.054 4811.98 919.266 4812.14 919.521 4812.29L920.334 4812.8L922.283 4814.02C923.046 4814.5 923.807 4814.99 924.565 4815.48C925.408 4816.03 926.246 4816.58 927.08 4817.15L928.392 4818.04L929.724 4818.97C930.614 4819.61 931.514 4820.25 932.403 4820.91C933.289 4821.56 934.167 4822.22 935.039 4822.89C935.903 4823.55 936.755 4824.2 937.568 4824.84L938.771 4825.77C939.159 4826.08 939.561 4826.36 939.898 4826.69C940.237 4827.02 940.507 4827.39 940.697 4827.83C940.891 4828.26 941.022 4828.74 941.145 4829.2C941.372 4830.07 941.556 4830.94 941.696 4831.83C941.761 4832.24 941.813 4832.63 941.854 4833C941.896 4833.36 941.917 4833.72 941.946 4834.03C941.972 4834.35 941.976 4834.65 941.989 4834.9C941.999 4835.15 941.995 4835.38 941.998 4835.56C941.997 4835.74 941.99 4835.89 941.988 4835.99L941.981 4836.14L941.827 4836.15C941.728 4836.15 941.578 4836.17 941.391 4836.17C941.207 4836.18 940.972 4836.19 940.71 4836.19C940.453 4836.18 940.145 4836.19 939.822 4836.18C939.502 4836.16 939.137 4836.15 938.759 4836.12C938.379 4836.1 937.976 4836.06 937.555 4836.01C936.644 4835.91 935.738 4835.76 934.842 4835.57C934.366 4835.46 933.874 4835.35 933.423 4835.18C932.969 4835.01 932.571 4834.76 932.225 4834.44C931.877 4834.12 931.575 4833.74 931.244 4833.37L930.244 4832.23C929.562 4831.46 928.869 4830.66 928.163 4829.84C927.455 4829.02 926.742 4828.19 926.039 4827.34C925.332 4826.5 924.638 4825.64 923.958 4824.8L922.957 4823.53L921.992 4822.29C921.386 4821.49 920.788 4820.7 920.196 4819.89C919.63 4819.13 919.101 4818.4 918.615 4817.72L917.299 4815.87L916.75 4815.09C916.585 4814.85 916.411 4814.65 916.314 4814.4C916.118 4813.92 916.142 4813.36 916.237 4812.9C916.277 4812.68 916.337 4812.48 916.381 4812.34L916.461 4812.12Z" fill="#FF473E"/>
<path d="M906.778 4795.49C911.106 4795.42 914.676 4798.78 914.753 4803C914.829 4807.22 911.382 4810.7 907.054 4810.77C902.727 4810.85 899.156 4807.49 899.08 4803.27C899.004 4799.05 902.45 4795.57 906.778 4795.49ZM889.945 4791.94C889.994 4794.62 892.266 4796.76 895.021 4796.72C897.776 4796.67 899.97 4794.45 899.922 4791.77C899.873 4789.08 897.6 4786.94 894.845 4786.99C892.09 4787.04 889.897 4789.25 889.945 4791.94Z" fill="#2B3B47"/>
</g>
<g clip-path="url(#clip6_19_75)">
<path d="M509.348 4046.16L509.463 4046.4C509.499 4046.48 509.553 4046.58 509.6 4046.69L509.77 4047.07C509.836 4047.22 509.892 4047.37 509.964 4047.54C510.033 4047.71 510.113 4047.9 510.179 4048.09L510.407 4048.7C510.483 4048.92 510.55 4049.13 510.628 4049.37C510.964 4050.39 511.226 4051.42 511.413 4052.48C511.517 4053.04 511.586 4053.6 511.642 4054.17C511.686 4054.74 511.716 4055.32 511.704 4055.89C511.694 4056.46 511.648 4057.03 511.568 4057.59C511.486 4058.15 511.365 4058.69 511.205 4059.23C510.885 4060.29 510.4 4061.29 509.739 4062.18C509.412 4062.64 509.022 4063.05 508.636 4063.47C508.245 4063.89 507.843 4064.31 507.422 4064.72C506.57 4065.55 505.675 4066.34 504.738 4067.09C503.793 4067.84 502.793 4068.55 501.761 4069.21C501.244 4069.53 500.719 4069.85 500.186 4070.15C499.655 4070.45 499.116 4070.73 498.57 4071C497.481 4071.54 496.38 4072.02 495.282 4072.43C494.223 4072.82 493.145 4073.17 492.051 4073.46C489.959 4074.03 488.023 4074.34 486.577 4074.48L486.06 4074.52L485.595 4074.56L484.84 4074.59L484.356 4074.6L484.184 4074.6L484.157 4074.43L484.093 4073.96L484.018 4073.23L483.983 4072.78L483.954 4072.27C483.884 4070.86 483.914 4068.94 484.182 4066.84C484.319 4065.74 484.512 4064.65 484.759 4063.57C485.013 4062.46 485.337 4061.32 485.723 4060.19C485.918 4059.63 486.128 4059.07 486.352 4058.51C486.58 4057.95 486.821 4057.4 487.078 4056.85C487.595 4055.76 488.167 4054.69 488.795 4053.67C489.412 4052.66 490.083 4051.68 490.805 4050.74C491.158 4050.27 491.524 4049.82 491.891 4049.38C492.264 4048.95 492.624 4048.51 493.035 4048.13C493.848 4047.36 494.788 4046.75 495.819 4046.28C496.34 4046.05 496.877 4045.85 497.426 4045.69C497.985 4045.53 498.554 4045.41 499.129 4045.31C499.708 4045.22 500.303 4045.16 500.884 4045.12C501.478 4045.09 502.056 4045.08 502.64 4045.09C503.735 4045.12 504.827 4045.22 505.907 4045.4C506.157 4045.44 506.387 4045.47 506.616 4045.51L507.274 4045.64C507.474 4045.68 507.678 4045.73 507.86 4045.77C508.045 4045.81 508.204 4045.85 508.363 4045.89L508.776 4046C508.894 4046.03 509.006 4046.06 509.09 4046.09C509.26 4046.13 509.348 4046.16 509.348 4046.16Z" fill="#FFB636"/>
<path d="M489.52 4029.48L479.827 4040.43C479.157 4041.19 479.76 4042.36 480.783 4042.28L489.577 4041.65C489.881 4041.63 490.182 4041.73 490.413 4041.92L496.543 4047.08L504.433 4028.08L490.307 4029.09C490.156 4029.1 490.009 4029.14 489.874 4029.21C489.739 4029.27 489.619 4029.37 489.52 4029.48ZM511.859 4057.7L517.989 4062.86C518.22 4063.05 518.362 4063.33 518.385 4063.62L519.032 4072.2C519.107 4073.2 520.382 4073.61 521.052 4072.85L530.745 4061.9C530.944 4061.67 531.044 4061.38 531.021 4061.08L529.982 4047.31L511.859 4057.7Z" fill="#FF473E"/>
<path d="M549.651 4001.98L549.669 4002.07C549.68 4002.13 549.7 4002.22 549.718 4002.33C549.754 4002.55 549.823 4002.9 549.875 4003.31C550.005 4004.17 550.141 4005.38 550.22 4006.84C550.3 4008.3 550.323 4010.01 550.234 4011.87C550.219 4012.34 550.181 4012.81 550.147 4013.3C550.118 4013.79 550.061 4014.27 550.013 4014.78C549.914 4015.78 549.772 4016.8 549.598 4017.85C549.235 4020.02 548.728 4022.17 548.081 4024.28C547.412 4026.46 546.578 4028.64 545.568 4030.77C544.556 4032.9 543.381 4035 542.041 4037C540.704 4039.01 539.205 4040.93 537.578 4042.75C535.951 4044.56 534.199 4046.27 532.341 4047.84C531.876 4048.23 531.408 4048.62 530.928 4048.99C530.454 4049.37 529.967 4049.73 529.483 4050.09C528.508 4050.81 527.508 4051.48 526.495 4052.12C524.5 4053.38 522.42 4054.5 520.268 4055.48C518.224 4056.42 516.122 4057.22 513.974 4057.9C512.939 4058.22 511.926 4058.51 510.924 4058.76L510.187 4058.94C509.942 4059 509.694 4059.05 509.453 4059.11L508.737 4059.27L508.026 4059.41C506.158 4059.77 504.432 4060.01 502.951 4060.16C501.472 4060.31 500.234 4060.36 499.358 4060.37C498.932 4060.38 498.575 4060.37 498.347 4060.37C498.233 4060.37 498.139 4060.36 498.079 4060.36L497.987 4060.36C497.292 4060.33 496.728 4059.84 496.606 4059.2L496.589 4059.11C496.578 4059.05 496.559 4058.96 496.542 4058.85C496.51 4058.63 496.443 4058.29 496.396 4057.88C496.276 4057.03 496.149 4055.83 496.082 4054.38C496.014 4052.93 496.003 4051.23 496.103 4049.37L496.141 4048.67L496.198 4047.95C496.219 4047.71 496.235 4047.47 496.259 4047.22L496.339 4046.48C496.44 4045.48 496.588 4044.46 496.764 4043.42C497.134 4041.25 497.644 4039.1 498.29 4036.99C498.972 4034.77 499.808 4032.6 500.792 4030.49C501.292 4029.42 501.831 4028.36 502.414 4027.32C502.708 4026.79 503.005 4026.27 503.319 4025.76C503.626 4025.24 503.949 4024.73 504.279 4024.23C505.6 4022.21 507.076 4020.27 508.679 4018.43C510.281 4016.6 512.011 4014.87 513.852 4013.29C515.691 4011.7 517.643 4010.26 519.659 4008.97C521.676 4007.69 523.768 4006.56 525.875 4005.6C527.92 4004.67 530.026 4003.86 532.178 4003.19C533.215 4002.87 534.233 4002.59 535.237 4002.34C535.742 4002.22 536.222 4002.1 536.716 4002C537.205 4001.89 537.674 4001.79 538.151 4001.7C540.03 4001.35 541.768 4001.12 543.261 4000.98C544.753 4000.84 545.998 4000.8 546.885 4000.8C547.315 4000.79 547.675 4000.8 547.906 4000.81C548.022 4000.81 548.116 4000.81 548.177 4000.82L548.269 4000.82C548.964 4000.85 549.523 4001.35 549.651 4001.98Z" fill="#ADBBBC"/>
<path d="M514.461 4040.38L514.562 4040.6C514.619 4040.73 514.697 4040.93 514.758 4041.15C514.896 4041.6 514.972 4042.15 514.822 4042.65C514.748 4042.9 514.593 4043.11 514.451 4043.37L513.977 4044.19L512.84 4046.16C512.387 4046.93 511.93 4047.69 511.468 4048.46C510.953 4049.31 510.431 4050.16 509.902 4051L509.058 4052.33L508.179 4053.68C507.581 4054.58 506.968 4055.49 506.344 4056.39C505.726 4057.29 505.098 4058.18 504.462 4059.07C503.835 4059.95 503.22 4060.81 502.613 4061.64L501.723 4062.86C501.428 4063.26 501.163 4063.67 500.845 4064.01C500.53 4064.36 500.158 4064.64 499.721 4064.85C499.288 4065.07 498.809 4065.22 498.345 4065.37C497.47 4065.64 496.582 4065.86 495.684 4066.05C495.269 4066.14 494.872 4066.21 494.496 4066.27C494.122 4066.33 493.759 4066.37 493.441 4066.42C493.121 4066.46 492.814 4066.48 492.558 4066.51C492.298 4066.53 492.063 4066.54 491.88 4066.55C491.692 4066.56 491.541 4066.56 491.443 4066.57L491.289 4066.57L491.267 4066.42C491.256 4066.32 491.236 4066.18 491.218 4065.99C491.204 4065.82 491.178 4065.59 491.164 4065.33C491.154 4065.08 491.13 4064.78 491.127 4064.47C491.126 4064.16 491.114 4063.8 491.122 4063.43C491.128 4063.06 491.143 4062.66 491.17 4062.25C491.227 4061.36 491.328 4060.47 491.474 4059.59C491.553 4059.12 491.639 4058.63 491.792 4058.18C491.941 4057.73 492.174 4057.33 492.481 4056.98C492.786 4056.62 493.16 4056.3 493.518 4055.96L494.628 4054.92C495.379 4054.22 496.167 4053.5 496.966 4052.76C497.763 4052.03 498.58 4051.29 499.406 4050.56C500.23 4049.82 501.066 4049.1 501.894 4048.39L503.133 4047.34L504.356 4046.33C505.134 4045.7 505.917 4045.07 506.705 4044.45C507.459 4043.86 508.177 4043.3 508.841 4042.79L510.668 4041.41L511.431 4040.83C511.671 4040.66 511.866 4040.47 512.11 4040.37C512.593 4040.15 513.167 4040.14 513.645 4040.21C513.875 4040.24 514.083 4040.28 514.228 4040.32L514.461 4040.38Z" fill="#FF473E"/>
<path d="M530.944 4030.03C531.262 4034.24 528.02 4037.9 523.703 4038.21C519.386 4038.52 515.629 4035.36 515.312 4031.15C514.994 4026.94 518.236 4023.28 522.553 4022.97C526.869 4022.66 530.627 4025.82 530.944 4030.03ZM533.643 4013.44C530.895 4013.64 528.831 4015.97 529.033 4018.65C529.236 4021.33 531.627 4023.34 534.375 4023.15C537.123 4022.95 539.187 4020.62 538.984 4017.94C538.782 4015.26 536.391 4013.25 533.643 4013.44Z" fill="#2B3B47"/>
</g>
<g clip-path="url(#clip7_19_75)">
<path d="M928.124 3229.05L928.339 3228.89C928.409 3228.84 928.501 3228.77 928.6 3228.7L928.948 3228.46C929.08 3228.36 929.217 3228.28 929.374 3228.17C929.529 3228.07 929.702 3227.95 929.875 3227.85L930.444 3227.5C930.643 3227.38 930.845 3227.27 931.064 3227.15C932.011 3226.61 932.995 3226.14 934.01 3225.73C934.548 3225.51 935.095 3225.33 935.661 3225.15C936.22 3224.99 936.796 3224.84 937.372 3224.73C937.943 3224.61 938.521 3224.54 939.103 3224.49C939.674 3224.45 940.247 3224.45 940.819 3224.49C941.953 3224.56 943.054 3224.81 944.095 3225.25C944.618 3225.47 945.112 3225.75 945.619 3226.03C946.122 3226.31 946.628 3226.6 947.127 3226.92C948.145 3227.55 949.129 3228.23 950.074 3228.97C951.033 3229.7 951.957 3230.51 952.837 3231.35C953.275 3231.77 953.702 3232.2 954.118 3232.65C954.53 3233.09 954.93 3233.54 955.319 3234C956.091 3234.92 956.805 3235.87 957.45 3236.83C958.074 3237.75 958.651 3238.71 959.178 3239.69C960.192 3241.56 960.916 3243.33 961.366 3244.68L961.522 3245.16L961.655 3245.6L961.851 3246.31L961.962 3246.77L961.996 3246.94L961.836 3247L961.381 3247.16L960.663 3247.39L960.216 3247.52L959.716 3247.65C958.313 3248.02 956.391 3248.4 954.229 3248.6C953.099 3248.7 951.965 3248.75 950.831 3248.75C949.656 3248.74 948.452 3248.68 947.239 3248.55C946.63 3248.49 946.022 3248.41 945.417 3248.31C944.811 3248.21 944.205 3248.1 943.602 3247.98C942.398 3247.72 941.205 3247.4 940.046 3247.02C938.901 3246.65 937.775 3246.22 936.676 3245.73C936.133 3245.5 935.605 3245.25 935.087 3244.99C934.572 3244.73 934.058 3244.48 933.589 3244.17C932.644 3243.56 931.828 3242.79 931.142 3241.91C930.797 3241.47 930.485 3241 930.208 3240.51C929.928 3240.01 929.679 3239.49 929.462 3238.97C929.244 3238.44 929.06 3237.88 928.895 3237.34C928.737 3236.78 928.598 3236.23 928.491 3235.67C928.283 3234.62 928.151 3233.56 928.096 3232.49C928.083 3232.25 928.067 3232.02 928.059 3231.79L928.048 3231.14C928.042 3230.94 928.048 3230.74 928.051 3230.55C928.055 3230.37 928.054 3230.21 928.063 3230.05L928.082 3229.63C928.086 3229.51 928.099 3229.4 928.104 3229.31C928.117 3229.14 928.124 3229.05 928.124 3229.05Z" fill="#FFB636"/>
<path d="M915.652 3251.51L928.7 3258.4C929.601 3258.87 930.643 3258.05 930.351 3257.09L927.837 3248.85C927.75 3248.56 927.783 3248.25 927.928 3247.99L931.784 3241.05L911.059 3237.6L915.097 3250.84C915.14 3250.98 915.212 3251.11 915.307 3251.23C915.402 3251.34 915.52 3251.44 915.652 3251.51ZM939.146 3224.19L943.002 3217.25C943.147 3216.99 943.393 3216.79 943.686 3216.71L952.138 3214.26C953.121 3213.97 953.259 3212.67 952.358 3212.19L939.311 3205.3C939.042 3205.16 938.727 3205.13 938.434 3205.22L924.858 3209.15L939.146 3224.19Z" fill="#FF473E"/>
<path d="M875.241 3200.12L875.326 3200.08C875.382 3200.06 875.468 3200.02 875.576 3199.98C875.791 3199.9 876.121 3199.76 876.528 3199.62C877.357 3199.31 878.538 3198.92 879.983 3198.54C881.428 3198.15 883.137 3197.76 885.024 3197.45C885.5 3197.36 885.977 3197.3 886.472 3197.22C886.97 3197.15 887.465 3197.1 887.98 3197.03C889.007 3196.91 890.064 3196.83 891.15 3196.77C893.405 3196.65 895.666 3196.68 897.918 3196.84C900.238 3197.01 902.603 3197.34 904.957 3197.85C907.31 3198.35 909.659 3199.03 911.955 3199.87C914.253 3200.72 916.499 3201.73 918.664 3202.89C920.83 3204.06 922.916 3205.36 924.886 3206.79C925.379 3207.15 925.866 3207.51 926.341 3207.89C926.821 3208.26 927.289 3208.65 927.753 3209.03C928.678 3209.81 929.569 3210.62 930.426 3211.44C932.113 3213.08 933.684 3214.82 935.129 3216.66C936.5 3218.4 937.757 3220.23 938.892 3222.13C939.437 3223.05 939.946 3223.95 940.405 3224.86L940.748 3225.52C940.86 3225.74 940.965 3225.96 941.072 3226.18L941.385 3226.83L941.678 3227.48C942.446 3229.18 943.054 3230.77 943.518 3232.15C943.982 3233.53 944.3 3234.69 944.496 3235.53C944.602 3235.93 944.664 3236.27 944.714 3236.49C944.738 3236.6 944.752 3236.69 944.764 3236.75L944.78 3236.83C944.903 3237.5 944.526 3238.15 943.911 3238.4L943.826 3238.43C943.771 3238.46 943.685 3238.49 943.578 3238.53C943.365 3238.61 943.036 3238.75 942.633 3238.88C941.81 3239.18 940.634 3239.56 939.197 3239.93C937.759 3240.3 936.059 3240.68 934.178 3240.98L933.462 3241.09L932.735 3241.19C932.49 3241.22 932.239 3241.26 931.988 3241.29L931.232 3241.37C930.206 3241.49 929.153 3241.57 928.068 3241.62C925.814 3241.74 923.556 3241.71 921.305 3241.55C918.936 3241.37 916.582 3241.04 914.26 3240.55C913.08 3240.31 911.899 3240.02 910.728 3239.69C910.144 3239.52 909.557 3239.35 908.976 3239.16C908.392 3238.98 907.814 3238.78 907.236 3238.57C904.928 3237.75 902.668 3236.76 900.488 3235.62C898.307 3234.49 896.207 3233.21 894.226 3231.8C892.244 3230.38 890.383 3228.83 888.661 3227.19C886.941 3225.54 885.367 3223.79 883.952 3221.99C882.579 3220.24 881.323 3218.41 880.194 3216.5C879.65 3215.58 879.145 3214.67 878.686 3213.77C878.459 3213.31 878.23 3212.88 878.025 3212.43C877.816 3211.99 877.61 3211.57 877.424 3211.13C876.662 3209.42 876.062 3207.81 875.606 3206.42C875.149 3205.03 874.836 3203.85 874.647 3203C874.544 3202.6 874.483 3202.25 874.436 3202.03C874.412 3201.92 874.398 3201.83 874.387 3201.77L874.372 3201.68C874.255 3201.01 874.63 3200.37 875.241 3200.12Z" fill="#ADBBBC"/>
<path d="M921.242 3225.42L921.436 3225.28C921.559 3225.19 921.736 3225.08 921.942 3224.97C922.364 3224.74 922.904 3224.55 923.435 3224.59C923.701 3224.61 923.95 3224.71 924.238 3224.79L925.161 3225.06L927.373 3225.73C928.241 3225.99 929.108 3226.26 929.974 3226.54C930.937 3226.85 931.897 3227.16 932.855 3227.49L934.366 3228.01L935.904 3228.56C936.936 3228.93 937.981 3229.32 939.019 3229.72C940.051 3230.12 941.079 3230.53 942.103 3230.94C943.116 3231.35 944.115 3231.75 945.074 3232.15L946.489 3232.74C946.949 3232.94 947.413 3233.1 947.828 3233.33C948.245 3233.56 948.608 3233.85 948.912 3234.22C949.218 3234.59 949.475 3235.01 949.719 3235.42C950.177 3236.2 950.595 3237 950.973 3237.81C951.148 3238.19 951.306 3238.55 951.447 3238.9C951.589 3239.24 951.706 3239.58 951.82 3239.87C951.931 3240.16 952.017 3240.45 952.099 3240.69C952.179 3240.93 952.238 3241.15 952.29 3241.33C952.339 3241.5 952.373 3241.65 952.398 3241.74L952.432 3241.89L952.287 3241.94C952.194 3241.97 952.052 3242.02 951.874 3242.08C951.697 3242.13 951.475 3242.2 951.223 3242.27C950.973 3242.33 950.679 3242.42 950.364 3242.49C950.051 3242.56 949.696 3242.64 949.324 3242.72C948.951 3242.79 948.553 3242.86 948.134 3242.92C947.227 3243.06 946.314 3243.15 945.398 3243.2C944.911 3243.23 944.407 3243.25 943.925 3243.2C943.44 3243.16 942.989 3243.02 942.567 3242.8C942.145 3242.59 941.749 3242.3 941.329 3242.03L940.052 3241.2C939.184 3240.63 938.294 3240.04 937.388 3239.43C936.482 3238.83 935.565 3238.21 934.655 3237.58C933.743 3236.95 932.838 3236.31 931.951 3235.67L930.639 3234.72L929.366 3233.77C928.565 3233.16 927.769 3232.55 926.978 3231.93C926.223 3231.34 925.512 3230.78 924.858 3230.25L923.079 3228.81L922.338 3228.21C922.112 3228.02 921.889 3227.87 921.729 3227.66C921.407 3227.25 921.277 3226.7 921.242 3226.23C921.219 3226.01 921.221 3225.8 921.226 3225.65L921.242 3225.42Z" fill="#FF473E"/>
<path d="M907.342 3211.93C911.49 3210.73 915.854 3213.03 917.088 3217.08C918.322 3221.12 915.959 3225.38 911.81 3226.58C907.661 3227.79 903.297 3225.48 902.064 3221.44C900.83 3217.39 903.193 3213.14 907.342 3211.93ZM890.148 3212.91C890.934 3215.49 893.711 3216.95 896.352 3216.19C898.993 3215.42 900.497 3212.71 899.712 3210.14C898.927 3207.56 896.149 3206.1 893.508 3206.86C890.867 3207.63 889.363 3210.34 890.148 3212.91Z" fill="#2B3B47"/>
</g>
<rect x="12.4434" y="2937.84" width="901.335" height="35.7175" rx="3" transform="rotate(17 12.4434 2937.84)" fill="white"/>
<defs>
<clipPath id="clip0_19_75">
<rect width="72.5375" height="73.7762" fill="white" transform="matrix(0.414686 -0.909964 0.917581 0.39755 405.5 2877.1)"/>
</clipPath>
<clipPath id="clip1_19_75">
<rect width="72.23" height="74.0772" fill="white" transform="matrix(-0.0180826 -0.999837 0.999852 -0.0171917 836.806 1888.08)"/>
</clipPath>
<clipPath id="clip2_19_75">
<rect width="74.068" height="72.2395" fill="white" transform="matrix(0.997436 -0.071568 0.0752573 0.997164 435.5 1045.7)"/>
</clipPath>
<clipPath id="clip3_19_75">
<rect width="72.3814" height="73.9293" fill="white" transform="matrix(-0.291757 -0.956493 0.96043 -0.278521 852.618 310.209)"/>
</clipPath>
<clipPath id="clip4_19_75">
<rect width="72.5375" height="73.7762" fill="white" transform="matrix(0.414686 -0.909964 0.917581 0.39755 446.5 5836.1)"/>
</clipPath>
<clipPath id="clip5_19_75">
<rect width="72.23" height="74.0772" fill="white" transform="matrix(-0.0180826 -0.999837 0.999852 -0.0171917 877.806 4847.08)"/>
</clipPath>
<clipPath id="clip6_19_75">
<rect width="74.068" height="72.2395" fill="white" transform="matrix(0.997436 -0.071568 0.0752573 0.997164 476.5 4004.7)"/>
</clipPath>
<clipPath id="clip7_19_75">
<rect width="72.3814" height="73.9293" fill="white" transform="matrix(-0.291757 -0.956493 0.96043 -0.278521 893.618 3269.21)"/>
</clipPath>
</defs>
</svg>
