<svg width="487" height="487" viewBox="0 0 487 487" fill="none" xmlns="http://www.w3.org/2000/svg">
<path d="M103.27 145.547C102.893 147.836 103.023 150.179 103.649 152.413C104.276 154.646 105.385 156.715 106.898 158.474C108.411 160.232 110.291 161.638 112.405 162.591C114.52 163.544 116.818 164.022 119.138 163.991L158.007 277.091L182.809 260.046L134.931 146.77C134.621 142.877 132.893 139.233 130.076 136.528C127.258 133.824 123.547 132.246 119.644 132.096C115.741 131.945 111.919 133.231 108.901 135.71C105.883 138.189 103.88 141.689 103.27 145.547Z" fill="#A0616A"/>
<path d="M306.144 183.814C288.883 203.452 246.321 238.061 211.258 261.892C203.679 267.043 196.446 271.683 189.898 275.566C185.475 278.188 181.361 280.457 177.658 282.309C175.173 283.547 172.459 284.258 169.686 284.399C166.913 284.539 164.14 284.106 161.543 283.125C158.945 282.144 156.578 280.638 154.589 278.7C152.601 276.762 151.034 274.434 149.987 271.863L125.709 213.127L134.109 207.559L154.821 193.82L159.525 190.708L178.948 236.966L199.429 220.526L212.144 210.318L270.109 163.801L275.108 162.317L286.772 173.699L295.021 181.753L302.78 183.1C303.939 183.302 305.063 183.54 306.144 183.814Z" fill="#D2544A"/>
<path d="M335.126 246.778L332.95 396.199L157.198 391.156L185.266 329.2C185.064 327.212 197.585 313.258 197.513 311.19C197.296 305.131 201.821 299.519 202.555 293.18C204.054 280.104 195.474 230.727 199.429 220.526C201.114 215.971 203.272 211.605 205.869 207.501C208.117 204.101 210.422 201.81 212.627 200.981L219.125 185.838L224.888 177.193L270.109 163.801L275.108 162.317L286.772 173.699L295.021 181.753L302.779 183.1C303.939 183.302 305.063 183.54 306.144 183.814C311.348 185.014 316.199 187.417 320.307 190.831C333.851 202.336 335.429 223.977 335.126 246.778Z" fill="#D2544A"/>
<path d="M436.06 395.077C431.103 401.294 425.851 407.254 420.304 412.957L401.3 412.972L299.095 413.087L280.695 413.109L268.463 413.123L250.265 413.137L236.267 413.152L210.412 413.181L195.16 413.202L163.044 413.231L147.714 413.253L105.231 413.296L78.5469 413.325L71.386 413.332C69.7939 411.704 68.2258 410.052 66.6817 408.375C62.8347 404.204 59.1341 399.903 55.5801 395.473L70.4062 395.458L80.5064 395.451L103.891 395.422L149.018 395.379L164.269 395.365L170.436 395.358H170.457L175.299 395.35L177.467 395.343L183.021 395.336H185.37L201.839 395.322L237.362 395.278L252.995 395.264L267.965 395.25L281.999 395.235L302.135 395.214L409.678 395.105L436.06 395.077Z" fill="#CCCCCC"/>
<path d="M192.902 170.718L192.863 170.722C190.785 170.915 188.715 170.275 187.108 168.942C185.502 167.609 184.491 165.693 184.298 163.615L180.201 119.886C179.459 112.052 180.3 104.149 182.674 96.6471C187.327 82.0051 197.451 69.7234 210.936 62.3616C217.899 58.5704 225.557 56.2282 233.45 55.4763C265.738 52.4001 277.538 59.1249 297.483 108.37C317.429 157.615 301.586 152.165 301.586 152.165C301.686 153.219 301.573 154.283 301.253 155.292C300.625 157.26 299.261 158.911 297.445 159.897C296.514 160.403 295.49 160.715 294.435 160.817C256.263 170.52 217.746 180.733 192.896 170.719L192.902 170.718Z" fill="#2F2E41"/>
<path d="M263.951 96.9107C268.742 104 271.326 112.351 271.374 120.908C271.423 129.465 268.934 137.844 264.223 144.988C259.512 152.132 252.79 157.719 244.906 161.044C237.021 164.37 228.328 165.284 219.924 163.672C214.361 162.623 209.062 160.48 204.333 157.368C199.603 154.256 195.539 150.236 192.374 145.542C187.593 138.455 185.017 130.111 184.971 121.561C184.925 113.012 187.411 104.64 192.117 97.5021C196.822 90.3638 203.535 84.7785 211.411 81.4504C219.286 78.1223 227.97 77.2003 236.368 78.8008C241.936 79.8437 247.241 81.9818 251.976 85.0908C256.71 88.1998 260.781 92.218 263.951 96.9123L263.951 96.9107Z" fill="#9E616A"/>
<path d="M166.665 124.744C166.079 118.549 166.744 112.298 168.621 106.365C169.057 91.8506 173.268 78.7041 190.971 79.2559C196.443 76.2791 202.458 74.4334 208.658 73.8285L217.406 72.9647C217.504 72.9549 217.603 72.9454 217.701 72.9363C223.762 72.3722 229.874 73.0074 235.69 74.8057C241.505 76.6039 246.909 79.53 251.594 83.4168C256.278 87.3036 260.152 92.0751 262.992 97.4587C265.833 102.842 267.585 108.733 268.149 114.794L268.231 115.669L249.723 117.479L241.757 100.433L242.15 118.223L232.591 119.161L228.574 110.561L228.77 119.53C214.577 132.031 193.055 132.686 166.755 125.621L166.665 124.744Z" fill="#2F2E41"/>
<path d="M225.868 166.239C225.71 167.68 225.96 169.136 226.589 170.442C226.906 171.111 227.315 171.732 227.805 172.287C228.223 172.76 228.696 173.182 229.214 173.543C230.747 174.611 232.611 175.097 234.47 174.915C234.586 174.903 234.702 174.889 234.817 174.873C234.932 174.856 235.048 174.837 235.163 174.816C235.279 174.795 235.394 174.771 235.508 174.744C235.623 174.717 235.737 174.687 235.852 174.656L242.312 172.846L249.552 152.66L251.211 170.373L280.584 162.195L273.542 87.0305L223.478 91.9636L224.851 93.2858C229.413 97.7262 232.661 103.339 234.239 109.507C235.805 115.757 236.288 122.229 235.668 128.643C235.088 135.128 233.888 141.542 232.082 147.797C230.51 153.336 228.621 158.78 226.423 164.102C226.139 164.785 225.952 165.504 225.868 166.239Z" fill="#2F2E41"/>
<path d="M232.544 403.222C231.683 403.222 230.833 403.029 230.056 402.66L91.3617 406.198C90.2974 405.694 89.4111 404.879 88.8197 403.861C88.2284 402.842 87.9599 401.668 88.0497 400.494C88.1394 399.32 88.5832 398.201 89.3225 397.284C90.0617 396.367 91.0617 395.696 92.1902 395.36L182.928 368.305C183.867 368.025 184.863 367.987 185.821 368.194L326.176 385.301C327.418 385.57 328.539 386.237 329.366 387.202C330.193 388.166 330.681 389.375 330.757 390.644C330.833 391.912 330.491 393.171 329.784 394.227C329.078 395.283 328.045 396.079 326.844 396.493L234.444 402.902C233.833 403.114 233.191 403.222 232.544 403.222Z" fill="#3F3D56"/>
<path d="M237.645 393.568C237.019 393.568 236.403 393.408 235.856 393.102L123.216 398.364C122.577 398.006 122.06 397.463 121.733 396.806C121.407 396.149 121.285 395.41 121.385 394.683C121.485 393.956 121.801 393.277 122.293 392.732C122.784 392.188 123.428 391.805 124.141 391.632L164.919 381.734C165.555 381.58 166.221 381.6 166.848 381.791L271.562 381.665C272.308 381.893 272.961 382.354 273.425 382.98C273.89 383.606 274.142 384.364 274.145 385.144C274.148 385.923 273.901 386.683 273.441 387.313C272.98 387.942 272.331 388.407 271.587 388.64L238.734 393.401C238.382 393.512 238.014 393.568 237.645 393.568Z" fill="#2F2E41"/>
<path d="M225.788 387.564C227.738 388.821 229.94 389.635 232.238 389.949C234.536 390.263 236.876 390.07 239.091 389.382C241.307 388.694 243.344 387.529 245.061 385.968C246.777 384.408 248.13 382.49 249.025 380.35L368.251 389.715L362.487 360.178L239.515 359.007C235.82 357.741 231.789 357.875 228.186 359.383C224.584 360.891 221.659 363.669 219.967 367.189C218.275 370.709 217.933 374.727 219.006 378.482C220.079 382.238 222.492 385.469 225.788 387.564Z" fill="#A0616A"/>
<path d="M296.209 195.203C296.209 195.203 314.22 180.795 335.832 206.73C350.407 224.22 378.523 329.953 380.855 373.767C381.002 376.539 380.575 379.312 379.601 381.912C378.626 384.512 377.125 386.882 375.192 388.875C373.259 390.867 370.935 392.439 368.366 393.492C365.796 394.544 363.038 395.054 360.262 394.991L296.714 393.885L289.607 353.938L339.78 354.532L296.209 195.203Z" fill="#D2544A"/>
<path d="M224.83 403.238C222.649 403.237 220.492 402.8 218.483 401.953L89.9304 404.887C86.5377 403.472 83.7214 400.954 81.9368 397.74C80.1523 394.527 79.5037 390.805 80.0961 387.177L75.3193 274.28C75.9528 270.247 78.0753 266.599 81.2677 264.055C84.4601 261.511 88.4903 260.256 92.5625 260.539L211.909 265.489C214.199 265.639 216.433 266.269 218.465 267.338C220.497 268.407 222.281 269.892 223.702 271.695C225.123 273.498 226.15 275.579 226.715 277.804C227.28 280.03 227.37 282.349 226.981 284.611L240.964 389.625C240.307 393.43 238.328 396.881 235.377 399.371C232.426 401.861 228.691 403.231 224.83 403.238Z" fill="#3F3D56"/>
<path d="M127.215 67.121L73.5653 66.9697C72.1272 66.968 70.7471 67.5366 69.7275 68.5507C68.708 69.5649 68.1321 70.942 68.1262 72.38L67.9317 143.42C67.9286 144.857 68.496 146.236 69.5091 147.254C70.5222 148.273 71.8982 148.847 73.3348 148.852L103.095 148.938L126.991 149.003C128.429 149.006 129.809 148.437 130.827 147.423C131.846 146.408 132.42 145.031 132.423 143.593L132.438 139.393L132.625 72.5602C132.628 71.1217 132.06 69.7409 131.045 68.7211C130.031 67.7012 128.653 67.1258 127.215 67.121Z" fill="#E6E6E6"/>
<path d="M123.433 71.3643L77.3261 71.2346C75.9797 71.2329 74.6876 71.765 73.7328 72.7144C72.7781 73.6637 72.2387 74.9528 72.2327 76.2991L72.1031 121.973C72.094 127.972 74.4644 133.729 78.6943 137.981C82.9242 142.234 88.6682 144.636 94.6664 144.659L103.427 144.681L123.231 144.738C124.578 144.741 125.87 144.21 126.825 143.26C127.78 142.31 128.319 141.021 128.324 139.674L128.339 135.078L128.497 76.4576C128.5 75.1109 127.968 73.818 127.019 72.8631C126.069 71.9081 124.779 71.369 123.433 71.3643Z" fill="white"/>
<path d="M118.253 102.573H82.3041C82.0208 102.573 81.7402 102.628 81.4784 102.737C81.2166 102.845 80.9788 103.004 80.7784 103.204C80.5781 103.405 80.4191 103.643 80.3107 103.904C80.2023 104.166 80.1465 104.447 80.1465 104.73C80.1465 105.013 80.2023 105.294 80.3107 105.556C80.4191 105.818 80.5781 106.055 80.7784 106.256C80.9788 106.456 81.2166 106.615 81.4784 106.724C81.7402 106.832 82.0208 106.888 82.3041 106.888H118.253C118.825 106.888 119.374 106.66 119.778 106.256C120.183 105.851 120.41 105.302 120.41 104.73C120.41 104.158 120.183 103.609 119.778 103.204C119.374 102.8 118.825 102.573 118.253 102.573Z" fill="#D2544A"/>
<path d="M90.2071 90.7433H82.3041C81.7319 90.7433 81.1831 90.9706 80.7785 91.3752C80.3738 91.7799 80.1465 92.3287 80.1465 92.9009C80.1465 93.4732 80.3738 94.022 80.7785 94.4266C81.1831 94.8312 81.7319 95.0586 82.3041 95.0586H90.2071C90.7793 95.0586 91.3281 94.8312 91.7328 94.4266C92.1374 94.022 92.3647 93.4732 92.3647 92.9009C92.3647 92.3287 92.1374 91.7799 91.7328 91.3752C91.3281 90.9706 90.7793 90.7433 90.2071 90.7433Z" fill="#D2544A"/>
<path d="M118.253 121.541H82.3041C81.7319 121.541 81.1831 121.768 80.7784 122.173C80.3738 122.578 80.1465 123.126 80.1465 123.699C80.1465 124.271 80.3738 124.82 80.7784 125.224C81.1831 125.629 81.7319 125.856 82.3041 125.856H118.253C118.825 125.856 119.374 125.629 119.778 125.224C120.183 124.82 120.41 124.271 120.41 123.699C120.41 123.126 120.183 122.578 119.778 122.173C119.374 121.768 118.825 121.541 118.253 121.541Z" fill="#D2544A"/>
<path d="M118.253 112.06H82.3039C81.7326 112.06 81.1848 112.287 80.7808 112.691C80.3768 113.095 80.1499 113.643 80.1499 114.214C80.1499 114.786 80.3768 115.334 80.7808 115.738C81.1848 116.142 81.7326 116.369 82.3039 116.369H118.253C118.824 116.369 119.372 116.142 119.776 115.738C120.18 115.334 120.407 114.786 120.407 114.214C120.407 113.643 120.18 113.095 119.776 112.691C119.372 112.287 118.824 112.06 118.253 112.06Z" fill="#D2544A"/>
<path d="M111.267 98.3729C108.743 98.3729 106.275 97.6243 104.176 96.2219C102.077 94.8195 100.441 92.8261 99.4755 90.494C98.5094 88.1618 98.2567 85.5956 98.7491 83.1197C99.2416 80.6439 100.457 78.3698 102.242 76.5848C104.027 74.7998 106.301 73.5843 108.777 73.0918C111.253 72.5993 113.819 72.8521 116.151 73.8181C118.483 74.7841 120.477 76.42 121.879 78.5189C123.282 80.6178 124.03 83.0854 124.03 85.6097C124.026 88.9935 122.68 92.2376 120.288 94.6304C117.895 97.0231 114.651 98.369 111.267 98.3729ZM111.267 73.7335C108.918 73.7335 106.622 74.43 104.669 75.735C102.716 77.04 101.194 78.8948 100.295 81.0649C99.396 83.2349 99.1608 85.6229 99.619 87.9266C100.077 90.2304 101.208 92.3465 102.869 94.0074C104.53 95.6684 106.646 96.7995 108.95 97.2577C111.254 97.716 113.642 97.4808 115.812 96.5819C117.982 95.683 119.837 94.1608 121.142 92.2078C122.447 90.2548 123.143 87.9586 123.143 85.6097C123.14 82.4611 121.887 79.4424 119.661 77.2159C117.434 74.9895 114.416 73.7371 111.267 73.7335Z" fill="#D2544A"/>
<path d="M116.627 90.5534C115.746 86.0019 113.91 81.6889 111.24 77.8985C111.18 77.8003 111.095 77.7191 110.995 77.6628C110.894 77.6065 110.781 77.5769 110.666 77.5769C110.55 77.5769 110.437 77.6065 110.336 77.6628C110.236 77.7191 110.151 77.8003 110.091 77.8985C107.766 81.9653 106.28 86.4569 105.721 91.1078C105.617 91.9558 106.949 91.9483 107.051 91.1078C107.238 89.6006 107.529 88.1081 107.923 86.6413C107.974 86.6312 108.024 86.616 108.072 86.5958C109.841 85.7076 111.839 85.3821 113.799 85.6631C113.816 85.6657 113.832 85.662 113.849 85.6636C114.497 87.3656 114.997 89.1198 115.344 90.9071C115.507 91.7469 116.789 91.3913 116.627 90.5534ZM108.402 85.0097C109.013 83.1152 109.79 81.2786 110.725 79.5215C111.715 81.0336 112.574 82.6271 113.294 84.2847C111.63 84.1596 109.959 84.4073 108.402 85.0097Z" fill="#D2544A"/>
</svg>
