<svg width="382" height="360" viewBox="0 0 382 360" fill="none" xmlns="http://www.w3.org/2000/svg">
<path d="M48.2699 91.5467C47.8929 93.8355 48.0224 96.1793 48.6492 98.4127C49.276 100.646 50.3849 102.715 51.8977 104.474C53.4105 106.232 55.2906 107.638 57.4053 108.591C59.5201 109.544 61.8182 110.022 64.1377 109.991L103.007 223.091L127.809 206.046L79.931 92.7703C79.6208 88.8771 77.8933 85.2329 75.0758 82.5283C72.2583 79.8236 68.5466 78.2465 64.644 78.0957C60.7413 77.9448 56.9189 79.2308 53.9011 81.7099C50.8832 84.189 48.8796 87.689 48.2699 91.5467Z" fill="#A0616A"/>
<path d="M251.144 129.814C233.883 149.452 191.321 184.061 156.258 207.892C148.679 213.043 141.446 217.683 134.898 221.566C130.474 224.188 126.361 226.457 122.658 228.309C120.173 229.547 117.458 230.258 114.685 230.399C111.912 230.539 109.14 230.106 106.543 229.125C103.945 228.144 101.578 226.638 99.5893 224.7C97.6008 222.762 96.034 220.434 94.9868 217.863L70.7089 159.127L79.1089 153.559L99.8208 139.82L104.525 136.708L123.947 182.966L144.429 166.526L157.144 156.318L215.109 109.801L220.108 108.317L231.772 119.699L240.021 127.753L247.779 129.1C248.939 129.302 250.063 129.54 251.144 129.814Z" fill="#00807E"/>
<path d="M280.126 192.778L277.95 342.199L102.198 337.156L130.266 275.2C130.064 273.212 142.585 259.258 142.513 257.19C142.296 251.131 146.821 245.519 147.555 239.18C149.054 226.104 140.474 176.727 144.429 166.526C146.114 161.971 148.272 157.605 150.869 153.501C153.117 150.101 155.422 147.81 157.627 146.981L164.125 131.838L169.888 123.193L215.109 109.801L220.108 108.317L231.772 119.699L240.021 127.753L247.779 129.1C248.939 129.302 250.063 129.54 251.144 129.814C256.348 131.014 261.199 133.417 265.307 136.831C278.851 148.336 280.429 169.977 280.126 192.778Z" fill="#00807E"/>
<path d="M381.06 341.077C376.103 347.294 370.851 353.254 365.304 358.957L346.3 358.972L244.094 359.087L225.695 359.109L213.462 359.123L195.265 359.137L181.267 359.152L155.411 359.181L140.16 359.202L108.044 359.231L92.7138 359.253L50.2309 359.296L23.5468 359.325L16.3858 359.332C14.7937 357.704 13.2256 356.052 11.6815 354.375C7.83453 350.204 4.134 345.903 0.579956 341.473L15.4061 341.458L25.5063 341.451L48.8909 341.422L94.0177 341.379L109.269 341.365L115.436 341.358H115.457L120.298 341.35L122.467 341.343L128.021 341.336H130.37L146.838 341.322L182.362 341.278L197.995 341.264L212.965 341.25L226.999 341.235L247.135 341.214L354.678 341.105L381.06 341.077Z" fill="#CCCCCC"/>
<path d="M137.902 116.718L137.863 116.722C135.785 116.915 133.715 116.275 132.108 114.942C130.502 113.609 129.491 111.693 129.298 109.615L125.201 65.8859C124.459 58.0522 125.3 50.1493 127.674 42.6471C132.327 28.0051 142.451 15.7234 155.936 8.36156C162.899 4.57035 170.557 2.22821 178.45 1.47628C210.738 -1.59988 222.538 5.12488 242.483 54.37C262.429 103.615 246.587 98.1654 246.587 98.1654C246.686 99.2193 246.573 100.283 246.253 101.292C245.625 103.26 244.261 104.911 242.446 105.897C241.514 106.403 240.49 106.715 239.435 106.817C201.263 116.52 162.746 126.733 137.896 116.719L137.902 116.718Z" fill="#2F2E41"/>
<path d="M208.951 42.9107C213.742 50.0004 216.326 58.351 216.374 66.908C216.423 75.4649 213.934 83.8444 209.223 90.988C204.513 98.1316 197.79 103.719 189.906 107.044C182.021 110.37 173.328 111.284 164.924 109.672C159.361 108.623 154.062 106.48 149.333 103.368C144.604 100.256 140.539 96.2365 137.375 91.5424C132.593 84.4551 130.017 76.1107 129.971 67.5613C129.925 59.0119 132.412 50.6403 137.117 43.5021C141.822 36.3638 148.536 30.7785 156.411 27.4504C164.286 24.1223 172.97 23.2003 181.368 24.8008C186.936 25.8437 192.241 27.9818 196.976 31.0908C201.711 34.1998 205.781 38.218 208.951 42.9123L208.951 42.9107Z" fill="#9E616A"/>
<path d="M111.665 70.7441C111.079 64.5485 111.744 58.2982 113.621 52.3649C114.057 37.8506 118.268 24.7041 135.971 25.2559C141.443 22.279 147.458 20.4333 153.658 19.8285L162.406 18.9646C162.504 18.9548 162.603 18.9454 162.701 18.9362C168.762 18.3721 174.874 19.0074 180.69 20.8056C186.505 22.6039 191.909 25.5299 196.594 29.4167C201.278 33.3036 205.152 38.075 207.992 43.4586C210.833 48.8423 212.585 54.7327 213.149 60.7935L213.231 61.6694L194.723 63.4788L186.757 46.4325L187.15 64.2227L177.591 65.1609L173.574 56.5607L173.77 65.5304C159.577 78.0307 138.055 78.6859 111.755 71.6208L111.665 70.7441Z" fill="#2F2E41"/>
<path d="M170.868 112.239C170.71 113.68 170.96 115.136 171.589 116.442C171.906 117.111 172.316 117.732 172.805 118.287C173.224 118.76 173.697 119.182 174.214 119.543C175.748 120.611 177.611 121.097 179.47 120.915C179.586 120.903 179.702 120.889 179.817 120.873C179.933 120.856 180.048 120.837 180.163 120.816C180.279 120.795 180.394 120.771 180.508 120.744C180.623 120.717 180.738 120.687 180.853 120.656L187.312 118.846L194.552 98.6603L196.211 116.373L225.585 108.195L218.543 33.0305L168.478 37.9636L169.851 39.2858C174.413 43.7262 177.661 49.3392 179.239 55.507C180.805 61.7571 181.288 68.2293 180.668 74.6427C180.088 81.1276 178.888 87.5419 177.082 93.7974C175.511 99.3365 173.621 104.78 171.423 110.102C171.139 110.785 170.952 111.504 170.868 112.239Z" fill="#2F2E41"/>
<path d="M177.544 349.222C176.683 349.222 175.833 349.029 175.056 348.66L36.3618 352.198C35.2975 351.694 34.4112 350.879 33.8199 349.861C33.2285 348.842 32.96 347.668 33.0498 346.494C33.1395 345.32 33.5834 344.201 34.3226 343.284C35.0619 342.367 36.0618 341.696 37.1903 341.36L127.928 314.305C128.868 314.025 129.863 313.987 130.821 314.194L271.177 331.301C272.419 331.57 273.539 332.237 274.366 333.202C275.193 334.166 275.681 335.375 275.757 336.644C275.833 337.912 275.491 339.171 274.785 340.227C274.078 341.283 273.045 342.079 271.844 342.493L179.444 348.902C178.833 349.114 178.191 349.222 177.544 349.222Z" fill="#3F3D56"/>
<path d="M182.645 339.568C182.019 339.568 181.403 339.408 180.856 339.102L68.2163 344.364C67.5766 344.006 67.0598 343.463 66.7332 342.806C66.4066 342.149 66.2853 341.41 66.385 340.683C66.4848 339.956 66.801 339.277 67.2926 338.732C67.7841 338.188 68.4281 337.805 69.1408 337.632L109.919 327.734C110.555 327.58 111.221 327.6 111.848 327.791L216.562 327.665C217.308 327.893 217.961 328.354 218.425 328.98C218.89 329.606 219.142 330.364 219.145 331.144C219.148 331.923 218.901 332.683 218.441 333.313C217.98 333.942 217.331 334.407 216.587 334.64L183.734 339.401C183.382 339.512 183.014 339.568 182.645 339.568Z" fill="#2F2E41"/>
<path d="M170.788 333.564C172.738 334.821 174.94 335.635 177.238 335.949C179.536 336.263 181.876 336.07 184.091 335.382C186.307 334.694 188.344 333.529 190.061 331.968C191.777 330.408 193.13 328.49 194.025 326.35L313.251 335.715L307.487 306.178L184.515 305.007C180.82 303.741 176.789 303.875 173.186 305.383C169.584 306.891 166.659 309.669 164.967 313.189C163.275 316.709 162.933 320.727 164.006 324.482C165.079 328.238 167.492 331.469 170.788 333.564Z" fill="#A0616A"/>
<path d="M241.209 141.203C241.209 141.203 259.22 126.795 280.832 152.73C295.407 170.22 323.524 275.953 325.855 319.767C326.002 322.539 325.575 325.312 324.601 327.912C323.626 330.512 322.126 332.882 320.192 334.875C318.259 336.867 315.935 338.439 313.366 339.492C310.796 340.544 308.038 341.054 305.262 340.991L241.714 339.885L234.608 299.938L284.78 300.532L241.209 141.203Z" fill="#00807E"/>
<path d="M169.83 349.238C167.65 349.237 165.492 348.8 163.483 347.953L34.9306 350.887C31.5379 349.472 28.7216 346.954 26.937 343.74C25.1524 340.527 24.5038 336.805 25.0962 333.177L20.3195 220.28C20.9529 216.247 23.0754 212.599 26.2678 210.055C29.4602 207.511 33.4904 206.256 37.5627 206.539L156.909 211.489C159.2 211.639 161.433 212.269 163.465 213.338C165.497 214.407 167.281 215.892 168.702 217.695C170.124 219.498 171.15 221.579 171.715 223.804C172.28 226.03 172.371 228.349 171.981 230.611L185.964 335.625C185.307 339.43 183.328 342.881 180.377 345.371C177.426 347.861 173.691 349.231 169.83 349.238Z" fill="#3F3D56"/>
<path d="M72.2145 13.121L18.5653 12.9697C17.1272 12.968 15.7471 13.5365 14.7275 14.5507C13.708 15.5649 13.1321 16.9419 13.1262 18.38L12.9317 89.42C12.9286 90.8566 13.496 92.2356 14.5091 93.2541C15.5222 94.2727 16.8982 94.8474 18.3348 94.852L48.0951 94.9384L71.9912 95.0032C73.4289 95.0059 74.8088 94.4374 75.8274 93.4228C76.846 92.4082 77.42 91.0306 77.4231 89.5929L77.4375 85.3929L77.6248 18.5601C77.6277 17.1216 77.0596 15.7409 76.0451 14.721C75.0307 13.7012 73.653 13.1257 72.2145 13.121Z" fill="#E6E6E6"/>
<path d="M68.4324 17.3643L22.3259 17.2346C20.9796 17.2329 19.6874 17.765 18.7327 18.7144C17.778 19.6637 17.2386 20.9528 17.2326 22.2991L17.1029 67.9734C17.0939 73.9716 19.4643 79.7285 23.6942 83.9814C27.9241 88.2342 33.6681 90.6358 39.6663 90.6592L48.4265 90.6808L68.2307 90.7385C69.5775 90.7414 70.8703 90.2097 71.8253 89.2601C72.7803 88.3105 73.3193 87.0207 73.324 85.6739L73.3384 81.0777L73.4969 22.4576C73.4999 21.1109 72.9681 19.818 72.0186 18.8631C71.069 17.9081 69.7792 17.369 68.4324 17.3643Z" fill="white"/>
<path d="M63.2527 48.5725H27.304C27.0207 48.5725 26.7401 48.6283 26.4783 48.7368C26.2165 48.8452 25.9787 49.0041 25.7783 49.2045C25.578 49.4048 25.419 49.6427 25.3106 49.9044C25.2022 50.1662 25.1464 50.4468 25.1464 50.7301C25.1464 51.0135 25.2022 51.2941 25.3106 51.5558C25.419 51.8176 25.578 52.0555 25.7783 52.2558C25.9787 52.4562 26.2165 52.6151 26.4783 52.7236C26.7401 52.832 27.0207 52.8878 27.304 52.8878H63.2527C63.8249 52.8878 64.3737 52.6605 64.7784 52.2558C65.183 51.8512 65.4103 51.3024 65.4103 50.7301C65.4103 50.1579 65.183 49.6091 64.7784 49.2045C64.3737 48.7998 63.8249 48.5725 63.2527 48.5725Z" fill="#00807E"/>
<path d="M35.2069 36.7433H27.304C26.7318 36.7433 26.183 36.9707 25.7783 37.3753C25.3737 37.7799 25.1464 38.3287 25.1464 38.901C25.1464 39.4732 25.3737 40.022 25.7783 40.4267C26.183 40.8313 26.7318 41.0586 27.304 41.0586H35.2069C35.7792 41.0586 36.328 40.8313 36.7326 40.4267C37.1373 40.022 37.3646 39.4732 37.3646 38.901C37.3646 38.3287 37.1373 37.7799 36.7326 37.3753C36.328 36.9707 35.7792 36.7433 35.2069 36.7433Z" fill="#D2544A"/>
<path d="M63.2527 67.541H27.304C26.7318 67.541 26.1829 67.7683 25.7783 68.173C25.3737 68.5776 25.1464 69.1264 25.1464 69.6987C25.1464 70.2709 25.3737 70.8197 25.7783 71.2243C26.1829 71.629 26.7318 71.8563 27.304 71.8563H63.2527C63.8249 71.8563 64.3737 71.629 64.7784 71.2243C65.183 70.8197 65.4103 70.2709 65.4103 69.6987C65.4103 69.1264 65.183 68.5776 64.7784 68.173C64.3737 67.7683 63.8249 67.541 63.2527 67.541Z" fill="#00807E"/>
<path d="M63.2526 58.0604H27.3039C26.7326 58.0604 26.1848 58.2874 25.7808 58.6913C25.3768 59.0953 25.1499 59.6432 25.1499 60.2145C25.1499 60.7857 25.3768 61.3336 25.7808 61.7376C26.1848 62.1416 26.7326 62.3685 27.3039 62.3685H63.2526C63.8239 62.3685 64.3718 62.1416 64.7757 61.7376C65.1797 61.3336 65.4066 60.7857 65.4066 60.2145C65.4066 59.6432 65.1797 59.0953 64.7757 58.6913C64.3718 58.2874 63.8239 58.0604 63.2526 58.0604Z" fill="#00807E"/>
<path d="M56.2672 44.3729C53.7429 44.3729 51.2753 43.6243 49.1764 42.2219C47.0775 40.8195 45.4416 38.8261 44.4756 36.494C43.5096 34.1618 43.2568 31.5956 43.7493 29.1197C44.2417 26.6439 45.4573 24.3698 47.2423 22.5848C49.0272 20.7998 51.3014 19.5843 53.7772 19.0918C56.253 18.5993 58.8193 18.8521 61.1514 19.8181C63.4836 20.7841 65.4769 22.42 66.8794 24.5189C68.2818 26.6178 69.0303 29.0854 69.0303 31.6097C69.0265 34.9935 67.6806 38.2376 65.2878 40.6304C62.8951 43.0231 59.651 44.369 56.2672 44.3729ZM56.2672 19.7335C53.9183 19.7335 51.6222 20.43 49.6691 21.735C47.7161 23.04 46.1939 24.8948 45.295 27.0649C44.3961 29.2349 44.1609 31.6229 44.6191 33.9266C45.0774 36.2304 46.2085 38.3465 47.8694 40.0074C49.5303 41.6684 51.6464 42.7995 53.9502 43.2577C56.2539 43.716 58.6419 43.4808 60.8119 42.5819C62.982 41.683 64.8369 40.1608 66.1418 38.2078C67.4468 36.2548 68.1433 33.9586 68.1433 31.6097C68.1398 28.4611 66.8874 25.4424 64.661 23.2159C62.4345 20.9895 59.4159 19.7371 56.2672 19.7335Z" fill="#D2544A"/>
<path d="M61.6275 36.5534C60.7459 32.0019 58.9098 27.6889 56.2401 23.8985C56.1799 23.8003 56.0955 23.7191 55.9949 23.6628C55.8943 23.6065 55.781 23.5769 55.6657 23.5769C55.5505 23.5769 55.4372 23.6065 55.3366 23.6628C55.236 23.7191 55.1516 23.8003 55.0914 23.8985C52.7663 27.9653 51.2801 32.4569 50.7207 37.1078C50.6173 37.9558 51.9486 37.9483 52.0511 37.1078C52.2381 35.6006 52.5295 34.1081 52.9233 32.6413C52.9743 32.6312 53.024 32.616 53.0719 32.5958C54.841 31.7076 56.8396 31.3821 58.799 31.6631C58.8161 31.6657 58.8326 31.662 58.8496 31.6636C59.4967 33.3656 59.9968 35.1198 60.3446 36.9071C60.5069 37.7469 61.7894 37.3913 61.6275 36.5534ZM53.4022 31.0097C54.0128 29.1152 54.7902 27.2786 55.7253 25.5215C56.715 27.0336 57.5744 28.6271 58.2942 30.2847C56.6299 30.1596 54.9586 30.4073 53.4022 31.0097Z" fill="#D2544A"/>
</svg>
