<svg width="1213" height="3368" viewBox="0 0 1213 3368" fill="none" xmlns="http://www.w3.org/2000/svg">
<path d="M0.5 1L881.373 272.345C1031.86 318.702 1078.98 508.522 967.631 619.869L413.351 1174.15C329.78 1257.72 332.074 1393.91 418.413 1474.61L933.846 1956.43C1018.94 2035.97 1022.58 2169.72 941.958 2253.78L494.765 2720.02C405.881 2812.69 420.8 2962.85 526.18 3036.22L1002 3367.5" stroke="black" stroke-dasharray="30 30"/>
<g clip-path="url(#clip0_17_27)">
<path d="M457.99 2941.81L458.26 2941.82C458.347 2941.83 458.465 2941.83 458.586 2941.84L459.013 2941.88C459.176 2941.89 459.337 2941.91 459.527 2941.93C459.712 2941.95 459.922 2941.98 460.122 2942.01L460.787 2942.11C461.017 2942.14 461.244 2942.19 461.494 2942.23C462.572 2942.43 463.634 2942.7 464.674 2943.05C465.23 2943.22 465.769 2943.44 466.317 2943.66C466.85 2943.9 467.391 2944.16 467.902 2944.44C468.411 2944.73 468.902 2945.04 469.374 2945.39C469.835 2945.73 470.272 2946.1 470.681 2946.5C471.492 2947.29 472.163 2948.2 472.662 2949.22C472.917 2949.73 473.104 2950.27 473.305 2950.82C473.498 2951.36 473.687 2951.92 473.858 2952.49C474.21 2953.64 474.503 2954.82 474.733 2956C474.969 2957.2 475.137 2958.43 475.245 2959.65C475.297 2960.27 475.333 2960.88 475.354 2961.5C475.372 2962.11 475.375 2962.72 475.363 2963.34C475.335 2964.56 475.247 2965.76 475.099 2966.92C474.958 2968.05 474.761 2969.17 474.51 2970.28C474.033 2972.39 473.399 2974.25 472.843 2975.59L472.641 2976.07L472.451 2976.5L472.126 2977.18L471.904 2977.61L471.821 2977.76L471.658 2977.7L471.205 2977.53L470.507 2977.24L470.08 2977.05L469.609 2976.84C468.297 2976.21 466.582 2975.26 464.809 2974.01C463.881 2973.35 462.986 2972.66 462.126 2971.92C461.235 2971.15 460.364 2970.32 459.526 2969.43C459.106 2968.98 458.698 2968.53 458.301 2968.06C457.905 2967.59 457.518 2967.11 457.145 2966.62C456.402 2965.63 455.706 2964.61 455.078 2963.56C454.454 2962.53 453.885 2961.46 453.373 2960.37C453.118 2959.83 452.885 2959.29 452.662 2958.76C452.446 2958.22 452.221 2957.69 452.07 2957.14C451.759 2956.05 451.647 2954.93 451.714 2953.79C451.75 2953.22 451.825 2952.65 451.94 2952.09C452.06 2951.52 452.213 2950.96 452.4 2950.41C452.587 2949.85 452.817 2949.3 453.055 2948.77C453.308 2948.23 453.567 2947.71 453.859 2947.21C454.399 2946.25 455.006 2945.34 455.675 2944.47C455.83 2944.27 455.968 2944.08 456.114 2943.9L456.542 2943.39C456.669 2943.23 456.81 2943.07 456.934 2942.93C457.061 2942.79 457.165 2942.66 457.278 2942.55L457.571 2942.23C457.653 2942.14 457.739 2942.06 457.8 2942C457.925 2941.87 457.99 2941.81 457.99 2941.81Z" fill="#FFB636"/>
<path d="M433.546 2951.21L438.874 2965.06C439.242 2966.02 440.584 2966.05 441 2965.11L444.581 2957.06C444.705 2956.78 444.934 2956.56 445.219 2956.45L452.776 2953.54L439.32 2937.39L433.569 2950.33C433.507 2950.47 433.474 2950.62 433.47 2950.77C433.466 2950.92 433.492 2951.07 433.546 2951.21ZM469.607 2945.18L477.164 2942.27C477.449 2942.16 477.766 2942.17 478.045 2942.3L486.103 2945.88C487.04 2946.29 488.013 2945.37 487.645 2944.41L482.317 2930.56C482.208 2930.28 481.989 2930.05 481.71 2929.92L468.766 2924.17L469.607 2945.18Z" fill="#FF473E"/>
<path d="M437.07 2884.89L437.159 2884.92C437.217 2884.94 437.308 2884.96 437.417 2885C437.636 2885.08 437.98 2885.18 438.381 2885.34C439.216 2885.64 440.372 2886.1 441.728 2886.74C443.086 2887.38 444.643 2888.18 446.287 2889.16C446.706 2889.41 447.112 2889.67 447.536 2889.93C447.966 2890.19 448.375 2890.48 448.808 2890.76C449.669 2891.34 450.528 2891.96 451.393 2892.62C453.187 2893.99 454.89 2895.48 456.492 2897.07C458.141 2898.71 459.72 2900.5 461.173 2902.43C462.623 2904.35 463.961 2906.4 465.143 2908.55C466.327 2910.7 467.357 2912.96 468.229 2915.27C469.101 2917.58 469.819 2919.95 470.361 2922.35C470.496 2922.95 470.625 2923.55 470.734 2924.15C470.851 2924.75 470.95 2925.36 471.047 2925.96C471.233 2927.17 471.372 2928.37 471.472 2929.58C471.668 2931.94 471.702 2934.32 471.575 2936.69C471.452 2938.95 471.188 2941.19 470.784 2943.41C470.588 2944.48 470.373 2945.51 470.122 2946.52L469.941 2947.26C469.879 2947.5 469.808 2947.74 469.744 2947.98L469.551 2948.69L469.342 2949.39C468.793 2951.21 468.194 2952.85 467.627 2954.22C467.062 2955.6 466.526 2956.72 466.12 2957.49C465.933 2957.88 465.751 2958.18 465.644 2958.39C465.59 2958.49 465.541 2958.57 465.511 2958.62L465.465 2958.7C465.113 2959.3 464.398 2959.55 463.761 2959.35L463.674 2959.32C463.617 2959.31 463.527 2959.28 463.419 2959.24C463.205 2959.16 462.864 2959.06 462.468 2958.9C461.647 2958.59 460.5 2958.12 459.159 2957.48C457.816 2956.84 456.274 2956.03 454.643 2955.04L454.023 2954.67L453.405 2954.27C453.197 2954.14 452.981 2954 452.771 2953.86L452.141 2953.43C451.283 2952.86 450.431 2952.23 449.569 2951.57C447.781 2950.2 446.082 2948.71 444.48 2947.12C442.796 2945.44 441.228 2943.66 439.786 2941.77C439.054 2940.81 438.347 2939.82 437.678 2938.8C437.346 2938.29 437.014 2937.77 436.698 2937.25C436.375 2936.73 436.069 2936.19 435.767 2935.66C434.563 2933.52 433.505 2931.27 432.603 2928.97C431.701 2926.67 430.956 2924.31 430.393 2921.92C429.828 2919.53 429.446 2917.12 429.233 2914.71C429.022 2912.31 428.993 2909.92 429.117 2907.6C429.239 2905.35 429.506 2903.1 429.918 2900.88C430.117 2899.81 430.339 2898.77 430.593 2897.77C430.723 2897.27 430.836 2896.78 430.979 2896.3C431.116 2895.82 431.242 2895.36 431.391 2894.89C431.954 2893.06 432.568 2891.42 433.15 2890.04C433.73 2888.66 434.276 2887.54 434.695 2886.76C434.888 2886.37 435.072 2886.06 435.183 2885.86C435.239 2885.76 435.289 2885.68 435.32 2885.63L435.367 2885.55C435.723 2884.95 436.435 2884.69 437.07 2884.89Z" fill="#ADBBBC"/>
<path d="M455.179 2934.5L455.422 2934.52C455.571 2934.53 455.783 2934.56 456.009 2934.61C456.481 2934.71 457.019 2934.91 457.398 2935.28C457.59 2935.47 457.712 2935.71 457.877 2935.96L458.395 2936.77L459.634 2938.73C460.117 2939.5 460.595 2940.27 461.069 2941.05C461.596 2941.92 462.115 2942.79 462.628 2943.66L463.43 2945.05L464.234 2946.48C464.767 2947.44 465.303 2948.42 465.824 2949.41C466.344 2950.39 466.855 2951.38 467.356 2952.37C467.853 2953.34 468.345 2954.3 468.807 2955.24L469.493 2956.62C469.711 2957.07 469.954 2957.5 470.117 2957.95C470.283 2958.39 470.363 2958.86 470.347 2959.34C470.335 2959.83 470.248 2960.33 470.16 2960.81C469.991 2961.71 469.778 2962.6 469.522 2963.48C469.404 2963.89 469.282 2964.28 469.159 2964.64C469.039 2965 468.904 2965.33 468.795 2965.64C468.682 2965.94 468.556 2966.22 468.46 2966.46C468.358 2966.7 468.255 2966.91 468.18 2967.08C468.1 2967.25 468.03 2967.38 467.987 2967.47L467.915 2967.61L467.77 2967.55C467.679 2967.52 467.538 2967.47 467.364 2967.39C467.196 2967.32 466.978 2967.23 466.741 2967.12C466.51 2967.01 466.228 2966.88 465.941 2966.73C465.658 2966.58 465.33 2966.42 465 2966.24C464.667 2966.05 464.318 2965.85 463.957 2965.62C463.177 2965.14 462.42 2964.62 461.69 2964.06C461.304 2963.77 460.906 2963.46 460.572 2963.1C460.234 2962.75 459.982 2962.36 459.806 2961.91C459.627 2961.47 459.519 2960.99 459.378 2960.51L458.964 2959.03C458.68 2958.02 458.401 2956.98 458.115 2955.92C457.826 2954.86 457.543 2953.78 457.271 2952.7C456.996 2951.62 456.736 2950.53 456.486 2949.46L456.125 2947.86L455.791 2946.29C455.585 2945.3 455.387 2944.31 455.198 2943.31C455.017 2942.36 454.854 2941.46 454.705 2940.62L454.315 2938.34L454.153 2937.39C454.109 2937.1 454.038 2936.84 454.055 2936.57C454.087 2936.04 454.351 2935.53 454.637 2935.14C454.769 2934.95 454.91 2934.79 455.01 2934.68L455.179 2934.5Z" fill="#FF473E"/>
<path d="M453.598 2914.96C457.554 2916.72 459.336 2921.35 457.578 2925.3C455.82 2929.26 451.189 2931.04 447.233 2929.28C443.278 2927.53 441.496 2922.89 443.254 2918.94C445.011 2914.98 449.643 2913.2 453.598 2914.96ZM439.876 2904.55C438.758 2907.07 439.892 2910.02 442.41 2911.14C444.928 2912.25 447.876 2911.12 448.995 2908.6C450.114 2906.08 448.979 2903.14 446.461 2902.02C443.944 2900.9 440.995 2902.03 439.876 2904.55Z" fill="#2B3B47"/>
</g>
<g clip-path="url(#clip1_17_27)">
<path d="M880.592 1905.95L880.843 1905.85C880.924 1905.82 881.033 1905.77 881.147 1905.73L881.549 1905.58C881.703 1905.52 881.858 1905.47 882.038 1905.41C882.216 1905.35 882.414 1905.28 882.61 1905.23L883.253 1905.04C883.478 1904.97 883.703 1904.92 883.948 1904.85C885.008 1904.58 886.086 1904.37 887.174 1904.25C887.753 1904.18 888.331 1904.14 888.925 1904.12C889.508 1904.1 890.106 1904.11 890.69 1904.15C891.272 1904.2 891.85 1904.27 892.422 1904.39C892.984 1904.5 893.537 1904.65 894.077 1904.84C895.148 1905.22 896.141 1905.76 897.023 1906.48C897.467 1906.83 897.866 1907.24 898.278 1907.65C898.684 1908.06 899.091 1908.49 899.486 1908.93C900.293 1909.83 901.053 1910.77 901.762 1911.75C902.482 1912.74 903.152 1913.77 903.768 1914.84C904.074 1915.38 904.366 1915.92 904.646 1916.47C904.92 1917.02 905.182 1917.57 905.43 1918.13C905.919 1919.25 906.347 1920.38 906.705 1921.5C907.052 1922.58 907.346 1923.67 907.585 1924.78C908.047 1926.9 908.255 1928.85 908.318 1930.3L908.336 1930.82L908.344 1931.29L908.337 1932.04L908.317 1932.53L908.306 1932.7L908.135 1932.72L907.651 1932.75L906.897 1932.79L906.431 1932.8L905.911 1932.8C904.459 1932.79 902.502 1932.65 900.366 1932.26C899.249 1932.06 898.143 1931.8 897.051 1931.5C895.92 1931.18 894.778 1930.79 893.644 1930.34C893.075 1930.11 892.512 1929.87 891.955 1929.61C891.399 1929.36 890.845 1929.08 890.299 1928.8C889.21 1928.22 888.148 1927.58 887.136 1926.9C886.134 1926.23 885.168 1925.5 884.243 1924.72C883.785 1924.35 883.346 1923.95 882.917 1923.56C882.493 1923.16 882.066 1922.78 881.699 1922.35C880.957 1921.49 880.381 1920.52 879.963 1919.46C879.753 1918.93 879.582 1918.38 879.449 1917.83C879.317 1917.26 879.218 1916.68 879.155 1916.1C879.09 1915.52 879.065 1914.92 879.056 1914.34C879.058 1913.75 879.074 1913.17 879.126 1912.59C879.214 1911.49 879.378 1910.41 879.618 1909.34C879.674 1909.09 879.72 1908.87 879.776 1908.64L879.945 1907.99C879.994 1907.79 880.056 1907.59 880.109 1907.41C880.164 1907.23 880.206 1907.07 880.258 1906.92L880.392 1906.51C880.428 1906.39 880.472 1906.28 880.501 1906.2C880.561 1906.03 880.592 1905.95 880.592 1905.95Z" fill="#FFB636"/>
<path d="M862.402 1924.79L873.077 1935.09C873.815 1935.81 875.046 1935.27 875.028 1934.25L874.872 1925.43C874.867 1925.12 874.983 1924.83 875.195 1924.61L880.818 1918.78L861.801 1909.82L862.051 1923.98C862.054 1924.13 862.086 1924.28 862.146 1924.42C862.207 1924.56 862.294 1924.69 862.402 1924.79ZM892.547 1904.1L898.171 1898.28C898.383 1898.06 898.673 1897.93 898.979 1897.92L907.795 1897.77C908.82 1897.75 909.312 1896.5 908.574 1895.79L897.899 1885.48C897.68 1885.27 897.385 1885.16 897.08 1885.16L882.917 1885.41L892.547 1904.1Z" fill="#FF473E"/>
<path d="M837.602 1863.18L837.694 1863.17C837.754 1863.16 837.848 1863.14 837.963 1863.13C838.193 1863.11 838.549 1863.06 838.979 1863.03C839.862 1862.95 841.106 1862.89 842.605 1862.89C844.104 1862.89 845.857 1862.97 847.762 1863.16C848.244 1863.21 848.721 1863.27 849.218 1863.33C849.719 1863.39 850.209 1863.47 850.722 1863.55C851.745 1863.71 852.786 1863.91 853.849 1864.14C856.054 1864.63 858.226 1865.26 860.35 1866.02C862.537 1866.82 864.726 1867.77 866.855 1868.9C868.982 1870.04 871.06 1871.33 873.04 1872.78C875.021 1874.23 876.905 1875.84 878.672 1877.57C880.439 1879.29 882.09 1881.14 883.594 1883.09C883.969 1883.57 884.339 1884.06 884.693 1884.56C885.053 1885.06 885.398 1885.56 885.739 1886.07C886.417 1887.08 887.053 1888.12 887.651 1889.17C888.828 1891.23 889.863 1893.37 890.749 1895.58C891.589 1897.67 892.297 1899.82 892.868 1902C893.141 1903.05 893.383 1904.08 893.578 1905.09L893.726 1905.84C893.773 1906.09 893.812 1906.34 893.855 1906.58L893.978 1907.31L894.082 1908.03C894.355 1909.91 894.503 1911.65 894.57 1913.14C894.639 1914.62 894.624 1915.86 894.584 1916.74C894.575 1917.16 894.541 1917.52 894.529 1917.74C894.522 1917.86 894.511 1917.95 894.506 1918.01L894.498 1918.1C894.433 1918.8 893.893 1919.33 893.23 1919.42L893.139 1919.43C893.08 1919.44 892.987 1919.45 892.873 1919.46C892.646 1919.48 892.292 1919.53 891.866 1919.55C890.993 1919.62 889.756 1919.68 888.269 1919.66C886.78 1919.65 885.039 1919.56 883.144 1919.36L882.423 1919.28L881.696 1919.18C881.451 1919.15 881.198 1919.12 880.949 1919.08L880.197 1918.96C879.177 1918.8 878.141 1918.59 877.08 1918.36C874.878 1917.86 872.71 1917.23 870.587 1916.46C868.353 1915.66 866.176 1914.7 864.072 1913.59C863.004 1913.03 861.945 1912.43 860.908 1911.79C860.391 1911.47 859.873 1911.14 859.366 1910.8C858.852 1910.46 858.35 1910.11 857.851 1909.75C855.854 1908.32 853.95 1906.73 852.161 1905.03C850.371 1903.32 848.7 1901.5 847.18 1899.57C845.66 1897.64 844.293 1895.61 843.087 1893.53C841.882 1891.44 840.847 1889.28 839.979 1887.13C839.137 1885.03 838.432 1882.88 837.868 1880.7C837.597 1879.64 837.36 1878.61 837.167 1877.59C837.073 1877.08 836.971 1876.59 836.897 1876.1C836.818 1875.6 836.736 1875.13 836.676 1874.65C836.414 1872.75 836.278 1871 836.221 1869.5C836.164 1868.01 836.186 1866.76 836.236 1865.87C836.249 1865.44 836.285 1865.09 836.3 1864.85C836.308 1864.74 836.319 1864.65 836.325 1864.58L836.335 1864.49C836.406 1863.8 836.943 1863.27 837.602 1863.18Z" fill="#ADBBBC"/>
<path d="M874.961 1900.51L875.187 1900.42C875.329 1900.37 875.532 1900.31 875.758 1900.26C876.227 1900.15 876.8 1900.1 877.302 1900.28C877.554 1900.37 877.766 1900.54 878.021 1900.69L878.834 1901.21L880.782 1902.46C881.546 1902.96 882.307 1903.46 883.064 1903.96C883.907 1904.52 884.746 1905.09 885.579 1905.67L886.892 1906.59L888.224 1907.55C889.114 1908.19 890.014 1908.86 890.903 1909.53C891.788 1910.2 892.667 1910.88 893.539 1911.56C894.403 1912.24 895.255 1912.9 896.068 1913.56L897.271 1914.52C897.659 1914.83 898.061 1915.12 898.398 1915.46C898.737 1915.79 899.006 1916.18 899.197 1916.63C899.391 1917.07 899.522 1917.56 899.644 1918.03C899.872 1918.92 900.056 1919.82 900.196 1920.73C900.261 1921.15 900.313 1921.55 900.354 1921.93C900.396 1922.3 900.417 1922.67 900.446 1922.99C900.472 1923.31 900.475 1923.62 900.489 1923.88C900.499 1924.14 900.494 1924.37 900.497 1924.56C900.496 1924.74 900.49 1924.89 900.488 1924.99L900.48 1925.15L900.326 1925.16C900.228 1925.16 900.078 1925.18 899.89 1925.18C899.706 1925.19 899.472 1925.2 899.21 1925.2C898.953 1925.2 898.645 1925.2 898.322 1925.19C898.002 1925.17 897.636 1925.16 897.258 1925.13C896.879 1925.11 896.476 1925.07 896.055 1925.02C895.143 1924.91 894.238 1924.76 893.341 1924.56C892.866 1924.46 892.374 1924.34 891.923 1924.16C891.468 1923.99 891.071 1923.73 890.725 1923.41C890.377 1923.08 890.075 1922.69 889.744 1922.31L888.744 1921.15C888.062 1920.36 887.369 1919.53 886.662 1918.69C885.954 1917.85 885.242 1916.99 884.539 1916.13C883.832 1915.26 883.137 1914.39 882.458 1913.52L881.456 1912.22L880.492 1910.94C879.886 1910.13 879.287 1909.31 878.695 1908.49C878.13 1907.7 877.601 1906.95 877.115 1906.26L875.798 1904.36L875.25 1903.56C875.085 1903.31 874.91 1903.11 874.814 1902.86C874.618 1902.36 874.642 1901.79 874.737 1901.32C874.777 1901.09 874.837 1900.88 874.881 1900.74L874.961 1900.51Z" fill="#FF473E"/>
<path d="M865.278 1883.46C869.606 1883.39 873.176 1886.83 873.252 1891.16C873.329 1895.49 869.882 1899.06 865.554 1899.13C861.226 1899.21 857.656 1895.76 857.58 1891.44C857.503 1887.11 860.95 1883.54 865.278 1883.46ZM848.445 1879.82C848.494 1882.57 850.766 1884.77 853.521 1884.72C856.276 1884.67 858.47 1882.4 858.421 1879.64C858.373 1876.89 856.1 1874.69 853.345 1874.74C850.59 1874.79 848.396 1877.06 848.445 1879.82Z" fill="#2B3B47"/>
</g>
<g clip-path="url(#clip2_17_27)">
<path d="M467.848 1114.96L467.963 1115.2C467.999 1115.28 468.052 1115.39 468.1 1115.5L468.269 1115.89C468.336 1116.04 468.392 1116.19 468.463 1116.37C468.532 1116.54 468.613 1116.74 468.679 1116.93L468.907 1117.56C468.983 1117.78 469.049 1118 469.127 1118.25C469.463 1119.29 469.726 1120.35 469.913 1121.43C470.017 1122.01 470.086 1122.58 470.142 1123.17C470.186 1123.76 470.215 1124.35 470.204 1124.94C470.193 1125.52 470.148 1126.1 470.067 1126.68C469.986 1127.25 469.865 1127.81 469.705 1128.36C469.385 1129.45 468.899 1130.47 468.238 1131.39C467.912 1131.85 467.521 1132.27 467.136 1132.71C466.744 1133.14 466.343 1133.57 465.921 1133.99C465.07 1134.84 464.174 1135.65 463.238 1136.42C462.293 1137.19 461.292 1137.92 460.261 1138.59C459.744 1138.93 459.218 1139.25 458.685 1139.56C458.154 1139.86 457.615 1140.16 457.07 1140.43C455.981 1140.99 454.879 1141.48 453.782 1141.9C452.723 1142.3 451.644 1142.66 450.55 1142.96C448.458 1143.54 446.522 1143.85 445.077 1144L444.56 1144.04L444.094 1144.08L443.34 1144.11L442.855 1144.12L442.684 1144.12L442.656 1143.95L442.593 1143.47L442.517 1142.72L442.482 1142.25L442.453 1141.73C442.384 1140.28 442.414 1138.32 442.681 1136.17C442.818 1135.04 443.011 1133.92 443.258 1132.81C443.513 1131.67 443.836 1130.51 444.222 1129.35C444.418 1128.77 444.628 1128.19 444.852 1127.62C445.08 1127.05 445.321 1126.48 445.578 1125.92C446.094 1124.8 446.667 1123.71 447.294 1122.66C447.911 1121.62 448.582 1120.62 449.305 1119.65C449.657 1119.17 450.024 1118.71 450.391 1118.26C450.764 1117.81 451.123 1117.37 451.534 1116.98C452.348 1116.19 453.287 1115.56 454.319 1115.08C454.84 1114.84 455.376 1114.64 455.925 1114.48C456.485 1114.31 457.054 1114.18 457.629 1114.09C458.207 1113.99 458.802 1113.93 459.383 1113.89C459.977 1113.86 460.556 1113.84 461.139 1113.86C462.234 1113.89 463.326 1113.99 464.407 1114.17C464.657 1114.21 464.886 1114.25 465.116 1114.29L465.774 1114.42C465.974 1114.46 466.178 1114.51 466.36 1114.55C466.545 1114.6 466.704 1114.63 466.862 1114.68L467.276 1114.79C467.393 1114.82 467.506 1114.85 467.589 1114.88C467.76 1114.93 467.848 1114.96 467.848 1114.96Z" fill="#FFB636"/>
<path d="M448.02 1097.85L438.327 1109.08C437.657 1109.86 438.26 1111.05 439.283 1110.98L448.077 1110.33C448.381 1110.31 448.682 1110.41 448.914 1110.61L455.044 1115.9L462.934 1096.41L448.807 1097.45C448.657 1097.46 448.509 1097.5 448.374 1097.57C448.239 1097.64 448.119 1097.73 448.02 1097.85ZM470.359 1126.79L476.489 1132.08C476.72 1132.28 476.863 1132.56 476.885 1132.87L477.532 1141.66C477.608 1142.68 478.882 1143.1 479.552 1142.33L489.245 1131.09C489.445 1130.86 489.544 1130.56 489.522 1130.26L488.482 1116.13L470.359 1126.79Z" fill="#FF473E"/>
<path d="M508.151 1069.65L508.169 1069.74C508.18 1069.8 508.2 1069.89 508.218 1070C508.254 1070.23 508.323 1070.59 508.375 1071.01C508.505 1071.89 508.641 1073.13 508.72 1074.63C508.8 1076.12 508.823 1077.88 508.734 1079.79C508.719 1080.27 508.681 1080.75 508.647 1081.25C508.618 1081.76 508.561 1082.25 508.513 1082.77C508.414 1083.8 508.272 1084.85 508.098 1085.92C507.735 1088.15 507.228 1090.35 506.581 1092.52C505.912 1094.75 505.078 1096.98 504.068 1099.17C503.056 1101.36 501.88 1103.51 500.541 1105.56C499.204 1107.62 497.705 1109.59 496.078 1111.46C494.451 1113.32 492.699 1115.07 490.841 1116.68C490.376 1117.08 489.908 1117.48 489.428 1117.86C488.954 1118.24 488.467 1118.62 487.983 1118.99C487.008 1119.72 486.008 1120.41 484.995 1121.07C483 1122.36 480.92 1123.51 478.768 1124.52C476.724 1125.47 474.622 1126.3 472.474 1126.99C471.439 1127.32 470.426 1127.62 469.424 1127.87L468.687 1128.06C468.442 1128.12 468.194 1128.18 467.953 1128.23L467.237 1128.4L466.526 1128.54C464.658 1128.92 462.932 1129.16 461.451 1129.31C459.972 1129.46 458.734 1129.52 457.858 1129.53C457.432 1129.54 457.075 1129.53 456.847 1129.53C456.733 1129.53 456.639 1129.52 456.579 1129.52L456.487 1129.52C455.792 1129.49 455.228 1128.98 455.106 1128.33L455.089 1128.24C455.078 1128.18 455.059 1128.08 455.042 1127.97C455.01 1127.75 454.943 1127.4 454.896 1126.97C454.776 1126.1 454.649 1124.87 454.582 1123.39C454.514 1121.9 454.503 1120.16 454.602 1118.25L454.641 1117.53L454.698 1116.8C454.718 1116.55 454.735 1116.3 454.759 1116.04L454.839 1115.29C454.94 1114.26 455.088 1113.21 455.264 1112.14C455.634 1109.92 456.144 1107.72 456.79 1105.55C457.472 1103.28 458.308 1101.05 459.292 1098.89C459.792 1097.79 460.331 1096.7 460.914 1095.63C461.208 1095.09 461.505 1094.56 461.818 1094.03C462.126 1093.5 462.449 1092.98 462.779 1092.46C464.1 1090.39 465.576 1088.4 467.179 1086.52C468.781 1084.64 470.511 1082.86 472.352 1081.24C474.191 1079.61 476.143 1078.14 478.159 1076.82C480.176 1075.5 482.268 1074.34 484.375 1073.36C486.42 1072.4 488.525 1071.57 490.677 1070.89C491.714 1070.56 492.733 1070.27 493.737 1070.02C494.242 1069.89 494.722 1069.77 495.216 1069.66C495.705 1069.56 496.174 1069.45 496.651 1069.36C498.529 1068.99 500.268 1068.76 501.761 1068.62C503.253 1068.48 504.498 1068.43 505.385 1068.43C505.815 1068.42 506.175 1068.44 506.406 1068.44C506.522 1068.44 506.616 1068.45 506.677 1068.45L506.769 1068.45C507.464 1068.49 508.023 1068.99 508.151 1069.65Z" fill="#ADBBBC"/>
<path d="M472.961 1109.03L473.062 1109.25C473.119 1109.39 473.198 1109.59 473.258 1109.81C473.396 1110.27 473.472 1110.84 473.322 1111.35C473.248 1111.61 473.093 1111.83 472.952 1112.1L472.478 1112.94L471.34 1114.95C470.887 1115.74 470.43 1116.53 469.968 1117.31C469.454 1118.19 468.932 1119.06 468.403 1119.92L467.558 1121.28L466.679 1122.66C466.081 1123.59 465.469 1124.53 464.844 1125.45C464.226 1126.37 463.599 1127.29 462.962 1128.2C462.335 1129.1 461.72 1129.98 461.113 1130.83L460.223 1132.09C459.928 1132.49 459.663 1132.91 459.346 1133.26C459.03 1133.62 458.658 1133.91 458.221 1134.13C457.789 1134.35 457.309 1134.5 456.845 1134.65C455.97 1134.93 455.082 1135.16 454.184 1135.35C453.77 1135.44 453.372 1135.52 452.996 1135.58C452.622 1135.64 452.259 1135.68 451.942 1135.73C451.622 1135.77 451.314 1135.79 451.059 1135.82C450.798 1135.85 450.563 1135.86 450.38 1135.87C450.192 1135.88 450.042 1135.88 449.943 1135.88L449.789 1135.88L449.767 1135.73C449.757 1135.63 449.736 1135.48 449.718 1135.3C449.704 1135.11 449.679 1134.88 449.665 1134.62C449.655 1134.36 449.63 1134.06 449.627 1133.73C449.626 1133.41 449.614 1133.05 449.622 1132.67C449.628 1132.29 449.644 1131.88 449.67 1131.46C449.727 1130.54 449.829 1129.63 449.974 1128.72C450.053 1128.24 450.14 1127.75 450.292 1127.29C450.441 1126.82 450.674 1126.41 450.981 1126.05C451.286 1125.68 451.66 1125.36 452.018 1125.01L453.129 1123.94C453.879 1123.22 454.668 1122.48 455.466 1121.73C456.263 1120.97 457.08 1120.22 457.906 1119.46C458.73 1118.71 459.566 1117.97 460.394 1117.24L461.633 1116.17L462.857 1115.13C463.634 1114.48 464.417 1113.84 465.206 1113.2C465.959 1112.6 466.677 1112.03 467.342 1111.5L469.168 1110.08L469.931 1109.49C470.171 1109.31 470.367 1109.12 470.61 1109.01C471.093 1108.79 471.668 1108.78 472.145 1108.85C472.375 1108.88 472.583 1108.93 472.728 1108.96L472.961 1109.03Z" fill="#FF473E"/>
<path d="M489.445 1098.41C489.762 1102.73 486.52 1106.48 482.203 1106.8C477.887 1107.12 474.13 1103.88 473.812 1099.56C473.494 1095.24 476.736 1091.49 481.053 1091.17C485.37 1090.85 489.127 1094.09 489.445 1098.41ZM492.143 1081.4C489.395 1081.6 487.332 1083.99 487.534 1086.74C487.736 1089.49 490.127 1091.55 492.875 1091.35C495.623 1091.15 497.687 1088.76 497.485 1086.01C497.283 1083.26 494.891 1081.2 492.143 1081.4Z" fill="#2B3B47"/>
</g>
<g clip-path="url(#clip3_17_27)">
<path d="M886.624 276.937L886.839 276.772C886.909 276.72 887.001 276.645 887.1 276.575L887.447 276.325C887.58 276.228 887.717 276.141 887.874 276.033C888.029 275.929 888.202 275.808 888.375 275.703L888.943 275.345C889.143 275.224 889.345 275.111 889.564 274.983C890.511 274.432 891.495 273.948 892.509 273.534C893.048 273.309 893.595 273.119 894.161 272.938C894.719 272.771 895.296 272.614 895.871 272.5C896.443 272.385 897.021 272.305 897.603 272.26C898.174 272.218 898.747 272.217 899.319 272.256C900.452 272.335 901.554 272.591 902.595 273.039C903.117 273.259 903.612 273.55 904.119 273.834C904.622 274.125 905.127 274.425 905.627 274.747C906.645 275.395 907.629 276.097 908.574 276.848C909.533 277.606 910.456 278.428 911.336 279.291C911.775 279.725 912.202 280.169 912.618 280.623C913.03 281.077 913.43 281.541 913.819 282.014C914.59 282.96 915.305 283.931 915.949 284.913C916.573 285.861 917.15 286.838 917.678 287.843C918.692 289.762 919.416 291.585 919.866 292.967L920.022 293.462L920.155 293.909L920.351 294.639L920.461 295.111L920.496 295.279L920.336 295.342L919.881 295.507L919.163 295.741L918.716 295.875L918.215 296.014C916.813 296.392 914.89 296.783 912.729 296.983C911.599 297.089 910.465 297.141 909.331 297.136C908.156 297.133 906.952 297.065 905.739 296.936C905.129 296.869 904.522 296.787 903.917 296.69C903.311 296.59 902.705 296.476 902.102 296.345C900.898 296.08 899.705 295.755 898.546 295.367C897.4 294.986 896.275 294.545 895.176 294.047C894.633 293.804 894.105 293.545 893.587 293.283C893.072 293.013 892.558 292.758 892.088 292.44C891.144 291.814 890.328 291.032 889.642 290.126C889.297 289.668 888.985 289.187 888.708 288.686C888.428 288.174 888.179 287.646 887.962 287.105C887.744 286.561 887.56 285.992 887.394 285.433C887.237 284.86 887.097 284.298 886.991 283.724C886.783 282.649 886.651 281.56 886.595 280.466C886.583 280.213 886.566 279.981 886.559 279.748L886.548 279.077C886.542 278.874 886.548 278.663 886.551 278.476C886.555 278.286 886.554 278.124 886.562 277.96L886.582 277.532C886.586 277.411 886.599 277.293 886.604 277.206C886.617 277.029 886.624 276.937 886.624 276.937Z" fill="#FFB636"/>
<path d="M874.153 299.966L887.2 307.032C888.102 307.52 889.144 306.674 888.851 305.691L886.338 297.239C886.251 296.947 886.283 296.632 886.429 296.363L890.284 289.243L869.56 285.705L873.598 299.282C873.641 299.427 873.712 299.562 873.807 299.679C873.902 299.797 874.02 299.894 874.153 299.966ZM897.646 271.952L901.502 264.832C901.647 264.563 901.893 264.364 902.186 264.277L910.638 261.763C911.621 261.471 911.76 260.136 910.858 259.647L897.811 252.582C897.542 252.437 897.227 252.404 896.935 252.491L883.358 256.529L897.646 271.952Z" fill="#FF473E"/>
<path d="M833.741 247.261L833.826 247.224C833.882 247.201 833.968 247.161 834.076 247.119C834.291 247.035 834.621 246.892 835.028 246.75C835.857 246.435 837.038 246.038 838.483 245.641C839.928 245.242 841.637 244.844 843.524 244.522C844 244.433 844.477 244.368 844.972 244.294C845.47 244.214 845.965 244.165 846.48 244.1C847.507 243.977 848.564 243.891 849.65 243.831C851.905 243.709 854.166 243.732 856.418 243.902C858.738 244.078 861.103 244.414 863.457 244.932C865.81 245.453 868.159 246.142 870.455 247.01C872.753 247.876 874.999 248.919 877.164 250.11C879.33 251.301 881.416 252.637 883.386 254.108C883.879 254.476 884.366 254.848 884.841 255.236C885.321 255.616 885.789 256.012 886.253 256.406C887.178 257.202 888.069 258.03 888.926 258.879C890.613 260.552 892.184 262.337 893.629 264.223C895 266.016 896.257 267.893 897.392 269.843C897.937 270.783 898.446 271.708 898.905 272.633L899.248 273.313C899.36 273.539 899.465 273.77 899.572 273.994L899.885 274.658L900.178 275.321C900.946 277.065 901.554 278.699 902.018 280.114C902.482 281.526 902.8 282.724 902.996 283.578C903.102 283.99 903.164 284.342 903.214 284.565C903.238 284.677 903.252 284.769 903.264 284.828L903.28 284.919C903.403 285.604 903.026 286.263 902.411 286.523L902.326 286.559C902.271 286.582 902.185 286.621 902.078 286.661C901.865 286.741 901.536 286.882 901.133 287.018C900.311 287.321 899.134 287.709 897.697 288.092C896.259 288.477 894.559 288.861 892.678 289.17L891.962 289.288L891.235 289.388C890.99 289.421 890.739 289.459 890.488 289.49L889.732 289.574C888.706 289.695 887.653 289.774 886.568 289.831C884.314 289.946 882.056 289.919 879.805 289.751C877.436 289.572 875.082 289.231 872.76 288.733C871.58 288.479 870.399 288.186 869.228 287.846C868.644 287.673 868.057 287.497 867.476 287.303C866.892 287.117 866.314 286.912 865.736 286.701C863.428 285.855 861.168 284.838 858.988 283.675C856.807 282.513 854.707 281.202 852.726 279.751C850.744 278.302 848.883 276.711 847.161 275.025C845.441 273.337 843.867 271.54 842.452 269.694C841.079 267.9 839.823 266.02 838.694 264.065C838.15 263.122 837.645 262.19 837.186 261.262C836.959 260.796 836.73 260.354 836.525 259.894C836.316 259.439 836.11 259.003 835.924 258.557C835.162 256.8 834.562 255.152 834.106 253.723C833.649 252.296 833.336 251.09 833.147 250.223C833.044 249.805 832.983 249.451 832.936 249.225C832.912 249.111 832.898 249.018 832.887 248.958L832.872 248.866C832.755 248.181 833.13 247.526 833.741 247.261Z" fill="#ADBBBC"/>
<path d="M879.742 273.21L879.936 273.064C880.059 272.978 880.237 272.86 880.442 272.753C880.864 272.519 881.404 272.323 881.935 272.36C882.201 272.377 882.45 272.481 882.738 272.563L883.661 272.847L885.873 273.527C886.741 273.8 887.608 274.078 888.474 274.361C889.437 274.677 890.397 275.001 891.355 275.333L892.866 275.866L894.405 276.43C895.436 276.815 896.481 277.213 897.519 277.626C898.551 278.032 899.579 278.449 900.603 278.877C901.617 279.297 902.615 279.707 903.574 280.119L904.989 280.72C905.449 280.921 905.913 281.091 906.328 281.325C906.745 281.556 907.108 281.858 907.412 282.239C907.718 282.615 907.975 283.049 908.219 283.471C908.677 284.266 909.095 285.084 909.473 285.92C909.648 286.306 909.806 286.678 909.947 287.032C910.089 287.384 910.206 287.73 910.32 288.03C910.431 288.333 910.517 288.629 910.599 288.873C910.679 289.122 910.738 289.35 910.79 289.526C910.839 289.707 910.873 289.854 910.898 289.949L910.932 290.1L910.787 290.154C910.694 290.185 910.553 290.237 910.374 290.295C910.197 290.347 909.975 290.422 909.723 290.492C909.473 290.557 909.179 290.646 908.864 290.718C908.551 290.788 908.197 290.878 907.825 290.951C907.451 291.027 907.053 291.098 906.634 291.163C905.727 291.303 904.814 291.399 903.898 291.451C903.411 291.476 902.907 291.499 902.425 291.448C901.94 291.402 901.489 291.262 901.067 291.04C900.645 290.82 900.249 290.524 899.829 290.249L898.552 289.393C897.684 288.814 896.794 288.202 895.888 287.583C894.982 286.966 894.065 286.33 893.155 285.684C892.243 285.04 891.339 284.383 890.452 283.729L889.139 282.748L887.866 281.774C887.065 281.154 886.269 280.527 885.478 279.893C884.723 279.287 884.012 278.708 883.358 278.171L881.58 276.69L880.838 276.072C880.612 275.876 880.389 275.724 880.229 275.51C879.908 275.086 879.777 274.527 879.742 274.046C879.719 273.815 879.722 273.601 879.726 273.452L879.742 273.21Z" fill="#FF473E"/>
<path d="M865.842 259.38C869.99 258.146 874.354 260.509 875.588 264.658C876.822 268.807 874.459 273.171 870.31 274.405C866.161 275.639 861.797 273.276 860.564 269.127C859.33 264.978 861.693 260.614 865.842 259.38ZM848.648 260.384C849.434 263.025 852.211 264.529 854.852 263.744C857.493 262.958 858.997 260.18 858.212 257.539C857.427 254.898 854.649 253.394 852.008 254.18C849.367 254.965 847.863 257.743 848.648 260.384Z" fill="#2B3B47"/>
</g>
<defs>
<clipPath id="clip0_17_27">
<rect width="74.0778" height="74.0778" fill="white" transform="translate(405 2950.7) rotate(-66.0422)"/>
</clipPath>
<clipPath id="clip1_17_27">
<rect width="74.0778" height="74.0778" fill="white" transform="translate(836.306 1936.37) rotate(-91.0103)"/>
</clipPath>
<clipPath id="clip2_17_27">
<rect width="74.0778" height="74.0778" fill="white" transform="translate(435 1072.44) rotate(-4.20871)"/>
</clipPath>
<clipPath id="clip3_17_27">
<rect width="74.0778" height="74.0778" fill="white" transform="translate(852.118 318.122) rotate(-106.563)"/>
</clipPath>
</defs>
</svg>
