<?xml version="1.0" standalone="no"?>
<!DOCTYPE svg PUBLIC "-//W3C//DTD SVG 20010904//EN"
 "http://www.w3.org/TR/2001/REC-SVG-20010904/DTD/svg10.dtd">
<svg version="1.0" xmlns="http://www.w3.org/2000/svg"
 width="657.000000pt" height="124.000000pt" viewBox="0 0 657.000000 124.000000"
 preserveAspectRatio="xMidYMid meet">

<g transform="translate(0.000000,124.000000) scale(0.100000,-0.100000)"
fill="#000000" stroke="none">
<path d="M163 1146 c-17 -8 -43 -31 -57 -52 l-26 -39 0 -428 c0 -464 0 -462
56 -506 38 -30 83 -35 130 -16 64 25 78 59 84 200 l5 120 185 5 c183 5 186 6
251 38 79 38 140 101 177 180 21 48 25 72 26 147 0 80 -3 97 -29 149 -40 80
-102 141 -183 179 l-67 32 -260 3 c-207 2 -266 -1 -292 -12z m98 -49 c87 -59
12 -190 -82 -142 -59 31 -62 111 -6 146 41 24 47 24 88 -4z m431 12 c29 -6 66
-18 82 -26 44 -23 115 -92 144 -142 24 -42 27 -56 27 -146 0 -85 -3 -106 -23
-143 -33 -61 -95 -120 -161 -151 -54 -25 -63 -26 -231 -26 l-175 0 -3 74 c-2
43 2 79 8 85 6 6 75 12 168 14 149 3 159 5 189 28 62 47 79 116 45 183 -34 69
-54 75 -240 81 l-167 5 -5 60 c-3 33 -9 66 -13 73 -5 7 -6 19 -3 27 4 12 33
15 155 15 83 0 174 -5 203 -11z m-404 -215 c8 -2 12 -32 12 -102 l0 -99 -62
-6 c-35 -4 -72 -8 -83 -9 -19 -3 -20 4 -23 115 l-3 117 73 -6 c40 -3 79 -7 86
-10z m413 -32 c42 -46 41 -103 -2 -143 l-32 -29 -156 2 -156 3 -3 89 c-2 49 0
96 3 103 4 12 34 14 161 11 l156 -3 29 -33z m-427 -243 c39 -31 37 -88 -5
-123 -38 -32 -70 -33 -106 -2 -37 32 -39 99 -4 127 31 25 82 24 115 -2z m14
-195 c9 -2 12 -18 10 -46 -2 -33 -7 -42 -18 -38 -8 2 -44 4 -80 5 l-65 0 -3
48 -3 47 73 -6 c40 -3 79 -8 86 -10z m-19 -140 c63 -52 28 -144 -54 -144 -50
0 -80 29 -80 80 0 34 6 47 28 66 36 31 68 30 106 -2z"/>
<path d="M1191 1143 c-18 -9 -42 -31 -52 -47 -18 -29 -19 -59 -19 -469 0 -477
0 -474 57 -513 26 -18 54 -19 393 -22 242 -2 377 0 402 8 56 16 88 61 88 123
0 42 -5 58 -26 80 -14 16 -37 32 -51 38 -13 5 -152 9 -308 9 -249 0 -284 2
-289 16 -3 9 -6 169 -6 357 0 383 -1 386 -73 420 -44 21 -73 21 -116 0z m93
-37 c46 -19 65 -66 43 -110 -33 -70 -122 -69 -155 1 -15 32 -15 36 2 68 15 28
37 44 74 54 1 1 17 -5 36 -13z m4 -204 l47 3 3 -266 c2 -206 -1 -269 -10 -276
-7 -6 -45 -13 -85 -16 -58 -5 -72 -3 -77 9 -8 20 -8 528 0 547 4 12 12 13 40
6 19 -6 56 -9 82 -7z m1 -607 c55 -28 60 -104 9 -139 -66 -47 -153 18 -127 94
11 29 49 59 77 60 7 0 26 -7 41 -15z m518 7 c9 -6 10 -17 3 -44 -7 -23 -7 -51
-1 -77 5 -23 6 -41 2 -41 -61 -2 -296 -3 -358 -2 l-82 2 6 73 c3 39 10 78 16
85 11 14 392 18 414 4z m184 -21 c37 -37 38 -78 4 -115 -50 -54 -145 -19 -145
54 0 40 47 90 85 90 16 0 38 -12 56 -29z"/>
<path d="M2654 1146 c-38 -17 -51 -35 -157 -217 -46 -79 -115 -196 -152 -259
-37 -63 -75 -128 -85 -145 -10 -16 -47 -81 -84 -143 -57 -98 -66 -120 -66
-162 0 -86 74 -143 158 -121 46 13 72 39 121 123 l37 63 284 0 284 0 40 -70
c22 -38 51 -80 65 -92 81 -71 211 -8 211 102 0 41 -2 45 -185 355 -37 63 -75
129 -85 145 -9 17 -41 71 -70 120 -178 305 -175 300 -247 310 -22 3 -51 -1
-69 -9z m82 -36 c38 -15 53 -38 54 -82 0 -94 -124 -116 -160 -28 -16 38 1 84
39 105 32 17 33 17 67 5z m-123 -177 c13 -21 34 -57 46 -81 l22 -43 -73 -124
c-40 -68 -80 -126 -89 -128 -27 -7 -166 -3 -174 5 -4 4 3 24 15 45 13 21 30
52 40 68 36 62 147 251 161 273 19 30 25 28 52 -15z m248 15 c13 -26 100 -175
166 -286 60 -101 58 -107 -47 -108 -64 0 -87 3 -98 15 -7 9 -43 65 -78 126
-44 74 -63 116 -60 130 8 29 84 145 95 145 6 0 16 -10 22 -22z m-90 -283 c47
-77 58 -104 42 -106 -63 -4 -197 -3 -206 3 -9 5 -5 20 13 54 43 83 80 136 92
132 6 -2 33 -40 59 -83z m-356 -185 c47 -47 6 -140 -62 -140 -67 0 -107 81
-68 137 26 37 93 38 130 3z m447 18 c22 -18 89 -143 81 -151 -10 -11 -461 -8
-468 2 -3 5 8 33 25 61 16 28 30 54 30 57 0 4 7 15 17 25 14 16 33 18 158 18
98 0 146 -4 157 -12z m266 -24 c69 -78 -49 -183 -123 -109 -44 43 -26 115 35
138 26 10 64 -3 88 -29z m-839 -190 c61 -51 26 -144 -54 -144 -79 0 -112 84
-56 141 36 36 70 37 110 3z m941 6 c66 -47 35 -150 -44 -150 -83 0 -118 92
-55 144 37 31 62 33 99 6z"/>
<path d="M3770 1150 c-124 -19 -217 -66 -305 -155 -67 -67 -126 -174 -144
-263 -55 -265 98 -522 364 -614 84 -29 244 -29 336 1 119 38 239 132 254 200
9 41 -20 99 -64 128 -45 31 -99 30 -142 -2 -117 -85 -189 -107 -279 -85 -145
35 -240 177 -210 317 27 127 144 223 271 223 56 0 131 -27 175 -62 74 -62 117
-73 172 -44 96 50 102 149 13 228 -115 104 -283 152 -441 128z m162 -41 c72
-14 158 -49 158 -63 0 -7 -11 -22 -25 -34 -13 -12 -33 -39 -45 -61 l-20 -40
-41 14 c-108 38 -249 6 -330 -75 -73 -73 -92 -119 -93 -220 -1 -105 22 -160
96 -231 71 -68 139 -92 238 -85 41 2 89 8 106 11 29 6 32 4 47 -34 9 -22 28
-48 42 -57 36 -23 31 -39 -17 -59 -74 -30 -183 -44 -257 -34 -147 21 -238 73
-332 189 -78 96 -102 177 -97 322 3 97 6 110 40 179 52 105 166 215 263 254
78 31 185 41 267 24z m274 -140 c28 -31 25 -96 -5 -120 -32 -26 -89 -25 -118
3 -30 28 -31 83 -1 115 29 31 97 32 124 2z m-5 -568 c18 -14 24 -29 24 -61 0
-53 -30 -80 -85 -80 -30 0 -43 6 -59 26 -45 57 -11 134 59 134 22 0 47 -8 61
-19z"/>
<path d="M4460 1144 c-19 -8 -44 -27 -55 -42 -19 -26 -20 -43 -20 -477 0 -434
1 -451 20 -477 41 -55 62 -58 451 -58 382 0 395 2 442 53 51 55 32 152 -38
189 -31 16 -63 18 -321 18 -252 0 -288 2 -293 16 -10 27 -6 110 6 122 9 9 75
12 234 12 209 0 223 1 248 21 73 57 73 151 0 208 -25 20 -39 21 -245 21 -248
0 -249 0 -249 75 0 80 -22 75 299 75 258 0 290 2 320 18 98 52 88 184 -16 228
-49 21 -733 19 -783 -2z m97 -44 c36 -22 52 -74 34 -109 -16 -29 -67 -54 -94
-45 -85 25 -90 137 -7 167 25 9 34 8 67 -13z m517 -70 l0 -85 -206 -3 c-157
-2 -208 1 -215 10 -11 14 -24 154 -15 163 3 3 103 4 221 3 l216 -3 -1 -85z
m156 75 c59 -31 68 -98 19 -139 -35 -30 -49 -32 -89 -11 -68 35 -65 115 5 153
26 15 31 15 65 -3z m-700 -204 l65 -6 3 -61 c2 -41 -1 -64 -10 -71 -7 -6 -46
-13 -85 -15 l-73 -5 0 82 c0 83 4 100 23 88 6 -4 41 -9 77 -12z m41 -220 c17
-18 29 -40 29 -56 0 -37 -50 -85 -88 -85 -73 0 -108 91 -56 144 36 35 77 34
115 -3z m364 -56 l0 -85 -141 0 c-161 0 -154 -4 -154 85 0 89 -7 85 154 85
l141 0 0 -85z m179 64 c21 -16 26 -29 26 -64 0 -35 -5 -48 -26 -64 -35 -28
-76 -27 -110 3 -83 70 24 192 110 125z m-526 -201 c7 -6 12 -33 12 -63 0 -30
-5 -57 -12 -62 -7 -6 -46 -13 -85 -16 l-73 -6 0 83 0 83 73 -5 c39 -2 78 -9
85 -14z m-31 -197 c39 -24 51 -67 29 -109 -24 -46 -86 -56 -130 -21 -39 31
-37 88 5 123 36 31 54 32 96 7z m518 -68 c0 -46 -2 -83 -5 -83 -9 -1 -414 -1
-426 -1 -14 1 -6 140 9 159 7 9 58 12 215 10 l205 -3 2 -82z m176 58 c56 -57
23 -141 -56 -141 -89 0 -116 112 -37 154 40 22 60 19 93 -13z"/>
<path d="M5521 1143 c-18 -9 -42 -31 -52 -47 -18 -29 -19 -59 -19 -469 0 -477
0 -474 57 -513 26 -17 49 -19 263 -19 258 0 301 6 405 59 75 38 193 153 229
223 75 150 75 355 -1 494 -63 116 -187 220 -312 261 -58 19 -94 22 -301 25
-207 3 -239 2 -269 -14z m98 -38 c62 -32 62 -112 0 -149 -43 -25 -95 -7 -115
40 -13 31 -13 39 2 69 9 19 27 38 42 44 37 13 39 13 71 -4z m408 -1 c105 -24
170 -60 248 -139 100 -100 145 -205 145 -338 0 -184 -111 -359 -280 -440 -63
-30 -92 -38 -180 -46 -58 -5 -136 -8 -175 -6 -38 3 -73 5 -77 5 -10 0 3 143
15 157 7 9 47 13 136 13 165 0 222 20 300 105 60 65 81 120 81 211 0 96 -30
164 -100 227 -82 74 -105 81 -272 87 -80 3 -148 7 -151 10 -7 8 -16 158 -9
164 12 13 253 6 319 -10z m-369 -217 c9 -7 12 -72 12 -262 0 -190 -3 -255 -12
-262 -7 -6 -45 -13 -85 -16 -58 -5 -72 -3 -77 9 -8 22 -8 539 1 547 9 10 146
-4 161 -16z m351 -3 c61 -18 132 -78 163 -137 26 -51 34 -135 18 -190 -17 -64
-76 -135 -140 -171 -52 -29 -61 -31 -189 -34 -105 -4 -135 -2 -142 9 -10 16
-12 498 -3 523 9 23 218 23 293 0z m-390 -589 c55 -28 60 -104 9 -139 -66 -47
-153 18 -127 94 11 29 49 59 77 60 7 0 26 -7 41 -15z"/>
</g>
</svg>
